<svg width="81" height="81" viewBox="0 0 81 81" fill="none" xmlns="http://www.w3.org/2000/svg">
<rect x="45.1695" y="-0.669922" width="4.76471" height="65.7258" rx="2.38235" transform="rotate(45 45.1695 -0.669922)" fill="#00094A"/>
<rect x="56.1559" y="2.39966" width="4.76471" height="76.3176" rx="2.38235" transform="rotate(45 56.1559 2.39966)" fill="#00094A"/>
<rect x="64.847" y="7.76465" width="4.76471" height="80.5997" rx="2.38235" transform="rotate(45 64.847 7.76465)" fill="#00094A"/>
<rect x="71.5854" y="15.0833" width="4.76471" height="80.1078" rx="2.38235" transform="rotate(45 71.5854 15.0833)" fill="#00094A"/>
<rect x="76.4354" y="24.2886" width="4.76471" height="73.8013" rx="2.38235" transform="rotate(45 76.4354 24.2886)" fill="#00094A"/>
<rect x="78.5611" y="36.2195" width="4.76471" height="59.8975" rx="2.38235" transform="rotate(45 78.5611 36.2195)" fill="#00094A"/>
<rect x="77.5898" y="51.2463" width="4.76471" height="37.3479" rx="2.38235" transform="rotate(45 77.5898 51.2463)" fill="#00094A"/>
<rect x="32.575" y="-1.65479" width="4.76471" height="48.2403" rx="2.38235" transform="rotate(45 32.575 -1.65479)" fill="#00094A"/>
</svg>
