<svg width="61" height="60" viewBox="0 0 61 60" fill="none" xmlns="http://www.w3.org/2000/svg">
<path d="M59.8683 27.3272L33.6713 1.13152C32.1635 -0.377175 29.7166 -0.377175 28.2069 1.13152L22.767 6.57147L29.6678 13.4723C31.2714 12.9304 33.1104 13.2939 34.3887 14.5722C35.6731 15.8588 36.034 17.7134 35.479 19.3222L42.1295 25.9729C43.7386 25.4186 45.5951 25.7772 46.8802 27.0644C48.6762 28.8598 48.6762 31.7696 46.8802 33.5661C45.0837 35.3629 42.1738 35.3629 40.3764 33.5661C39.0254 32.2137 38.6917 30.2297 39.3756 28.5654L33.1734 22.3632L33.1727 38.6847C33.6223 38.907 34.033 39.2007 34.3887 39.5543C36.1847 41.3496 36.1847 44.2597 34.3887 46.0576C32.5922 47.8534 29.681 47.8534 27.887 46.0576C26.091 44.2597 26.091 41.3498 27.887 39.5545C28.3174 39.1239 28.8289 38.7828 29.392 38.5511V22.0775C28.8281 21.8474 28.3163 21.5061 27.887 21.0742C26.5262 19.7152 26.199 17.7186 26.8963 16.0477L20.0937 9.24433L2.13083 27.206C0.621429 28.7161 0.621429 31.1633 2.13083 32.6722L28.3283 58.8683C29.8366 60.3772 32.283 60.3772 33.7931 58.8683L59.8681 32.7938C61.377 31.2844 61.377 28.8359 59.8681 27.3272" fill="#00094A"/>
</svg>
