<svg width="29" height="60" viewBox="0 0 29 60" fill="none" xmlns="http://www.w3.org/2000/svg">
<path d="M26.9621 0.000446599C26.8942 -0.000857726 26.8281 0.0226012 26.7761 0.0664483L19.3459 8.89068L17.8299 14.1028C16.7689 14.0694 15.7074 14.0534 14.6458 14.0548C6.92561 14.0548 0.653442 14.8748 0.653442 15.8869C0.653442 18.3069 28.6342 18.3069 28.6342 15.8869C28.6342 15.1368 25.2841 14.5048 20.454 14.2048L21.654 9.9147L28.6042 1.55449L28.6142 1.54249C28.7702 1.38248 28.4662 0.89447 27.9701 0.468459C27.5981 0.14845 27.2081 -0.00955366 26.9621 0.000446599ZM17.2599 16.1529L17.2319 16.2349C17.2199 16.2449 17.2199 16.2589 17.2199 16.2709C17.2199 16.4209 17.8259 16.5429 18.5639 16.5429C19.3039 16.5429 19.9119 16.4209 19.9119 16.2709L19.9359 16.1769C20.1299 16.2469 20.236 16.3269 20.236 16.4189C20.236 16.6609 19.4859 16.8589 18.5519 16.8489C17.6439 16.8489 16.8919 16.6649 16.8919 16.4229C16.8919 16.3189 17.0419 16.2229 17.2599 16.1529ZM28.4802 16.8409C24.7761 18.8149 4.55354 18.8289 0.837447 16.8689L2.48149 31.3333C3.19551 29.0272 5.00156 25.9131 7.32562 24.9691C8.08564 24.6571 8.86165 24.6591 9.58567 25.0751C10.2177 25.4211 10.7497 26.1471 10.8097 26.4351C10.9557 27.1852 10.5697 27.4812 10.2677 27.4812C9.90368 27.4812 9.62568 26.9531 9.44367 26.6411C8.94766 25.8011 8.19564 25.7631 7.39562 26.3171C6.5596 26.8931 5.83358 27.8632 5.32556 28.7052C4.697 29.7183 4.20792 30.8115 3.87153 31.9553C3.69152 32.6013 3.52352 33.6353 3.80152 34.2473C3.92353 34.5013 4.10353 34.6613 4.39554 34.6613C5.00156 34.6613 5.88158 33.9013 6.30559 33.4973C6.8496 32.9793 7.55162 32.1713 7.81763 31.6533L8.44964 29.8692C8.76365 29.0852 9.64568 29.2232 9.64568 29.8692C9.64568 31.0452 9.20166 31.4373 8.43964 33.8693C7.73763 36.1174 7.51762 36.8454 7.51762 36.8454C7.43362 37.1654 7.10561 37.7094 6.7556 37.7094C6.6096 37.7094 6.50359 37.6594 6.44359 37.5694C6.32159 37.4054 6.33359 36.9614 6.34359 36.8454C6.36959 36.4774 7.10561 34.2853 7.22761 33.9393C6.97903 34.2021 6.72085 34.4556 6.45359 34.6993C5.79957 35.2894 4.74955 36.0594 3.85353 36.0594C3.52173 36.0711 3.19517 35.9742 2.9235 35.7834L3.84152 44.9596C4.08153 45.5356 8.58765 46.9317 14.5178 46.9317C20.458 46.9317 24.9581 45.5256 25.1901 44.9596L26.5101 34.0553C25.8201 34.6553 25.0221 35.3954 24.1381 35.7634C23.484 36.0294 22.032 36.1994 22.032 35.1034C22.032 34.5033 23.136 33.3993 23.776 32.6273C23.946 32.4313 24.3421 31.9473 24.3421 31.6933C24.3421 31.3593 23.618 31.4353 22.928 31.9773C22.5344 32.3091 22.1801 32.6849 21.872 33.0973C21.352 33.7913 21.076 34.3873 20.846 34.8834C20.0959 36.5194 20.35 35.8754 19.7439 37.4194C19.1379 38.9535 19.2359 38.7794 19.1139 39.0335C19.0127 39.2543 18.843 39.4367 18.6299 39.5535C18.514 39.6107 18.3854 39.6375 18.2562 39.6312C18.1271 39.6249 18.0017 39.5858 17.8919 39.5175C17.7839 39.4475 17.7319 39.2975 17.7319 39.0915C17.7319 38.9875 17.7479 38.8835 17.7719 38.7794C17.9519 38.0754 18.7159 36.6934 19.5879 34.8253C19.7819 34.3993 19.7079 34.5253 19.6819 34.5593C18.9319 35.2514 18.3619 35.5874 17.9399 35.7714C17.2379 36.0714 16.3659 36.0714 16.1858 35.2974C16.1738 35.2514 16.1738 35.2034 16.1618 35.1574C14.7338 36.2174 13.2218 36.5054 13.7418 34.2233C13.1878 35.1694 12.2157 35.9434 11.0277 35.9434C10.5337 35.9434 10.1697 35.7834 9.98968 35.3574C9.71168 34.7233 10.1457 33.6373 10.5437 32.6113C10.7497 32.0913 11.0317 31.4713 11.4077 30.7432C11.6017 30.3512 11.9137 30.1192 12.3257 30.2232C12.3936 30.2441 12.4593 30.2715 12.5217 30.3052C12.8358 30.5132 12.7138 30.8212 12.5558 31.1333C12.0957 31.9973 11.6957 32.6333 11.4317 33.5333C11.3237 33.9133 11.1877 34.5733 11.6117 34.5733C11.912 34.5682 12.2033 34.4704 12.4457 34.2933C13.0018 33.9013 13.4498 33.3153 13.7898 32.7393C14.0643 32.2911 14.2921 31.8159 14.4698 31.3213C14.5298 31.1253 14.6058 30.9412 14.6898 30.7672C14.8238 30.4792 15.0018 30.1812 15.3178 30.1812C15.4758 30.1812 15.6058 30.2392 15.7038 30.3532C15.9098 30.6072 15.8638 30.8672 15.7558 31.1453C15.5138 31.7913 15.1878 32.3693 14.9198 33.0713C14.7598 33.4753 14.5918 33.9933 14.5918 34.4193C14.5918 34.8113 15.0398 34.7193 15.4158 34.5553C15.7058 34.4293 15.9958 34.2353 16.2398 34.0413C16.3858 33.4773 16.3478 33.6013 19.4359 26.1771C19.5939 25.7971 19.8839 25.6331 20.1739 25.6331C20.3129 25.636 20.4476 25.6814 20.56 25.7631C20.766 25.9131 20.77 26.2311 20.686 26.4731C20.602 26.6931 20.61 26.6251 20.1379 27.6852C19.5079 29.0792 19.0979 30.0852 18.5399 31.3653C18.3099 31.8953 17.6099 33.5433 17.4899 33.9353C17.4179 34.1893 17.3299 34.6033 17.6099 34.6033C18.2659 34.6033 19.9479 33.0913 20.408 32.6433C20.432 32.6073 20.468 32.5953 20.518 32.5713C20.59 32.3513 20.66 32.1473 20.72 31.9393C20.89 31.4993 21.048 30.9892 21.364 30.6332C21.46 30.5172 21.57 30.4512 21.69 30.4512C22.028 30.4512 22.196 30.5872 22.196 30.9112C22.196 31.0372 22.116 31.5013 22.064 31.6273C22.234 31.4553 22.414 31.2833 22.608 31.1113C24.4241 29.5092 25.7161 30.3252 25.7161 31.1333C25.7161 31.9853 24.6401 33.1733 24.048 33.8293C23.854 34.0493 23.456 34.4513 23.444 34.5693C23.444 34.7173 23.55 34.7793 23.708 34.7793C23.95 34.7793 24.4841 34.3733 24.6781 34.2353C25.2841 33.7853 26.1041 33.0953 26.6861 32.6113L28.4782 16.8409H28.4802ZM4.51354 46.0616L6.31759 48.9917L7.02161 58.1439C7.02161 59.17 10.4457 60 14.6578 60C18.8699 60 22.294 59.17 22.294 58.1439L22.854 48.8977L24.5561 46.0616C19.7619 47.9877 9.50167 48.0557 4.51354 46.0616Z" fill="#00094A"/>
</svg>
