<svg width="54" height="60" viewBox="0 0 54 60" fill="none" xmlns="http://www.w3.org/2000/svg">
<path d="M26.6301 59.9998C25.8033 59.9998 25.0316 59.7793 24.3151 59.3935L16.9838 55.0388C15.8814 54.4325 16.4326 54.212 16.7633 54.1018C18.2515 53.6057 18.5271 53.4955 20.0704 52.6134C20.236 52.5031 20.4565 52.5583 20.6216 52.6685L26.2442 56.031C26.4647 56.1412 26.7403 56.1412 26.9057 56.031L48.8994 43.298C49.1198 43.1877 49.2301 42.9673 49.2301 42.6917V17.2804C49.2301 17.0048 49.1198 16.7843 48.8994 16.674L26.9057 3.99595C26.6852 3.88571 26.4096 3.88571 26.2442 3.99595L4.25054 16.6743C4.03007 16.7845 3.91983 17.0601 3.91983 17.2806V42.6917C3.91983 42.9121 4.03007 43.1877 4.25054 43.298L10.259 46.7705C13.5112 48.4241 15.5504 46.4949 15.5504 44.5657V19.4851C15.5504 19.1544 15.8262 18.8237 16.2121 18.8237H19.0234C19.3541 18.8237 19.6848 19.0993 19.6848 19.4851V44.5655C19.6848 48.9202 17.3145 51.4557 13.1803 51.4557C11.9126 51.4557 10.9204 51.4557 8.10932 50.0777L2.32136 46.7705C0.888259 45.9435 0.00634766 44.4002 0.00634766 42.7466V17.3357C0.00634766 15.6821 0.888259 14.1388 2.32136 13.3118L24.3151 0.578754C25.693 -0.192918 27.5671 -0.192918 28.9451 0.578754L50.9388 13.3118C52.3719 14.1386 53.2538 15.6819 53.2538 17.3357V42.7468C53.2538 44.4004 52.3719 45.9437 50.9388 46.7705L28.9451 59.5039C28.2285 59.8346 27.4017 60 26.6301 60V59.9998ZM33.41 42.5261C23.7637 42.5261 21.7794 38.1165 21.7794 34.3682C21.7794 34.0375 22.055 33.7068 22.4408 33.7068H25.307C25.6377 33.7068 25.9135 33.9273 25.9135 34.258C26.3545 37.1793 27.6222 38.6126 33.4651 38.6126C38.0953 38.6126 40.0798 37.5653 40.0798 35.085C40.0798 33.6517 39.5286 32.6044 32.3076 31.8876C26.2994 31.2813 22.551 29.9585 22.551 25.1631C22.551 20.698 26.2991 18.0522 32.5832 18.0522C39.6387 18.0522 43.1114 20.4775 43.5524 25.7692C43.5524 25.9345 43.4972 26.0999 43.387 26.2652C43.2768 26.3755 43.1114 26.4857 42.946 26.4857H40.0798C39.804 26.4857 39.5286 26.2652 39.4733 25.9896C38.8119 22.9581 37.1032 21.9659 32.5832 21.9659C27.5122 21.9659 26.9057 23.7297 26.9057 25.0526C26.9057 26.6513 27.6222 27.1472 34.4572 28.0291C41.2373 28.911 44.4343 30.1789 44.4343 34.9194C44.3792 39.7701 40.4106 42.5261 33.41 42.5261Z" fill="#00094A"/>
</svg>
