<svg width="61" height="60" viewBox="0 0 61 60" fill="none" xmlns="http://www.w3.org/2000/svg">
<path d="M34.4782 0.24556C18.0438 -1.85445 3.01377 9.74621 0.906265 26.1825C-1.19374 42.6169 10.4069 57.6469 26.8432 59.7544C43.2776 61.8544 58.3076 50.2538 60.4058 33.8175C62.5152 17.3831 50.9164 2.35306 34.4782 0.24556ZM40.6507 18.9656C40.0938 18.9656 39.5651 19.1906 39.1751 19.59L28.0432 30.7125L27.2726 29.9494L25.6694 28.3387C36.6363 17.4018 38.6201 17.2931 40.6489 18.9637L40.6507 18.9656ZM28.5026 31.1119L39.5951 20.01C39.7413 19.8576 39.9169 19.7366 40.1113 19.6542C40.3056 19.5718 40.5147 19.5298 40.7259 19.5306C40.937 19.5315 41.1457 19.5753 41.3394 19.6593C41.5331 19.7433 41.7077 19.8658 41.8526 20.0194C41.9965 20.173 42.1075 20.3544 42.1789 20.5524C42.2503 20.7504 42.2805 20.9609 42.2677 21.171C42.2549 21.3811 42.1993 21.5864 42.1044 21.7743C42.0095 21.9622 41.8772 22.1287 41.7157 22.2637L29.9688 32.5763L28.5026 31.1119ZM29.3238 32.8519L26.5694 33.4463C26.5362 33.4508 26.5023 33.4448 26.4727 33.429C26.443 33.4131 26.4191 33.3883 26.4044 33.3581C26.3894 33.3292 26.3842 33.2962 26.3896 33.264C26.395 33.2319 26.4108 33.2024 26.4344 33.18L28.0451 31.5694L29.3238 32.8519ZM22.3113 31.7006L25.2513 28.77L27.4488 30.9675L22.4969 32.0306C22.4553 32.0416 22.4111 32.038 22.3718 32.0202C22.3325 32.0024 22.3006 31.9717 22.2813 31.9331C22.2598 31.8965 22.2511 31.8538 22.2565 31.8117C22.2619 31.7697 22.2812 31.7306 22.3113 31.7006ZM13.2007 46.845C13.0938 46.8357 13.0132 46.7382 13.0225 46.6407C13.0305 46.5962 13.0513 46.5551 13.0825 46.5225H13.0919L15.4544 44.16L18.5126 47.2182L13.2007 46.845ZM19.2626 43.7007C19.1502 43.7616 19.0608 43.8576 19.008 43.9741C18.9552 44.0905 18.9419 44.221 18.9701 44.3457L19.4782 46.5057C19.5588 46.8188 19.1763 47.0307 18.9513 46.7982H18.9419L15.8763 43.7307L25.2813 34.335L29.832 33.3506L32.0088 35.5388C28.8738 38.2913 24.5857 41.0363 19.2644 43.7007H19.2626ZM32.4588 35.1375L30.3588 33.0375L42.1057 22.725C42.2126 22.6275 42.3101 22.5206 42.3982 22.4119C42.0382 25.7719 37.3301 30.5175 32.4588 35.1375ZM41.6089 18.9844H41.5995C37.5063 14.8725 43.2889 8.5537 47.742 12.2643L43.7201 16.2993C43.692 16.3274 43.6697 16.3607 43.6545 16.3974C43.6392 16.4341 43.6314 16.4734 43.6314 16.5131C43.6314 16.5528 43.6392 16.5921 43.6545 16.6288C43.6697 16.6655 43.692 16.6988 43.7201 16.7268L46.8345 19.845C45.9832 20.2673 45.0206 20.4114 44.0829 20.257C43.1452 20.1026 42.2798 19.6574 41.6089 18.9844ZM48.0439 18.9844C47.8399 19.19 47.6142 19.373 47.3707 19.53L44.3539 16.5131L48.1807 12.675C48.9776 13.5405 49.4085 14.681 49.383 15.8572C49.3575 17.0335 48.8775 18.1542 48.0439 18.9844ZM47.7982 15.1275C47.738 15.1704 47.6927 15.231 47.6685 15.3009C47.6443 15.3708 47.6425 15.4465 47.6632 15.5175C47.7541 15.6966 47.7905 15.8985 47.7678 16.0981C47.7451 16.2978 47.6645 16.4864 47.5357 16.6406C47.506 16.6767 47.4839 16.7184 47.4707 16.7632C47.4576 16.808 47.4535 16.855 47.459 16.9014C47.4644 16.9478 47.4792 16.9926 47.5023 17.0332C47.5255 17.0738 47.5566 17.1092 47.5939 17.1375C47.6536 17.1803 47.7248 17.2045 47.7982 17.2068C47.9051 17.2068 48.0064 17.1675 48.0626 17.0887C48.2779 16.8298 48.4136 16.5141 48.4536 16.1798C48.4935 15.8454 48.4359 15.5067 48.2876 15.2043C48.2608 15.1668 48.2268 15.135 48.1876 15.1107C48.1483 15.0865 48.1046 15.0703 48.0591 15.0631C48.0135 15.056 47.967 15.058 47.9222 15.069C47.8774 15.0801 47.8353 15.0999 47.7982 15.1275Z" fill="#00094A"/>
</svg>
