<svg width="65" height="60" viewBox="0 0 65 60" fill="none" xmlns="http://www.w3.org/2000/svg">
<path d="M32.4982 36.0113C35.699 36.0113 38.2938 33.3193 38.2938 29.9984C38.2938 26.6776 35.699 23.9856 32.4982 23.9856C29.2973 23.9856 26.7025 26.6776 26.7025 29.9984C26.7025 33.3193 29.2973 36.0113 32.4982 36.0113Z" fill="#00094A"/>
<path d="M16.2732 41.9563L14.9907 41.6161C5.46446 39.12 0 34.8756 0 29.9878C0 25.0967 5.4677 20.8557 14.9907 18.3596L16.2732 18.0228L16.6336 19.3399C17.5965 22.7882 18.8301 26.1489 20.3221 29.3882L20.598 29.9878L20.3221 30.5874C18.8285 33.8314 17.5915 37.1932 16.6336 40.6425L16.2732 41.9563ZM14.3998 21.425C7.16256 23.5405 2.71762 26.7675 2.71762 29.9878C2.71762 33.2014 7.15932 36.4319 14.3998 38.5439C15.2862 35.62 16.3577 32.7602 17.598 29.9878C16.3487 27.2109 15.2802 24.3502 14.3998 21.425ZM48.7256 41.9563L48.3684 40.6358C47.403 37.1868 46.1684 33.8251 44.6767 30.5841L44.4007 29.9878L44.6767 29.3849C46.1703 26.1477 47.4008 22.7825 48.3684 19.3331L48.7256 18.0194L50.0081 18.3563C59.5376 20.8524 64.9988 25.0934 64.9988 29.9878C64.9988 34.879 59.5343 39.12 50.0081 41.6161L48.7256 41.9563ZM47.3943 29.9878C48.6931 32.905 49.7743 35.775 50.599 38.5439C57.8395 36.4319 62.2844 33.2014 62.2844 29.9878C62.2844 26.7675 57.8427 23.5438 50.599 21.425C49.7135 24.3493 48.643 27.2098 47.3943 29.9878Z" fill="#00094A"/>
<path d="M14.3807 21.4109L14.0236 20.0972C11.3417 10.3014 12.1534 3.28477 16.2542 0.83921C20.264 -1.5693 26.7155 1.27712 33.4722 8.46896L34.3943 9.45257L33.4722 10.4328C31.0724 13.0222 28.879 15.8092 26.9136 18.7666L26.5467 19.3123L25.9103 19.3662C22.4543 19.6478 19.0262 20.2212 15.66 21.0808L14.3807 21.4109ZM19.5172 2.78623C18.79 2.78623 18.1471 2.95129 17.6048 3.27467C14.9165 4.88146 14.4424 10.4766 16.2931 18.0289C19.1861 17.3653 22.105 16.8903 25.0466 16.6242C26.7497 14.1182 28.6075 11.7294 30.6085 9.47279C26.3779 5.20484 22.3842 2.78623 19.5172 2.78623ZM45.4824 59.9976C41.6251 59.9976 36.6704 56.9794 31.5274 51.5021L30.6085 50.5219L31.5274 49.545C33.9276 46.9515 36.122 44.1611 38.0893 41.2011L38.4529 40.6621L39.0828 40.5981C42.54 40.3215 45.9694 39.7503 49.3364 38.8903L50.6189 38.5534L50.9793 39.8705C53.6482 49.6595 52.8397 56.6863 48.7454 59.1318C47.7514 59.7165 46.6249 60.0153 45.4824 59.9976ZM34.3943 50.4983C38.6217 54.7662 42.6186 57.1882 45.4824 57.1882C46.2129 57.1882 46.8558 57.0198 47.3948 56.6998C50.0864 55.0896 50.5637 49.4843 48.7065 41.9321C45.8168 42.599 42.8946 43.0774 39.9465 43.3435C38.2507 45.8535 36.3959 48.2437 34.3943 50.4983Z" fill="#00094A"/>
<path d="M50.6196 21.4126L49.3371 21.0791C45.9704 20.2169 42.5409 19.6434 39.0835 19.3646L38.4537 19.3073L38.09 18.7616C36.1255 15.8026 33.9309 13.0154 31.5281 10.4278L30.6093 9.44757L31.5281 8.47069C38.2816 1.28222 44.7298 -1.5642 48.7462 0.84094C52.8437 3.28987 53.6587 10.3065 50.98 20.0989L50.6196 21.4126ZM39.9472 16.6259C43.0447 16.9123 45.9799 17.394 48.7072 18.0306C50.5612 10.4783 50.0871 4.88319 47.3955 3.27303C44.7201 1.66623 39.6842 4.12527 34.3951 9.47452C36.3952 11.7314 38.2524 14.1164 39.9472 16.6259ZM19.518 59.9993C18.3755 60.0162 17.2493 59.7174 16.2549 59.1336C12.1541 56.688 11.3424 49.6646 14.0211 39.8723L14.3717 38.5552L15.6542 38.892C18.7842 39.7106 22.2324 40.2866 25.9078 40.5999L26.5377 40.6639L26.9046 41.2028C28.8657 44.1604 31.0606 46.9529 33.4632 49.5467L34.3853 50.5236L33.4632 51.5038C28.3235 56.9845 23.3688 59.9993 19.518 59.9993ZM16.2939 41.9372C14.4432 49.4894 14.9172 55.0947 17.6056 56.7049C20.2842 58.2881 25.3039 55.8459 30.6093 50.5C28.609 48.2427 26.7512 45.854 25.0474 43.3486C22.1028 43.0784 19.1786 42.6069 16.2939 41.9372Z" fill="#00094A"/>
<path d="M32.4992 43.7034C30.2686 43.7034 27.9796 43.6057 25.6808 43.407L25.0444 43.3497L24.6775 42.804C23.3812 40.8701 22.1616 38.8821 21.0216 36.845C19.89 34.8025 18.8382 32.7134 17.8689 30.5829L17.5961 29.9867L17.8689 29.3837C18.8397 27.2548 19.8884 25.1663 21.0216 23.125C22.1482 21.1173 23.3788 19.1097 24.6775 17.1626L25.0444 16.6237L25.6808 16.563C30.2163 16.1689 34.7756 16.1689 39.3111 16.563L39.941 16.6271L40.3079 17.166C42.9047 21.0356 45.1854 25.1235 47.1263 29.3871L47.3958 29.9901L47.1263 30.5863C45.1908 34.8528 42.9098 38.9411 40.3079 42.8074L39.941 43.3531L39.3111 43.4103C37.0188 43.6023 34.7265 43.7034 32.4992 43.7034ZM26.5445 40.6582C30.5543 40.9715 34.4441 40.9715 38.4507 40.6582C40.6874 37.2601 42.6757 33.6929 44.3989 29.9867C42.6818 26.2771 40.6932 22.7095 38.4507 19.3151C34.4878 18.9985 30.5073 18.9985 26.5445 19.3151C24.3 22.7083 22.3114 26.276 20.5962 29.9867C22.3232 33.6909 24.3113 37.2578 26.5445 40.6582Z" fill="#00094A"/>
</svg>
