<svg width="81" height="60" viewBox="0 0 81 60" fill="none" xmlns="http://www.w3.org/2000/svg">
<path d="M68.8916 34.4918C66.1006 34.5062 63.6746 35.1784 61.6435 36.1722C60.898 34.6961 60.1527 33.3811 60.0214 32.4165C59.8751 31.2914 59.6999 30.6045 59.8751 29.26C60.0506 27.9156 60.8397 26.0011 60.825 25.855C60.8105 25.709 60.6495 25.022 59.0421 25.0076C57.4347 24.9929 56.0464 25.3144 55.8856 25.7381C55.7248 26.1618 55.418 27.1265 55.2134 28.1199C54.9357 29.5816 51.9986 34.7983 50.3182 37.531C49.7773 36.4646 49.3097 35.5291 49.2072 34.7839C49.0612 33.6588 48.8857 32.9718 49.0612 31.6274C49.2367 30.2829 50.0258 28.3687 50.0111 28.2224C49.9964 28.0763 49.8356 27.3894 48.2282 27.375C46.6205 27.3602 45.2322 27.6818 45.0717 28.1055C44.911 28.5295 44.7355 29.523 44.3995 30.4876C44.0633 31.4522 40.1615 40.1619 39.1386 42.4121C38.7253 43.3229 38.2916 44.2243 37.8381 45.1157C37.8381 45.1157 37.8233 45.1596 37.7794 45.2326C37.637 45.5121 37.4909 45.7898 37.3413 46.0656V46.08C37.122 46.4749 36.8882 46.84 36.7713 46.84C36.6835 46.84 36.5228 45.7879 36.8004 44.3557C37.3849 41.3309 38.7732 36.6253 38.7588 36.4646C38.7588 36.3768 39.0217 35.5586 37.8528 35.1345C36.7127 34.7108 36.3037 35.4122 36.2012 35.4122C36.099 35.4122 36.0257 35.6607 36.0257 35.6607C36.0257 35.6607 37.2975 30.3707 33.6001 30.3707C31.2913 30.3707 28.1054 32.8988 26.5272 35.1784C24.733 36.1548 22.9404 37.1339 21.1494 38.1158C20.2875 38.5981 19.3959 39.0804 18.563 39.5333C18.5043 39.475 18.4461 39.4017 18.3875 39.3434C13.9157 34.5648 5.64466 31.1889 5.99535 24.7738C6.12697 22.4356 6.93051 16.2979 21.8802 8.84511C34.1845 2.78037 43.9758 4.46078 45.6709 8.18731C48.0966 13.5068 40.4248 23.3855 27.7108 24.8174C22.8592 25.3583 20.3164 23.4877 19.6736 22.7863C19.0014 22.0555 18.8989 22.0116 18.6504 22.158C18.2414 22.3773 18.5043 23.0348 18.6504 23.4147C19.0305 24.4081 20.594 26.1618 23.2391 27.0243C25.5773 27.784 31.2619 28.208 38.1449 25.5482C45.8461 22.5669 51.867 14.2812 50.0988 7.3399C48.3304 0.296124 36.6396 -2.02736 25.5773 1.90351C19.0014 4.24203 11.8699 7.92437 6.74059 12.7177C0.646706 18.4167 -0.317911 23.3708 0.0766477 25.4461C1.49443 32.8111 11.6508 37.6044 15.7133 41.1554C15.5086 41.2723 15.3184 41.3748 15.158 41.4625C13.1266 42.4707 5.38141 46.5185 3.45249 50.8003C1.26064 55.6519 3.80349 59.1302 5.48389 59.5975C10.7009 61.0444 16.064 58.4433 18.9428 54.1467C21.8216 49.8504 21.4709 44.268 20.1412 41.7107C20.1265 41.6816 20.112 41.6521 20.0826 41.623C20.6088 41.3162 21.1494 40.9946 21.6755 40.6878C22.6426 40.1161 23.622 39.5655 24.613 39.0363C24.1159 40.3954 23.7505 42.0175 23.5753 44.3557C23.3559 47.1032 24.481 50.6687 25.9571 52.0714C26.6149 52.6857 27.3893 52.7001 27.8863 52.7001C29.6106 52.7001 30.3853 51.2679 31.2474 49.5728C32.2995 47.4978 33.2494 45.0866 33.2494 45.0866C33.2494 45.0866 32.0657 51.6042 35.2808 51.6042C36.4497 51.6042 37.6334 50.0842 38.1596 49.3098V49.3242C38.1596 49.3242 38.1887 49.2804 38.2473 49.1782C38.3642 48.9883 38.4373 48.8711 38.4373 48.8711V48.8422C38.9048 48.0237 39.9572 46.1678 41.5207 43.0843C43.5374 39.1096 45.481 34.1411 45.481 34.1411C45.481 34.1411 45.6565 35.3539 46.2554 37.3706C46.6064 38.5543 47.3366 39.8548 47.9214 41.1115C47.4538 41.7693 47.1614 42.1344 47.1614 42.1344L47.1762 42.1492C46.796 42.6459 46.387 43.1865 45.9339 43.713C44.3409 45.6124 42.4415 47.7902 42.1782 48.4182C41.8711 49.1635 41.9444 49.7044 42.5292 50.1428C42.9529 50.4644 43.7126 50.5079 44.4873 50.4644C45.9195 50.3619 46.9276 50.0112 47.4244 49.7921C48.1991 49.5145 49.1051 49.0905 49.9525 48.4621C51.5163 47.3076 52.4659 45.6563 52.3785 43.4792C52.3346 42.2808 51.94 41.0824 51.4577 39.957C51.6041 39.7527 51.7354 39.548 51.8817 39.3434C54.3512 35.7337 56.2658 31.7734 56.2658 31.7734C56.2658 31.7734 56.4413 32.9862 57.0401 35.0032C57.3325 36.0261 57.9317 37.1368 58.4576 38.218C56.1341 40.1033 54.7019 42.2952 54.1905 43.7274C53.2701 46.3871 53.9858 47.5852 55.345 47.8629C55.9586 47.9945 56.8355 47.7021 57.4786 47.4245C58.2968 47.1615 59.2615 46.7087 60.1822 46.0361C61.746 44.8819 63.2509 43.2742 63.1632 41.0971C63.1193 40.1033 62.8564 39.124 62.4909 38.1741C64.4637 37.3562 67.0066 36.903 70.2505 37.2828C77.2068 38.1011 78.5804 42.4412 78.3172 44.2683C78.0543 46.0948 76.5929 47.0885 76.1109 47.3953C75.6283 47.7024 75.4678 47.8046 75.5117 48.0237C75.57 48.3452 75.8038 48.3308 76.2131 48.2722C76.7831 48.17 79.8666 46.7961 79.9979 43.435C80.2173 39.1387 76.1253 34.4479 68.8916 34.4918ZM15.231 52.5832C12.9219 55.0966 9.70715 56.0465 8.31883 55.2429C6.82834 54.3805 7.41282 50.6687 10.2477 48.0093C11.972 46.3871 14.1933 44.8816 15.6694 43.9612C16.0054 43.7565 16.5024 43.4645 17.1016 43.099C17.2038 43.0404 17.2624 43.0113 17.2624 43.0113L17.6131 42.7919C18.6504 46.5915 17.6569 49.9382 15.231 52.5832ZM32.0366 41.1554C31.2327 43.1138 29.5523 48.1262 28.5294 47.8485C27.6525 47.6147 27.1116 43.8151 28.3539 40.0595C28.9823 38.1741 30.312 35.9237 31.0867 35.0471C32.3434 33.6441 33.7317 33.1762 34.0676 33.7465C34.4917 34.4918 32.5333 39.9278 32.0366 41.1554ZM45.9047 47.7899C45.5685 47.9654 45.2472 48.0823 45.1009 47.9945C44.9987 47.9359 45.2472 47.7021 45.2472 47.7021C45.2472 47.7021 46.9863 45.8318 47.6729 44.9841C48.0678 44.4874 48.535 43.9029 49.0321 43.2451V43.435C49.0321 45.671 46.869 47.1763 45.9044 47.7899H45.9047ZM56.6017 45.3495C56.3532 45.174 56.3971 44.5895 57.2301 42.7628C57.5516 42.0467 58.3113 40.8486 59.6121 39.6941C59.7582 40.1616 59.8607 40.6148 59.8459 41.0385C59.8312 43.859 57.8148 44.9111 56.6017 45.3495Z" fill="#00094A"/>
</svg>
