<svg width="61" height="60" viewBox="0 0 61 60" fill="none" xmlns="http://www.w3.org/2000/svg">
<path d="M0.00634766 30V60H60.0063V0H0.00634766V30Z" fill="#00094A"/>
<path d="M13.2746 30.1993L13.2556 32.6563H21.065V54.8469H26.5892V32.6563H34.3986V30.2469C34.3986 28.9133 34.37 27.7991 34.332 27.7705C34.3034 27.7325 29.551 27.7133 23.7891 27.7229L13.3034 27.7515L13.2748 30.1991L13.2746 30.1993Z" fill="white"/>
<path d="M48.4204 27.6815C49.9441 28.0626 51.1062 28.7385 52.1728 29.8434C52.7252 30.434 53.5441 31.5102 53.6109 31.7673C53.6297 31.8435 51.0204 33.5959 49.4395 34.5768C49.3823 34.615 49.1536 34.3673 48.8965 33.9862C48.1251 32.8626 47.3156 32.3767 46.0774 32.2912C44.2587 32.1672 43.087 33.1197 43.0966 34.7099C43.0966 35.1768 43.1632 35.4529 43.3537 35.834C43.7538 36.6625 44.4965 37.1577 46.83 38.1672C51.1251 40.015 52.9631 41.234 54.1062 42.9672C55.3823 44.9008 55.668 47.9863 54.8013 50.2816C53.849 52.7767 51.4872 54.4722 48.1631 55.034C47.1347 55.2149 44.6967 55.1863 43.5919 54.9864C41.1825 54.5577 38.8966 53.3673 37.4871 51.8055C36.9347 51.1959 35.8584 49.6054 35.9252 49.491C35.9538 49.4531 36.2013 49.3007 36.4774 49.1388C36.7441 48.9864 37.7538 48.4052 38.7061 47.853L40.4299 46.8529L40.7918 47.3863C41.2966 48.1577 42.4012 49.2149 43.068 49.5672C44.9822 50.5769 47.6109 50.4339 48.9061 49.2719C49.4585 48.7673 49.687 48.2434 49.687 47.4719C49.687 46.7767 49.6012 46.472 49.2394 45.9484C48.773 45.2816 47.8204 44.7196 45.1155 43.5484C42.0204 42.2149 40.687 41.3863 39.468 40.072C38.7633 39.3102 38.0965 38.091 37.8204 37.072C37.5919 36.2245 37.5344 34.1006 37.7156 33.2434C38.3538 30.2528 40.6108 28.1673 43.8679 27.5481C44.925 27.3482 47.3822 27.4244 48.4204 27.6817V27.6815Z" fill="white"/>
</svg>
