<svg width="40" height="40" viewBox="0 0 40 40" fill="none" xmlns="http://www.w3.org/2000/svg">
<path d="M38.5659 16.495L36.7633 16.1945C36.3335 14.2892 35.5887 12.4916 34.544 10.8377L35.6065 9.3502C36.1039 8.65364 36.0697 7.78552 35.5232 7.23888L32.761 4.47678C32.2145 3.93006 31.3463 3.89584 30.6497 4.3935L29.1624 5.45584C27.509 4.41123 25.7115 3.66655 23.8054 3.23663L23.5049 1.43398C23.3642 0.589685 22.7261 0 21.9531 0H18.0468C17.2738 0 16.6357 0.589685 16.495 1.43398L16.1945 3.23663C14.2885 3.66655 12.491 4.41123 10.8376 5.45584L9.35028 4.3935C8.65379 3.89592 7.78552 3.93022 7.23903 4.47678L4.47678 7.23896C3.9303 7.78552 3.896 8.65364 4.3935 9.35028L5.45592 10.8377C4.41123 12.4915 3.66647 14.2892 3.23663 16.1946L1.43398 16.495C0.589607 16.6357 0 17.2739 0 18.0468V21.953C0 22.7261 0.589607 23.3642 1.43398 23.505L3.23663 23.8055C3.66647 25.7109 4.41123 27.5085 5.45592 29.1623L4.39342 30.6499C3.896 31.3464 3.9303 32.2146 4.47678 32.7611L7.23888 35.5232C7.78552 36.0699 8.65364 36.1041 9.3502 35.6065L10.8375 34.5442C12.4909 35.5888 14.2885 36.3335 16.1945 36.7634L16.4949 38.566C16.6356 39.4103 17.2738 40 18.0467 40H21.953C22.726 40 23.3641 39.4103 23.5048 38.566L23.8052 36.7634C25.7112 36.3335 27.5089 35.5888 29.1622 34.5442L30.6496 35.6065C31.3461 36.1041 32.2144 36.0698 32.7608 35.5232L35.5231 32.761C36.0695 32.2145 36.1038 31.3463 35.6063 30.6497L34.5438 29.1623C35.5885 27.5084 36.3333 25.7108 36.7631 23.8055L38.5658 23.505C39.4102 23.3643 39.9998 22.7262 39.9998 21.9532V18.0468C39.9999 17.2738 39.4103 16.6357 38.5659 16.495ZM38.4374 21.9193C38.4151 21.9331 38.3728 21.953 38.3091 21.9637L35.9795 22.3519C35.6574 22.4056 35.4027 22.654 35.3409 22.9747C34.941 25.0494 34.1368 26.9906 32.9508 28.7441C32.7679 29.0146 32.7724 29.3702 32.9622 29.6359L34.3349 31.5578C34.3725 31.6105 34.3884 31.6545 34.3943 31.6801L31.68 34.3944C31.6544 34.3885 31.6104 34.3726 31.5578 34.335L29.6359 32.9622C29.3701 32.7724 29.0144 32.7679 28.744 32.9509C26.9912 34.1367 25.0501 34.9409 22.9747 35.3409C22.6541 35.4027 22.4056 35.6574 22.3519 35.9795L21.9637 38.309C21.953 38.3728 21.9331 38.4151 21.9192 38.4374H18.0806C18.0667 38.4151 18.0468 38.3728 18.0362 38.309L17.6479 35.9795C17.5942 35.6574 17.3458 35.4027 17.0252 35.3409C14.9497 34.9408 13.0085 34.1367 11.2558 32.9509C10.9853 32.7678 10.6296 32.7724 10.3639 32.9622L8.442 34.335C8.38942 34.3726 8.34544 34.3885 8.31989 34.3944L5.60553 31.6801C5.61146 31.6545 5.62732 31.6105 5.6649 31.5579L7.03771 29.636C7.22747 29.3703 7.232 29.0146 7.04911 28.7442C5.8631 26.9907 5.05889 25.0495 4.65904 22.9748C4.59725 22.6541 4.34248 22.4057 4.02037 22.352L1.69085 21.9637C1.62718 21.9531 1.58492 21.9332 1.56257 21.9194V18.0807C1.58492 18.0669 1.62718 18.047 1.69093 18.0363L4.02045 17.6481C4.34264 17.5944 4.59733 17.346 4.65912 17.0253C5.05904 14.9506 5.86318 13.0094 7.04919 11.2559C7.23208 10.9855 7.22755 10.6298 7.03779 10.3641L5.66506 8.44223C5.62748 8.38958 5.61154 8.34551 5.6056 8.31997L8.31997 5.60568C8.34551 5.61162 8.3895 5.62748 8.44208 5.66506L10.364 7.03786C10.6296 7.22763 10.9854 7.23224 11.2559 7.04919C13.0087 5.86334 14.9498 5.0592 17.0252 4.6592C17.3459 4.5974 17.5943 4.34264 17.648 4.02053L18.0363 1.69109C18.0469 1.62726 18.0668 1.58499 18.0807 1.56265H21.9193C21.9332 1.58499 21.9531 1.62726 21.9637 1.69109L22.352 4.02053C22.4057 4.34272 22.6541 4.5974 22.9748 4.6592C25.0502 5.05928 26.9914 5.86341 28.7441 7.04919C29.0144 7.23216 29.3702 7.22771 29.636 7.03786L31.5579 5.66506C31.6105 5.62748 31.6545 5.61162 31.68 5.60568L34.3944 8.31997C34.3885 8.34559 34.3726 8.38958 34.335 8.44215L32.9622 10.3641C32.7724 10.6298 32.7679 10.9854 32.9508 11.2559C34.1368 13.0094 34.941 14.9506 35.3409 17.0253C35.4027 17.346 35.6574 17.5944 35.9795 17.6481L38.3091 18.0363C38.3728 18.047 38.4151 18.0669 38.4374 18.0807V21.9193Z" fill="white"/>
<path d="M21.9726 16.5834C21.5991 16.3677 21.1212 16.4957 20.9055 16.8694L17.7414 22.3495C17.5256 22.7232 17.6537 23.201 18.0273 23.4167C18.3944 23.6306 18.8776 23.5078 19.0945 23.1308L22.2586 17.6506C22.4744 17.277 22.3464 16.7991 21.9726 16.5834Z" fill="white"/>
<path d="M15.9436 16.7076C15.6385 16.4025 15.1438 16.4025 14.8388 16.7076L12.0986 19.4477C11.7961 19.7387 11.7959 20.2616 12.0986 20.5526L14.8388 23.2927C14.9913 23.4452 15.1913 23.5215 15.3912 23.5215C16.0708 23.5327 16.438 22.6687 15.9436 22.1878L13.7559 20.0002L15.9436 17.8125C16.2486 17.5073 16.2487 17.0127 15.9436 16.7076Z" fill="white"/>
<path d="M24.0565 16.7074C23.7514 17.0125 23.7514 17.5072 24.0565 17.8123L26.2441 20L24.0565 22.1877C23.5627 22.6672 23.9287 23.5335 24.609 23.5213C24.8089 23.5213 25.0088 23.4451 25.1614 23.2925L27.9015 20.5524C28.2066 20.2473 28.2066 19.7527 27.9015 19.4475L25.1614 16.7074C24.8563 16.4023 24.3616 16.4023 24.0565 16.7074Z" fill="white"/>
<path d="M20 7.50008C13.1076 7.50008 7.50008 13.1076 7.50008 20C8.12851 36.5601 31.874 36.5556 32.5 19.9999C32.5 13.1076 26.8925 7.50008 20 7.50008ZM20 30.9375C13.9691 30.9375 9.06257 26.0309 9.06257 20C9.61241 5.50993 30.3898 5.51391 30.9375 20.0002C30.9375 26.0309 26.0309 30.9375 20 30.9375Z" fill="white"/>
</svg>
