<svg width="41" height="40" viewBox="0 0 41 40" fill="none" xmlns="http://www.w3.org/2000/svg">
<path d="M40.2272 36.6415C40.2255 36.5634 40.2099 36.4863 40.1812 36.4138C40.1766 36.4025 40.1687 36.3937 40.1634 36.3828C40.1441 36.3385 40.1201 36.2965 40.0916 36.2575L35.5656 30.4383V11.3334C35.5644 10.2293 34.6696 9.33457 33.5656 9.3334H24.2323V6.66677C24.2323 3.39436 20.8222 0.300624 20.677 0.17039C20.4241 -0.0567967 20.0406 -0.0567967 19.7877 0.17039C19.6426 0.300624 16.2324 3.39436 16.2324 6.66677V9.3334H6.89904C5.79498 9.33457 4.90022 10.2293 4.89904 11.3334V30.4382L0.373046 36.2574C0.344453 36.2966 0.320312 36.3387 0.301015 36.3831C0.295859 36.3939 0.288047 36.4025 0.283515 36.4136C0.254844 36.4863 0.239297 36.5634 0.2375 36.6415C0.237187 36.6503 0.232422 36.6577 0.232422 36.6667V38C0.233594 39.1041 1.12836 39.9988 2.23241 40H38.2323C39.3363 39.9988 40.2311 39.1041 40.2323 38V36.6667C40.2323 36.6577 40.2276 36.6503 40.2272 36.6415ZM24.2323 10.6668H33.5657C33.9337 10.6671 34.232 10.9653 34.2323 11.3334V22.6837C33.6586 22.2428 32.9559 22.0026 32.2323 22C32.2385 20.8207 31.7214 19.6995 30.8204 18.9387C29.9193 18.1779 28.7272 17.856 27.5657 18.0599V17.3334C27.5657 17.1775 27.5111 17.0266 27.4114 16.9067L24.2323 13.0918V10.6668ZM24.2323 15.1749L26.2323 17.5746V23.0574L24.2323 21.0574V15.1749ZM20.2323 1.60195C20.9998 2.39952 22.5151 4.17319 22.8354 6.00005H17.6293C17.9495 4.17319 19.4649 2.3996 20.2323 1.60195ZM17.5657 7.33341H22.8991V17.3334H17.5657V7.33341ZM17.5657 18.6667H22.8991V20.6667H17.5657V18.6667ZM18.6445 23.3333L17.9778 22H22.4869L21.8203 23.3333H18.6445ZM21.2194 24.6667C20.987 25.4036 20.6549 26.1052 20.2323 26.752C19.8095 26.1053 19.4773 25.4037 19.2452 24.6667H21.2194ZM6.2324 11.3334C6.23279 10.9653 6.53099 10.6671 6.89904 10.6668H16.2324V13.0918L13.0533 16.9067C12.9536 17.0265 12.899 17.1775 12.899 17.3334V18.0599C11.7375 17.856 10.5454 18.1779 9.64426 18.9387C8.74317 19.6995 8.22606 20.8208 8.23231 22C7.50872 22.0025 6.80599 22.2427 6.23232 22.6837L6.2324 11.3334ZM16.2324 15.1749V21.0573L14.2324 23.0573V17.5746L16.2324 15.1749ZM6.2324 25.3333C6.23357 24.2293 7.12833 23.3345 8.23239 23.3333C8.42575 23.3333 8.61794 23.3623 8.8027 23.4193C9.5759 23.648 10.1361 24.3188 10.2232 25.1204C10.2642 25.4863 10.5939 25.7497 10.9599 25.709C11.3258 25.6682 11.5894 25.3386 11.5488 24.9726C11.4185 23.7928 10.6696 22.7716 9.58356 22.2926C9.57207 22.1955 9.56614 22.0978 9.56567 22C9.56723 20.5279 10.7602 19.3349 12.2323 19.3334C12.4575 19.3364 12.6815 19.3677 12.8989 19.4265V24.6667C12.8989 24.9363 13.0614 25.1794 13.3104 25.2826C13.5596 25.3858 13.8463 25.3287 14.0369 25.138L16.716 22.4587L17.6359 24.2983C17.6947 24.4143 17.7863 24.5105 17.8994 24.575C17.9021 25.6447 19.262 27.7511 19.6788 28.3718C19.8027 28.5561 20.0102 28.6667 20.2322 28.6667C20.4542 28.6667 20.6617 28.5561 20.7855 28.3718C21.2024 27.751 22.5622 25.6447 22.565 24.575C22.678 24.5105 22.7697 24.4143 22.8285 24.2983L23.7482 22.4589L26.4275 25.1381C26.6181 25.3288 26.9048 25.3858 27.154 25.2826C27.4031 25.1794 27.5655 24.9364 27.5655 24.6668V19.4266C27.783 19.3678 28.0069 19.3366 28.2322 19.3334C29.7043 19.335 30.8972 20.528 30.8988 22.0001C30.8984 22.098 30.8924 22.1958 30.8809 22.293C29.795 22.772 29.0462 23.793 28.9157 24.9727C28.875 25.3385 29.1384 25.6681 29.5042 25.709C29.6804 25.7307 29.8578 25.6804 29.9964 25.5697C30.1351 25.459 30.2233 25.2971 30.2412 25.1205C30.3291 24.3171 30.8915 23.6455 31.667 23.4177C31.8501 23.3617 32.0406 23.3333 32.2321 23.3334C33.3361 23.3346 34.2309 24.2294 34.2321 25.3334V30H6.23216L6.2324 25.3333ZM5.89193 31.3333H34.5728L38.2024 35.9999H2.26234L5.89193 31.3333ZM38.8989 37.9999C38.8985 38.368 38.6003 38.6663 38.2323 38.6666H2.23241C1.86437 38.6662 1.56609 38.368 1.56578 37.9999V37.3333H38.899L38.8989 37.9999Z" fill="white"/>
<path d="M30.8989 33.3333H9.56571C9.19751 33.3333 8.89907 33.6317 8.89907 33.9999C8.89907 34.3681 9.19751 34.6666 9.56571 34.6666H30.899C31.2672 34.6666 31.5656 34.3681 31.5656 33.9999C31.5656 33.6317 31.2671 33.3333 30.8989 33.3333Z" fill="white"/>
<path d="M6.89901 33.3333H6.23237C5.86417 33.3333 5.56573 33.6317 5.56573 33.9999C5.56573 34.3681 5.86417 34.6666 6.23237 34.6666H6.89901C7.26721 34.6666 7.56564 34.3681 7.56564 33.9999C7.56564 33.6317 7.26721 33.3333 6.89901 33.3333Z" fill="white"/>
<path d="M34.2323 33.3333H33.5656C33.1974 33.3333 32.899 33.6317 32.899 33.9999C32.899 34.3681 33.1974 34.6666 33.5656 34.6666H34.2323C34.6005 34.6666 34.8989 34.3681 34.8989 33.9999C34.8989 33.6317 34.6005 33.3333 34.2323 33.3333Z" fill="white"/>
<path d="M20.899 8.66677H19.5656C19.1974 8.66677 18.899 8.9652 18.899 9.33341C18.899 9.70161 19.1974 10 19.5656 10H20.899C21.2672 10 21.5656 9.70153 21.5656 9.33341C21.5656 8.96528 21.2672 8.66677 20.899 8.66677Z" fill="white"/>
<path d="M20.899 11.3334H19.5656C19.1974 11.3334 18.899 11.6319 18.899 12C18.899 12.3682 19.1974 12.6667 19.5656 12.6667H20.899C21.2672 12.6667 21.5656 12.3681 21.5656 12C21.5657 11.6318 21.2672 11.3334 20.899 11.3334Z" fill="white"/>
</svg>
