<svg width="47" height="47" viewBox="0 0 47 47" fill="none" xmlns="http://www.w3.org/2000/svg">
<path d="M42.9272 5.46351H35.9031V3.90256C35.9002 1.74817 34.1546 0.00250096 32.0005 0H14.8297C12.6757 0.00250096 10.93 1.74817 10.9271 3.90256V5.46351H3.90303C1.74864 5.46601 0.00297398 7.21168 0.000473022 9.36571V35.122C0.00297398 37.276 1.74864 39.0217 3.90303 39.0245H15.6103V42.1464H13.2687C11.9757 42.1464 10.9271 43.1947 10.9271 44.4877V46.0486C10.9271 46.4799 11.2769 46.8293 11.7078 46.8293H35.1224C35.5533 46.8293 35.9031 46.4799 35.9031 46.0486V44.4877C35.9031 43.1947 34.8545 42.1464 33.5615 42.1464H31.2199V39.0245H42.9272C45.0816 39.0217 46.8272 37.276 46.8297 35.122V9.36571C46.8272 7.21168 45.0816 5.46601 42.9272 5.46351ZM12.4884 17.9511H14.0494C14.2563 17.9511 14.4546 17.8689 14.601 17.7225L15.3878 16.9365C15.7 17.0894 16.043 17.1694 16.3906 17.1708H19.5126C20.8059 17.1708 21.8542 16.1226 21.8542 14.8292V11.7073C21.8542 10.4143 20.8059 9.36571 19.5126 9.36571H16.3906C15.0977 9.36571 14.0494 10.4143 14.0494 11.7073V14.8292C14.0505 15.1769 14.1305 15.5198 14.2834 15.8321L13.7261 16.3902H12.4884V7.80476H34.3418V28.0975H12.4884V17.9511ZM18.5036 12.7166C18.1988 12.4119 17.7047 12.4119 17.4 12.7166L15.6103 14.5062V11.7073C15.6103 11.2764 15.9598 10.9267 16.3906 10.9267H19.5126C19.9438 10.9267 20.2932 11.2764 20.2932 11.7073V14.8292C20.2932 15.2605 19.9438 15.6099 19.5126 15.6099H16.714L18.5036 13.8203C18.8084 13.5151 18.8084 13.0214 18.5036 12.7166ZM12.4884 3.90256C12.4884 2.60921 13.5367 1.56095 14.8297 1.56095H32.0005C33.2935 1.56095 34.3418 2.60921 34.3418 3.90256V6.24381H12.4884V3.90256ZM3.90303 7.02446H10.9271V16.3902H3.90303C3.4718 16.3902 3.12238 16.7396 3.12238 17.1708C3.12238 17.6017 3.4718 17.9511 3.90303 17.9511H10.9271V28.0975H7.80523C7.37435 28.0975 7.02493 28.4469 7.02493 28.8781C7.02493 29.309 7.37435 29.6584 7.80523 29.6584H39.025C39.4559 29.6584 39.8053 29.309 39.8053 28.8781C39.8053 28.4469 39.4559 28.0975 39.025 28.0975H35.9031V7.02446H42.9272C44.2205 7.02446 45.2688 8.07272 45.2688 9.36571V32H1.56142V9.36571C1.56142 8.07272 2.60968 7.02446 3.90303 7.02446ZM34.3418 44.4877V45.2683H12.4884V44.4877C12.4884 44.0568 12.8379 43.7074 13.2687 43.7074H33.5615C33.9924 43.7074 34.3418 44.0568 34.3418 44.4877ZM29.6589 42.1464H17.1713V39.0245H29.6589V42.1464ZM42.9272 37.4636H3.90303C2.60968 37.4636 1.56142 36.4149 1.56142 35.122V33.561H45.2688V35.122C45.2688 36.4149 44.2205 37.4636 42.9272 37.4636Z" fill="#ffffff"/>
<path d="M25.7565 3.12174H21.0733C20.6424 3.12174 20.293 3.47116 20.293 3.90239C20.293 4.33327 20.6424 4.68269 21.0733 4.68269H25.7565C26.1874 4.68269 26.5368 4.33327 26.5368 3.90239C26.5368 3.47116 26.1874 3.12174 25.7565 3.12174Z" fill="#ffffff"/>
<path d="M32.5553 3.34823C32.2423 3.0592 31.76 3.0592 31.447 3.34823C31.3781 3.42398 31.3227 3.51115 31.283 3.60583C31.1998 3.79448 31.1998 4.00991 31.283 4.19892C31.3541 4.39506 31.5085 4.54941 31.7046 4.62015C31.7982 4.66016 31.899 4.6816 32.0012 4.68267C32.2077 4.67981 32.4056 4.59907 32.5553 4.45651C32.6257 4.38184 32.6814 4.29431 32.7193 4.19892C32.8025 4.00991 32.8025 3.79448 32.7193 3.60583C32.6796 3.51115 32.6243 3.42398 32.5553 3.34823Z" fill="#ffffff"/>
<path d="M30.2136 3.34823C29.9006 3.0592 29.4183 3.0592 29.1053 3.34823C29.0363 3.42398 28.981 3.51115 28.9413 3.60583C28.8584 3.79448 28.8584 4.00991 28.9413 4.19892C29.0124 4.39506 29.1667 4.54941 29.3629 4.62015C29.4569 4.66016 29.5576 4.6816 29.6594 4.68267C29.8663 4.67981 30.0639 4.59907 30.2136 4.45651C30.2843 4.38184 30.3397 4.29431 30.3776 4.19892C30.4608 4.00991 30.4608 3.79448 30.3776 3.60583C30.3379 3.51115 30.2825 3.42398 30.2136 3.34823Z" fill="#ffffff"/>
<path d="M24.196 10.9268H24.9763C25.4075 10.9268 25.757 10.5774 25.757 10.1465C25.757 9.71525 25.4075 9.36583 24.9763 9.36583H24.196C23.7648 9.36583 23.4153 9.71525 23.4153 10.1465C23.4153 10.5774 23.7648 10.9268 24.196 10.9268Z" fill="#ffffff"/>
<path d="M32.0003 9.36583H28.0977C27.6668 9.36583 27.3174 9.71525 27.3174 10.1465C27.3174 10.5774 27.6668 10.9268 28.0977 10.9268H32.0003C32.4311 10.9268 32.7806 10.5774 32.7806 10.1465C32.7806 9.71525 32.4311 9.36583 32.0003 9.36583Z" fill="#ffffff"/>
<path d="M32.0007 15.6099H31.22C30.7892 15.6099 30.4397 15.9593 30.4397 16.3902C30.4397 16.8215 30.7892 17.1709 31.22 17.1709H32.0007C32.4316 17.1709 32.781 16.8215 32.781 16.3902C32.781 15.9593 32.4316 15.6099 32.0007 15.6099Z" fill="#ffffff"/>
<path d="M24.196 17.1709H28.0982C28.5294 17.1709 28.8789 16.8215 28.8789 16.3902C28.8789 15.9593 28.5294 15.6099 28.0982 15.6099H24.196C23.7648 15.6099 23.4153 15.9593 23.4153 16.3902C23.4153 16.8215 23.7648 17.1709 24.196 17.1709Z" fill="#ffffff"/>
<path d="M32.0008 12.4882H24.196C23.7648 12.4882 23.4153 12.8376 23.4153 13.2685C23.4153 13.6997 23.7648 14.0491 24.196 14.0491H32.0008C32.4316 14.0491 32.7811 13.6997 32.7811 13.2685C32.7811 12.8376 32.4316 12.4882 32.0008 12.4882Z" fill="#ffffff"/>
<path d="M19.5126 18.7317H16.3907C15.0977 18.7317 14.0495 19.7799 14.0495 21.0729V24.1952C14.0495 25.4882 15.0977 26.5364 16.3907 26.5364H19.5126C20.806 26.5364 21.8543 25.4882 21.8543 24.1952V21.0729C21.8543 19.7799 20.806 18.7317 19.5126 18.7317ZM20.2933 24.1952C20.2933 24.6261 19.9439 24.9755 19.5126 24.9755H16.3907C15.9599 24.9755 15.6104 24.6261 15.6104 24.1952V21.0729C15.6104 20.6421 15.9599 20.2926 16.3907 20.2926H19.5126C19.9439 20.2926 20.2933 20.6421 20.2933 21.0729V24.1952Z" fill="#ffffff"/>
<path d="M24.196 20.2926H24.9763C25.4075 20.2926 25.757 19.9432 25.757 19.512C25.757 19.0811 25.4075 18.7317 24.9763 18.7317H24.196C23.7648 18.7317 23.4153 19.0811 23.4153 19.512C23.4153 19.9432 23.7648 20.2926 24.196 20.2926Z" fill="#ffffff"/>
<path d="M32.0003 18.7317H28.0977C27.6668 18.7317 27.3174 19.0811 27.3174 19.512C27.3174 19.9432 27.6668 20.2926 28.0977 20.2926H32.0003C32.4311 20.2926 32.7806 19.9432 32.7806 19.512C32.7806 19.0811 32.4311 18.7317 32.0003 18.7317Z" fill="#ffffff"/>
<path d="M32.0007 24.9758H31.22C30.7892 24.9758 30.4397 25.3252 30.4397 25.7564C30.4397 26.1873 30.7892 26.5367 31.22 26.5367H32.0007C32.4316 26.5367 32.781 26.1873 32.781 25.7564C32.781 25.3252 32.4316 24.9758 32.0007 24.9758Z" fill="#ffffff"/>
<path d="M28.0982 24.9758H24.196C23.7648 24.9758 23.4153 25.3252 23.4153 25.7564C23.4153 26.1873 23.7648 26.5367 24.196 26.5367H28.0982C28.5294 26.5367 28.8789 26.1873 28.8789 25.7564C28.8789 25.3252 28.5294 24.9758 28.0982 24.9758Z" fill="#ffffff"/>
<path d="M32.0008 21.8534H24.196C23.7648 21.8534 23.4153 22.2029 23.4153 22.6337C23.4153 23.065 23.7648 23.4144 24.196 23.4144H32.0008C32.4316 23.4144 32.7811 23.065 32.7811 22.6337C32.7811 22.2029 32.4316 21.8534 32.0008 21.8534Z" fill="#ffffff"/>
<path d="M3.9037 11.7071H4.684C5.11523 11.7071 5.46465 11.3577 5.46465 10.9264C5.46465 10.4955 5.11523 10.1461 4.684 10.1461H3.9037C3.47246 10.1461 3.12304 10.4955 3.12304 10.9264C3.12304 11.3577 3.47246 11.7071 3.9037 11.7071Z" fill="#ffffff"/>
<path d="M7.02489 11.7071H8.58584C9.01672 11.7071 9.36614 11.3577 9.36614 10.9264C9.36614 10.4955 9.01672 10.1461 8.58584 10.1461H7.02489C6.59365 10.1461 6.24423 10.4955 6.24423 10.9264C6.24423 11.3577 6.59365 11.7071 7.02489 11.7071Z" fill="#ffffff"/>
<path d="M3.9037 14.0491H8.58655C9.01743 14.0491 9.36685 13.6997 9.36685 13.2685C9.36685 12.8376 9.01743 12.4882 8.58655 12.4882H3.9037C3.47246 12.4882 3.12304 12.8376 3.12304 13.2685C3.12304 13.6997 3.47246 14.0491 3.9037 14.0491Z" fill="#ffffff"/>
</svg>
