<svg width="214" height="46" viewBox="0 0 214 46" fill="none" xmlns="http://www.w3.org/2000/svg">
<path d="M213.243 21.2189V17.5133H208.603V11.7525L208.447 11.8002L204.088 13.1227L204.002 13.1486V17.5135H197.123V15.0819C197.123 13.9496 197.378 13.0831 197.881 12.5053C198.381 11.9344 199.095 11.6441 200.007 11.6441C200.662 11.6441 201.341 11.7972 202.024 12.099L202.195 12.1749V8.27237L202.114 8.24302C201.477 8.01596 200.611 7.90161 199.537 7.90161C198.183 7.90161 196.954 8.1937 195.881 8.77257C194.808 9.35226 193.964 10.1798 193.372 11.232C192.783 12.2829 192.484 13.4967 192.484 14.8399V17.5133H189.253V21.2189H192.484V36.8299H197.123V21.2189H204.002V31.1395C204.002 35.2252 205.946 37.2957 209.779 37.2957C210.408 37.2957 211.071 37.2225 211.748 37.0792C212.437 36.932 212.906 36.7851 213.183 36.6281L213.244 36.5923V32.8524L213.055 32.9762C212.803 33.1425 212.49 33.2784 212.122 33.3795C211.753 33.4825 211.445 33.534 211.206 33.534C210.308 33.534 209.644 33.2941 209.232 32.8206C208.815 32.3429 208.603 31.5074 208.603 30.3386V21.2189H213.243ZM178.894 33.5346C177.21 33.5346 175.883 32.981 174.947 31.8906C174.006 30.7946 173.529 29.232 173.529 27.2467C173.529 25.1985 174.006 23.5954 174.948 22.48C175.884 21.372 177.198 20.8096 178.856 20.8096C180.464 20.8096 181.745 21.3467 182.662 22.4068C183.584 23.4725 184.051 25.0627 184.051 27.1348C184.051 29.2324 183.612 30.8437 182.744 31.9215C181.883 32.9912 180.587 33.5346 178.894 33.5346ZM179.1 17.048C175.888 17.048 173.337 17.9813 171.517 19.8221C169.7 21.6631 168.778 24.2107 168.778 27.3949C168.778 30.4193 169.678 32.852 171.452 34.6243C173.227 36.3972 175.642 37.2953 178.63 37.2953C181.744 37.2953 184.244 36.3489 186.063 34.4826C187.881 32.6184 188.802 30.0948 188.802 26.985C188.802 23.9133 187.938 21.4625 186.232 19.702C184.526 17.9408 182.126 17.048 179.1 17.048ZM161.299 17.048C159.114 17.048 157.306 17.6022 155.926 18.6949C154.537 19.7942 153.832 21.2359 153.832 22.9804C153.832 23.8872 153.984 24.6928 154.283 25.376C154.585 26.0615 155.051 26.665 155.67 27.1715C156.284 27.674 157.232 28.2003 158.489 28.7357C159.546 29.1668 160.334 29.5315 160.834 29.8189C161.323 30.1005 161.671 30.3837 161.867 30.6594C162.057 30.9293 162.154 31.2986 162.154 31.7544C162.154 33.0522 161.174 33.6836 159.157 33.6836C158.409 33.6836 157.556 33.5287 156.621 33.2234C155.693 32.9227 154.817 32.4823 154.024 31.9177L153.832 31.7807V36.2093L153.902 36.2419C154.559 36.5423 155.386 36.7957 156.362 36.995C157.335 37.1946 158.22 37.2961 158.988 37.2961C161.359 37.2961 163.268 36.7392 164.661 35.64C166.064 34.5332 166.774 33.0575 166.774 31.2526C166.774 29.9505 166.392 28.834 165.638 27.9334C164.889 27.0403 163.589 26.2203 161.776 25.4955C160.332 24.9207 159.407 24.4435 159.025 24.0772C158.657 23.7234 158.471 23.223 158.471 22.5893C158.471 22.0275 158.701 21.5775 159.175 21.213C159.652 20.8467 160.316 20.6604 161.149 20.6604C161.922 20.6604 162.712 20.7815 163.499 21.0188C164.285 21.256 164.975 21.5738 165.551 21.9625L165.74 22.0909V17.89L165.668 17.859C165.136 17.633 164.435 17.4395 163.584 17.2826C162.736 17.1267 161.968 17.048 161.299 17.048ZM141.739 33.5346C140.056 33.5346 138.728 32.981 137.793 31.8906C136.852 30.7946 136.376 29.2324 136.376 27.2467C136.376 25.1985 136.852 23.5954 137.794 22.48C138.729 21.372 140.044 20.8096 141.702 20.8096C143.31 20.8096 144.59 21.3467 145.508 22.4068C146.43 23.4725 146.897 25.0627 146.897 27.1348C146.897 29.2324 146.457 30.8437 145.59 31.9215C144.728 32.9912 143.434 33.5346 141.739 33.5346ZM141.946 17.048C138.733 17.048 136.182 17.9813 134.364 19.8221C132.546 21.6631 131.623 24.2107 131.623 27.3949C131.623 30.4206 132.524 32.852 134.298 34.6243C136.073 36.3972 138.488 37.2953 141.476 37.2953C144.59 37.2953 147.091 36.3489 148.909 34.4826C150.727 32.6184 151.648 30.0948 151.648 26.985C151.648 23.9133 150.784 21.4625 149.078 19.702C147.371 17.9408 144.971 17.048 141.946 17.048ZM124.582 20.8586V17.5133H120V36.8295H124.582V26.9485C124.582 25.2684 124.966 23.8881 125.724 22.8455C126.473 21.8153 127.47 21.2933 128.688 21.2933C129.1 21.2933 129.564 21.3608 130.066 21.4943C130.562 21.627 130.922 21.7711 131.134 21.9228L131.327 22.0612V17.4803L131.252 17.4487C130.826 17.2689 130.222 17.1782 129.458 17.1782C128.307 17.1782 127.276 17.5451 126.394 18.2675C125.619 18.9024 125.059 19.773 124.631 20.8586H124.582ZM111.794 17.048C109.692 17.048 107.817 17.495 106.222 18.3761C104.624 19.2593 103.388 20.5202 102.547 22.1235C101.71 23.723 101.285 25.5913 101.285 27.6748C101.285 29.4999 101.697 31.1747 102.512 32.6508C103.327 34.1294 104.48 35.2861 105.94 36.0884C107.398 36.8897 109.084 37.2959 110.95 37.2959C113.127 37.2959 114.987 36.8642 116.477 36.0128L116.537 35.9785V31.8158L116.345 31.9552C115.67 32.4429 114.915 32.8322 114.103 33.1127C113.293 33.393 112.555 33.5346 111.907 33.5346C110.109 33.5346 108.666 32.9768 107.618 31.8769C106.568 30.7756 106.036 29.2292 106.036 27.2832C106.036 25.3251 106.591 23.7389 107.685 22.5685C108.776 21.4016 110.222 20.8096 111.983 20.8096C113.489 20.8096 114.957 21.3153 116.345 22.3141L116.537 22.4525V18.0663L116.475 18.0317C115.953 17.7416 115.24 17.5021 114.356 17.3205C113.475 17.1393 112.613 17.048 111.794 17.048ZM98.129 17.5135H93.5469V36.8295H98.129V17.5135ZM95.8848 9.28479C95.1306 9.28479 94.4729 9.53937 93.9325 10.0438C93.3898 10.5497 93.1146 11.1867 93.1146 11.9384C93.1146 12.6783 93.3865 13.3037 93.9241 13.7961C94.4581 14.2871 95.1179 14.536 95.885 14.536C96.6519 14.536 97.3142 14.2871 97.8546 13.7969C98.3985 13.3037 98.6743 12.6785 98.6743 11.9384C98.6743 11.213 98.4059 10.5826 97.877 10.0642C97.3485 9.54691 96.678 9.28479 95.8848 9.28479ZM84.4521 16.0884V36.8295H89.1284V9.8761H82.6562L74.4297 29.8963L66.4463 9.8761H59.7106V36.8293H64.1051V16.0863H64.256L72.6862 36.8295H76.0025L84.3012 16.0884H84.4521Z" fill="#706D6E"/>
<path d="M22.3122 22.2445H0.756531V0.869385H22.3122V22.2445Z" fill="#F1511B"/>
<path d="M46.112 22.2442H24.5568V0.869141H46.112V22.2442Z" fill="#80CC28"/>
<path d="M22.3115 45.8521H0.756439V24.4783H22.3115V45.8521Z" fill="#00ADEF"/>
<path d="M46.112 45.8521H24.5568V24.4783H46.112V45.8521Z" fill="#FBBC09"/>
</svg>
