<svg width="108" height="88" viewBox="0 0 108 88" fill="none" xmlns="http://www.w3.org/2000/svg">
<path fill-rule="evenodd" clip-rule="evenodd" d="M0.643188 72.9409C0.643188 72.6943 0.762622 72.571 1.00291 72.571H2.19157C2.27522 72.5719 2.35752 72.5923 2.43186 72.6305C2.52314 72.6839 2.59565 72.7641 2.63944 72.8601L8.07085 82.6633L8.4192 83.6113L8.30972 82.652L8.22298 72.9409C8.21985 72.8442 8.25278 72.7498 8.31541 72.6759C8.35199 72.6384 8.39651 72.6096 8.4457 72.5914C8.4949 72.5733 8.54753 72.5663 8.59977 72.571H9.82113C9.91223 72.5675 10.0014 72.5978 10.0714 72.656C10.1068 72.692 10.1339 72.7352 10.1508 72.7827C10.1677 72.8302 10.1741 72.8808 10.1695 72.9309V86.4455C10.1695 86.6849 10.0429 86.8054 9.78843 86.8054H8.63247C8.54573 86.8039 8.46017 86.7851 8.38081 86.7501C8.28537 86.7052 8.21137 86.6249 8.17464 86.5262L2.77167 76.8633L2.3892 75.8855L2.51006 76.8775L2.57546 86.4398C2.57546 86.6864 2.45887 86.8096 2.22569 86.8096H1.00433C0.764043 86.8096 0.64461 86.6864 0.64461 86.4398L0.643188 72.9409Z" fill="#0E1624"/>
<path fill-rule="evenodd" clip-rule="evenodd" d="M14.4347 82.2231H18.2623L16.5206 75.9739L16.3556 74.9153L16.1907 75.9739L14.4347 82.2231ZM21.5581 86.4318C21.5811 86.4746 21.5917 86.523 21.589 86.5714C21.5862 86.6199 21.5701 86.6667 21.5425 86.7067C21.5122 86.7424 21.4739 86.7706 21.4307 86.7888C21.3874 86.807 21.3405 86.8148 21.2937 86.8116H19.8718C19.7873 86.8107 19.704 86.7903 19.6287 86.7521C19.5858 86.7285 19.5487 86.6956 19.5201 86.6559C19.4916 86.6162 19.4723 86.5706 19.4638 86.5225L18.7244 83.8981H13.9613L13.2333 86.5225C13.2242 86.5706 13.2046 86.6161 13.1758 86.6558C13.1471 86.6955 13.1099 86.7283 13.0669 86.7521C12.9922 86.7905 12.9094 86.8109 12.8252 86.8116H11.4034C11.3576 86.8148 11.3117 86.807 11.2696 86.7887C11.2275 86.7705 11.1905 86.7423 11.1617 86.7067C11.1347 86.6666 11.1185 86.6203 11.1145 86.5722C11.1105 86.5241 11.1189 86.4758 11.1389 86.4318L15.3405 72.8861C15.3647 72.7906 15.4215 72.7064 15.5011 72.648C15.5707 72.601 15.6531 72.5763 15.7371 72.5772H16.9613C17.0476 72.5768 17.132 72.6014 17.2045 72.648C17.2857 72.7057 17.3441 72.79 17.3694 72.8861L21.5581 86.4318Z" fill="#0E1624"/>
<path fill-rule="evenodd" clip-rule="evenodd" d="M27.2568 72.95C27.2509 72.8963 27.2573 72.8421 27.2755 72.7912C27.2937 72.7404 27.3233 72.6944 27.362 72.6567C27.4231 72.6033 27.5012 72.5732 27.5824 72.5716H28.8393C28.8921 72.5661 28.9455 72.5733 28.995 72.5925C29.0444 72.6117 29.0886 72.6425 29.1237 72.6822C29.1811 72.7746 29.2084 72.8825 29.2019 72.9911L29.1919 84.0739C29.2006 84.5947 29.1039 85.1118 28.9076 85.5944C28.7322 86.0273 28.4691 86.4193 28.1346 86.7461C27.8002 87.0728 27.4016 87.3272 26.9639 87.4933C26.5047 87.6681 26.0166 87.7551 25.525 87.7498C24.9882 87.7507 24.4566 87.6452 23.961 87.4395C23.4938 87.2558 23.0733 86.9713 22.7297 86.6062C22.6553 86.5282 22.5982 86.4355 22.5619 86.3342C22.5418 86.2795 22.539 86.2199 22.554 86.1637C22.569 86.1074 22.6011 86.057 22.6458 86.0196L23.3269 85.2218C23.3603 85.1798 23.4041 85.1472 23.4539 85.127C23.5037 85.1069 23.5579 85.1 23.6112 85.107C23.7114 85.1313 23.8014 85.1863 23.8686 85.2643C24.0588 85.435 24.2723 85.5781 24.5027 85.6894C24.7911 85.8299 25.1089 85.8999 25.4298 85.8934C25.6824 85.896 25.9326 85.8443 26.1634 85.7418C26.3839 85.6425 26.5807 85.4976 26.7407 85.3167C26.908 85.123 27.0359 84.8987 27.1175 84.6563C27.2128 84.383 27.2608 84.0955 27.2597 83.8061L27.2568 72.95Z" fill="#0E1624"/>
<path fill-rule="evenodd" clip-rule="evenodd" d="M34.1145 82.9694C34.1115 83.3681 34.1705 83.7649 34.2894 84.1456C34.3966 84.4928 34.5731 84.8148 34.8084 85.0922C35.0432 85.3629 35.3343 85.5795 35.6615 85.727C36.0304 85.8885 36.4302 85.9678 36.8331 85.9594C37.2373 85.9675 37.6384 85.8882 38.0089 85.727C38.3356 85.5787 38.6265 85.3622 38.862 85.0922C39.0999 84.8172 39.2784 84.4965 39.3867 84.1498C39.5059 83.7712 39.5649 83.3762 39.5616 82.9793V77.5562C39.564 77.1622 39.5031 76.7704 39.381 76.3957C39.2687 76.0486 39.0906 75.7263 38.8563 75.4462C38.6222 75.1726 38.3311 74.953 38.0032 74.8029C37.6338 74.6377 37.2322 74.5564 36.8274 74.5648C36.4265 74.5576 36.0287 74.6368 35.6615 74.7972C35.3334 74.9451 35.0421 75.1633 34.8084 75.4363C34.5737 75.7168 34.3973 76.041 34.2894 76.39C34.171 76.7674 34.112 77.1608 34.1145 77.5562V82.9694ZM32.1538 77.6979C32.15 77.0541 32.2503 76.4139 32.451 75.8019C32.6384 75.2261 32.939 74.6933 33.3354 74.2346C33.739 73.7775 34.2385 73.4142 34.7984 73.1704C36.0974 72.6509 37.5474 72.6509 38.8464 73.1704C39.405 73.416 39.9047 73.7773 40.3123 74.2304C40.7158 74.6836 41.0226 75.214 41.2137 75.7892C41.4194 76.4012 41.5232 77.0426 41.5209 77.688V82.849C41.5246 83.4931 41.4227 84.1335 41.2194 84.745C41.0281 85.3189 40.7236 85.8489 40.3237 86.3038C39.9155 86.7589 39.4129 87.1201 38.8506 87.3623C38.2112 87.6321 37.5216 87.7639 36.8274 87.7492C36.136 87.7635 35.4495 87.6302 34.8141 87.3581C34.2547 87.1155 33.7539 86.7565 33.3453 86.3052C32.9452 85.8507 32.6411 85.3206 32.451 84.7464C32.2465 84.1352 32.1442 83.4947 32.1481 82.8504L32.1538 77.6979Z" fill="#0E1624"/>
<path fill-rule="evenodd" clip-rule="evenodd" d="M42.5357 72.9116C42.5321 72.8655 42.5378 72.8192 42.5525 72.7754C42.5671 72.7316 42.5904 72.6912 42.621 72.6565C42.6487 72.6283 42.6819 72.6062 42.7187 72.5916C42.7554 72.5769 42.7948 72.5701 42.8343 72.5715H50.8165C50.8546 72.5712 50.8923 72.5787 50.9275 72.5933C50.9627 72.6079 50.9945 72.6294 51.0212 72.6565C51.0819 72.7271 51.1121 72.8188 51.1051 72.9116V74.0197C51.1093 74.0639 51.1039 74.1085 51.0895 74.1506C51.075 74.1926 51.0517 74.2311 51.0212 74.2634C50.9648 74.3131 50.8917 74.3399 50.8165 74.3385H47.741V86.4658C47.7479 86.5578 47.7194 86.6489 47.6614 86.7208C47.6347 86.7491 47.6023 86.7714 47.5662 86.786C47.5301 86.8007 47.4913 86.8075 47.4524 86.8059H46.1983C46.1579 86.8081 46.1174 86.8016 46.0796 86.7869C46.0419 86.7723 46.0077 86.7497 45.9794 86.7208C45.9214 86.6489 45.8929 86.5578 45.8998 86.4658V74.3385H42.8343C42.7926 74.341 42.7509 74.3342 42.7121 74.3187C42.6733 74.3032 42.6384 74.2794 42.6099 74.249C42.5814 74.2185 42.56 74.1822 42.5471 74.1426C42.5343 74.103 42.5304 74.061 42.5357 74.0197V72.9116Z" fill="#0E1624"/>
<path fill-rule="evenodd" clip-rule="evenodd" d="M56.8183 72.9116C56.8113 72.8189 56.8414 72.7271 56.9022 72.6565C56.93 72.6282 56.9635 72.606 57.0005 72.5913C57.0374 72.5767 57.0771 72.5699 57.1169 72.5715H65.099C65.137 72.5709 65.1746 72.5781 65.2096 72.5928C65.2446 72.6074 65.2762 72.6291 65.3024 72.6565C65.3329 72.6912 65.3562 72.7317 65.3709 72.7755C65.3856 72.8193 65.3912 72.8656 65.3877 72.9116V74.0198C65.392 74.0641 65.3866 74.1089 65.3719 74.151C65.3572 74.1931 65.3334 74.2315 65.3024 74.2635C65.2466 74.3134 65.1739 74.3403 65.099 74.3386H62.0236V86.4658C62.0304 86.5578 62.002 86.649 61.944 86.7209C61.9171 86.7489 61.8846 86.771 61.8486 86.7857C61.8126 86.8003 61.7739 86.8072 61.735 86.8059H60.4809C60.4404 86.8081 60.4 86.8017 60.3622 86.787C60.3244 86.7723 60.2903 86.7498 60.2619 86.7209C60.2033 86.6493 60.1748 86.5579 60.1823 86.4658V74.3386H57.1169C57.0751 74.341 57.0334 74.3342 56.9946 74.3188C56.9558 74.3033 56.921 74.2795 56.8925 74.249C56.8639 74.2186 56.8425 74.1823 56.8297 74.1426C56.8169 74.103 56.813 74.0611 56.8183 74.0198V72.9116Z" fill="#0E1624"/>
<path fill-rule="evenodd" clip-rule="evenodd" d="M67.7536 82.2231H71.5811L69.8394 75.9739L69.6745 74.9153L69.5081 75.9739L67.7536 82.2231ZM74.8769 86.4318C74.9002 86.4746 74.911 86.5229 74.9083 86.5715C74.9055 86.62 74.8892 86.6668 74.8613 86.7067C74.831 86.7424 74.7927 86.7706 74.7495 86.7888C74.7062 86.807 74.6593 86.8148 74.6125 86.8116H73.1907C73.1061 86.8107 73.0229 86.7903 72.9475 86.7521C72.9048 86.7282 72.8678 86.6953 72.8393 86.6556C72.8108 86.616 72.7914 86.5705 72.7826 86.5225L72.0432 83.8981H67.2801L66.5521 86.5225C66.543 86.5706 66.5234 86.6161 66.4946 86.6558C66.4659 86.6955 66.4287 86.7283 66.3858 86.7521C66.3109 86.7903 66.2282 86.8107 66.144 86.8116H64.7222C64.6764 86.8148 64.6305 86.807 64.5884 86.7887C64.5463 86.7705 64.5093 86.7423 64.4805 86.7067C64.4535 86.6666 64.4373 86.6203 64.4333 86.5722C64.4293 86.5241 64.4377 86.4758 64.4578 86.4318L68.6593 72.8861C68.6835 72.7906 68.7403 72.7064 68.8199 72.648C68.8895 72.601 68.9719 72.5763 69.056 72.5772H70.2802C70.3664 72.5768 70.4508 72.6014 70.5233 72.648C70.6045 72.7057 70.6629 72.79 70.6882 72.8861L74.8769 86.4318Z" fill="#0E1624"/>
<path fill-rule="evenodd" clip-rule="evenodd" d="M76.812 73.0508C76.8059 72.9287 76.8372 72.8076 76.9016 72.7036C76.9305 72.6604 76.9703 72.6255 77.0169 72.6024C77.0636 72.5793 77.1155 72.5687 77.1675 72.5718H78.3618C78.5993 72.5718 78.7173 72.7319 78.7173 73.0508V74.9964C78.723 75.2085 78.6877 75.4197 78.6135 75.6185C78.5536 75.7781 78.46 75.9231 78.3391 76.0436C78.2255 76.152 78.0903 76.2355 77.9424 76.2888C77.7954 76.3409 77.6406 76.3678 77.4846 76.3681C77.446 76.3732 77.4068 76.3695 77.3699 76.357C77.3331 76.3446 77.2996 76.3239 77.2721 76.2965C77.2446 76.269 77.2238 76.2357 77.2113 76.199C77.1988 76.1622 77.195 76.1231 77.2002 76.0847V75.6171C77.1956 75.5804 77.2006 75.5432 77.2145 75.509C77.2284 75.4748 77.2509 75.4447 77.2798 75.4215C77.3377 75.3828 77.4063 75.3629 77.476 75.3648C77.5108 75.3683 77.5459 75.3627 77.5778 75.3486C77.6097 75.3344 77.6374 75.3122 77.658 75.2841C77.6959 75.2147 77.7136 75.1362 77.7092 75.0573C77.7152 74.9844 77.7004 74.9112 77.6665 74.8462C77.6485 74.8234 77.625 74.8056 77.5981 74.7944C77.5712 74.7832 77.5419 74.7791 77.513 74.7824H77.1376C77.0949 74.7833 77.0525 74.7746 77.0136 74.757C76.9747 74.7393 76.9403 74.7131 76.913 74.6804C76.8421 74.5855 76.8087 74.468 76.8191 74.3502L76.812 73.0508Z" fill="#0E1624"/>
<path fill-rule="evenodd" clip-rule="evenodd" d="M81.5739 72.9416C81.5739 72.6951 81.6805 72.5718 81.8952 72.5718H83.0568C83.2715 72.5718 83.3782 72.6951 83.3782 72.9416V85.049H87.9351C87.9773 85.0459 88.0197 85.0522 88.0591 85.0675C88.0985 85.0827 88.1341 85.1066 88.1631 85.1373C88.1921 85.1679 88.2139 85.2047 88.2268 85.2448C88.2398 85.285 88.2436 85.3275 88.238 85.3693V86.4661C88.2454 86.5586 88.2157 86.6503 88.1555 86.7211C88.1267 86.7498 88.0923 86.7722 88.0543 86.7868C88.0164 86.8014 87.9758 86.808 87.9351 86.8062H81.8952C81.6805 86.8062 81.5739 86.6829 81.5739 86.4363V72.9416Z" fill="#0E1624"/>
<path fill-rule="evenodd" clip-rule="evenodd" d="M90.1419 72.9416C90.1419 72.6951 90.2585 72.5718 90.4931 72.5718H91.7173C91.9363 72.5718 92.0472 72.6951 92.0472 72.9416V86.4363C92.0472 86.6829 91.9363 86.8062 91.7173 86.8062H90.4931C90.2585 86.8062 90.1419 86.6829 90.1419 86.4363V72.9416Z" fill="#0E1624"/>
<path fill-rule="evenodd" clip-rule="evenodd" d="M97.8598 77.2749L97.4816 75.9315L97.6124 77.2636L97.6963 87.115C97.7105 87.363 97.6053 87.4862 97.3806 87.4862H96.1536C96.1094 87.4914 96.0647 87.4845 96.0241 87.4662C95.9835 87.448 95.9487 87.4192 95.9233 87.3828C95.8767 87.2958 95.8551 87.1978 95.8607 87.0994V73.0931C95.8618 73.003 95.8928 72.9159 95.9489 72.8452C95.9772 72.8138 96.0122 72.7891 96.0513 72.7729C96.0904 72.7567 96.1326 72.7495 96.1749 72.7516H97.6536C97.6904 72.7482 97.7274 72.7539 97.7614 72.7683C97.7954 72.7826 97.8253 72.8051 97.8484 72.8338C97.8946 72.9048 97.9314 72.9815 97.9579 73.062L101.404 82.066L101.572 82.9162L101.74 82.049L105.206 73.0563C105.233 72.9761 105.27 72.8995 105.316 72.8281C105.339 72.7997 105.369 72.7773 105.403 72.7629C105.437 72.7486 105.474 72.7428 105.511 72.746H106.971C107.013 72.744 107.055 72.7514 107.094 72.7675C107.133 72.7837 107.167 72.8083 107.196 72.8395C107.251 72.9108 107.281 72.9976 107.284 73.0875V87.0994C107.298 87.353 107.204 87.4806 106.999 87.4806H105.768C105.56 87.4806 105.455 87.3573 105.455 87.1093L105.549 77.2692L105.664 75.9669L105.307 77.2692L102.371 84.8788C102.351 84.9691 102.307 85.0526 102.245 85.1212C102.19 85.1684 102.118 85.1927 102.046 85.1892H101.102C101.032 85.192 100.965 85.1675 100.914 85.1212C100.851 85.0526 100.808 84.9691 100.787 84.8788L97.8598 77.2749Z" fill="#0E1624"/>
<path fill-rule="evenodd" clip-rule="evenodd" d="M75.1062 28.9882L75.0337 17.6234C77.6797 16.1397 80.4466 14.7297 83.3599 13.3793V25.2429C80.3897 26.4177 77.6314 27.6902 75.1133 28.9882H75.1062ZM73.0403 41.0035C71.808 38.9251 70.4411 36.842 68.9397 34.7542C70.2009 33.9607 71.5644 33.1445 73.026 32.3254L73.0403 41.0035ZM53.8654 63.3846C51.0843 61.0308 39.7167 51.2729 34.7986 44.9302C36.6271 41.7002 38.5703 38.595 40.6281 35.6144C42.5547 36.979 44.2936 38.3224 45.7979 39.5694C44.4159 41.2387 43.049 42.9779 41.6973 44.787L41.1713 45.4956L53.9393 57.3295L66.5382 45.3879L65.9922 44.6864C64.6652 42.9746 63.2907 41.3063 61.8689 39.6814C63.2907 38.5874 64.9059 37.4141 66.696 36.2152C66.8951 36.0801 67.0979 35.945 67.3046 35.81C69.3716 38.6815 71.2555 41.6798 72.945 44.787C68.0482 51.341 56.655 61.0478 53.8683 63.386L53.8654 63.3846ZM39.0328 34.5077C37.4916 36.7353 36.0181 39.0229 34.6124 41.3705V31.7246C36.2048 32.6584 37.6835 33.5979 39.0328 34.5077ZM26.6629 25.4994C25.7264 25.0998 24.7865 24.7219 23.8434 24.3658L23.7908 13.5096C26.8107 14.887 29.7653 16.4104 32.6545 18.0797V28.3746C30.6715 27.3203 28.6743 26.3619 26.6629 25.4994ZM34.6081 4.24347C40.7619 8.66442 46.6177 13.4834 52.1379 18.6692C51.1198 19.698 50.1246 20.7423 49.152 21.8023C48.2041 22.8415 47.2719 23.8972 46.3553 24.9694C42.6187 22.0455 38.6957 19.3664 34.6109 16.9489L34.6081 4.24347ZM62.132 26.2207C65.5826 23.5001 69.2158 21.0178 73.0061 18.791L73.0232 30.0921C71.1208 31.1294 69.3691 32.1681 67.7823 33.17C66.0515 30.8535 64.168 28.539 62.132 26.2264V26.2207ZM54.9986 32.4756C56.8204 30.7099 58.6954 29.0312 60.6234 27.4394C62.6083 29.6944 64.4486 31.9574 66.1444 34.2285L65.6069 34.5856C63.7258 35.8482 62.0409 37.0726 60.5622 38.2119C58.7707 36.228 56.9162 34.3159 54.9986 32.4756ZM47.2923 40.8363C50.8753 43.934 52.8801 46.1857 52.9099 46.2211L53.6208 47.026L54.3545 46.2424C54.3844 46.2098 56.4873 43.9878 60.3262 40.8958C61.5518 42.2958 62.7443 43.729 63.9035 45.1952L53.9237 54.647L43.7917 45.2561C44.9462 43.7285 46.1131 42.2538 47.2923 40.832V40.8363ZM59.021 39.4277C56.4062 41.5321 54.5977 43.2339 53.6635 44.155C52.7635 43.2099 51.0303 41.4711 48.5577 39.337C50.2051 37.4183 51.8886 35.5913 53.6081 33.8558C55.4716 35.6432 57.2759 37.5005 59.021 39.4277ZM59.3153 25.9812C57.3418 27.6137 55.4275 29.3311 53.5725 31.1336C51.7241 29.4162 49.8231 27.7667 47.8695 26.1853C49.6828 24.0549 51.5715 21.9978 53.5355 20.014C55.5697 21.9893 57.4963 23.9775 59.3153 25.9784V25.9812ZM46.6112 27.6817C48.5174 29.2234 50.3748 30.8323 52.1834 32.5082C50.4374 34.2739 48.7312 36.1288 47.0648 38.073C45.5192 36.7976 43.7419 35.4203 41.7556 34.0145C43.3092 31.8417 44.9287 29.7308 46.6141 27.6817H46.6112ZM40.1532 32.9092C38.3286 31.6745 36.4802 30.5243 34.6081 29.4587V19.2346C38.244 21.4398 41.7459 23.8573 45.0955 26.4743C43.3893 28.5527 41.7419 30.6972 40.1532 32.9078V32.9092ZM72.982 4.14286L73.0019 16.5252C68.7429 18.9642 64.6723 21.7162 60.8239 24.7583C59.9992 23.8485 59.1513 22.9407 58.2802 22.0347C57.1901 20.901 56.0659 19.7721 54.9076 18.6479C60.452 13.2467 66.5047 8.38938 72.982 4.14286ZM9.88523 22.7319C13.9815 23.3356 18.0068 24.3463 21.9012 25.7488L21.9566 37.8689L9.88523 22.7319ZM85.3178 26.5863C89.3274 25.0664 93.4493 23.8592 97.6465 22.9756L85.3135 38.0688L85.3178 26.5863ZM102.522 20.0947L99.9385 20.5425C94.9535 21.4171 90.0584 22.7409 85.3135 24.4975V10.3425L83.9372 10.9632C80.8092 12.3717 77.8461 13.8427 75.0194 15.3915L74.9242 0.560525L73.427 1.51988C66.2647 6.09039 59.5913 11.3805 53.5114 17.3074C47.7714 11.8658 41.2992 6.58162 34.1986 1.54538L32.6545 0.458496V15.8251C29.5835 14.0933 26.4273 12.516 23.1979 11.0992L21.8286 10.497L21.8926 23.6586C17.3086 22.0626 12.5545 21.0007 7.72547 20.4943L5.4093 20.2577L23.9372 43.4791L23.8548 26.4743C26.8745 27.6613 29.8139 29.042 32.6545 30.6079V45.3312L32.8464 45.5905C38.2949 52.9437 52.6298 64.9079 53.2384 65.4124L53.8583 65.9296L54.4811 65.4166C55.0896 64.9164 69.4331 53.0769 74.8872 45.4361L75.2086 44.8862L75.1204 31.1847C77.6271 29.864 80.3812 28.5574 83.367 27.3501V43.5514L102.522 20.0947Z" fill="#BC8F5B"/>
</svg>
