<svg width="148" height="54" viewBox="0 0 148 54" fill="none" xmlns="http://www.w3.org/2000/svg">
<path fill-rule="evenodd" clip-rule="evenodd" d="M147.19 1.45445H142.37C142.244 1.45445 142.123 1.50416 142.034 1.59263C141.944 1.68111 141.894 1.80112 141.894 1.92625V42.3941C141.894 42.5192 141.944 42.6392 142.034 42.7277C142.123 42.8162 142.244 42.8659 142.37 42.8659H147.19C147.316 42.8659 147.438 42.8162 147.527 42.7277C147.616 42.6392 147.666 42.5192 147.666 42.3941V1.92625C147.666 1.80112 147.616 1.68111 147.527 1.59263C147.438 1.50416 147.316 1.45445 147.19 1.45445ZM123.085 0.982666C110.069 0.982666 110.069 4.62253 110.069 22.1566V42.3917C110.069 42.5169 110.119 42.6369 110.208 42.7253C110.298 42.8138 110.419 42.8635 110.545 42.8635H115.85C115.977 42.8635 116.098 42.8138 116.187 42.7253C116.276 42.6369 116.327 42.5169 116.327 42.3917V27.3345H129.826V42.3917C129.826 42.5169 129.876 42.6369 129.965 42.7253C130.055 42.8138 130.176 42.8635 130.302 42.8635H135.605C135.732 42.8635 135.853 42.8138 135.942 42.7253C136.031 42.6369 136.082 42.5169 136.082 42.3917V22.1566C136.082 4.7334 136.082 0.982666 123.063 0.982666H123.085ZM116.315 22.1566C116.315 6.1582 116.315 6.15821 123.063 6.15821C129.812 6.15821 129.814 6.1582 129.814 22.1566H116.315ZM67.6229 12.275C57.0145 12.275 57.0145 14.9453 57.0145 27.804C57.0145 40.6626 57.0145 43.333 67.6229 43.333C75.8811 43.333 77.7075 41.6652 78.1123 34.8926C78.1162 34.8283 78.1068 34.7639 78.0846 34.7034C78.0625 34.6428 78.028 34.5874 77.9834 34.5406C77.9388 34.4937 77.8849 34.4564 77.8252 34.4309C77.7655 34.4055 77.7011 34.3924 77.6361 34.3925H72.8045C72.6842 34.3922 72.5682 34.437 72.4798 34.518C72.3914 34.5989 72.3373 34.71 72.3283 34.8289C72.033 38.6268 71.0329 38.6268 67.6325 38.6268C63.1081 38.6268 62.8295 38.6268 62.8104 29.6864H77.7766C77.9029 29.6864 78.024 29.6367 78.1134 29.5482C78.2027 29.4597 78.2528 29.3397 78.2528 29.2146V27.7992C78.2528 15.0208 78.2528 12.2703 67.6468 12.2703L67.6229 12.275ZM62.8295 24.9756C62.87 16.9787 63.2867 16.9764 67.6468 16.9764C72.0068 16.9764 72.4092 16.9764 72.4616 24.9756H62.8295ZM13.1637 0.982666C0.147805 0.982666 0.147797 4.62253 0.147797 22.1566C0.147797 39.6907 0.147805 43.333 13.1637 43.333C26.1796 43.333 26.182 39.5822 26.182 22.1566C26.182 4.73104 26.182 0.982666 13.1637 0.982666ZM13.1637 38.1574C6.41526 38.1574 6.41526 38.1574 6.41526 22.1566C6.41526 6.15585 6.41526 6.15821 13.1637 6.15821C19.9122 6.15821 19.9122 6.1582 19.9122 22.1566C19.9122 38.155 19.9122 38.1574 13.1637 38.1574ZM93.6762 12.275C90.4234 12.275 88.7375 12.9331 87.8659 15.035L87.1087 13.1903C87.0549 13.0579 86.9621 12.9447 86.8422 12.8656C86.7224 12.7864 86.5812 12.745 86.4372 12.7468H83.5535C83.4272 12.7468 83.3061 12.7965 83.2167 12.8849C83.1274 12.9734 83.0772 13.0934 83.0772 13.2185V42.3941C83.0772 42.5192 83.1274 42.6392 83.2167 42.7277C83.3061 42.8162 83.4272 42.8659 83.5535 42.8659H88.3732C88.4995 42.8659 88.6206 42.8162 88.7099 42.7277C88.7992 42.6392 88.8494 42.5192 88.8494 42.3941V27.804C88.8494 16.9811 88.8494 16.9811 93.6691 16.9811C98.4887 16.9811 98.4911 16.9811 98.4911 27.804V42.3917C98.4911 42.5169 98.5413 42.6369 98.6306 42.7253C98.7199 42.8138 98.841 42.8635 98.9673 42.8635H103.789C103.916 42.8635 104.037 42.8138 104.126 42.7253C104.215 42.6369 104.266 42.5169 104.266 42.3917V27.804C104.266 14.9453 104.266 12.275 93.6572 12.275H93.6762ZM41.5911 12.275C38.3383 12.275 36.6524 12.9331 35.7808 15.035L35.0236 13.1903C34.9699 13.0579 34.8769 12.9447 34.7571 12.8656C34.6373 12.7864 34.4961 12.745 34.3521 12.7468H31.4851C31.3588 12.7468 31.2376 12.7965 31.1483 12.8849C31.059 12.9734 31.0088 13.0934 31.0088 13.2185V53.217C31.0088 53.3421 31.059 53.4621 31.1483 53.5506C31.2376 53.6391 31.3588 53.6888 31.4851 53.6888H36.3071C36.4334 53.6888 36.5546 53.6391 36.6439 53.5506C36.7332 53.4621 36.7834 53.3421 36.7834 53.217V42.0662C38.1667 43.0866 39.8932 43.541 41.6054 43.3353C52.2115 43.3353 52.2115 40.6673 52.2115 27.8063C52.2115 14.9453 52.2115 12.2773 41.6054 12.2773L41.5911 12.275ZM41.6054 38.6292C36.7834 38.6292 36.7834 38.6292 36.7834 27.8063C36.7834 16.9834 36.7834 16.9834 41.6054 16.9834C46.4274 16.9834 46.4274 16.9834 46.4274 27.8063C46.4274 38.6292 46.4274 38.6292 41.6054 38.6292Z" fill="#A2A6B8"/>
</svg>
