<svg width="222" height="29" viewBox="0 0 222 29" fill="none" xmlns="http://www.w3.org/2000/svg">
<g clip-path="url(#clip0)">
<path d="M52.1714 10.7603H33.5274L32.8614 11.2964V27.9794H37.9886V21.6813L38.4546 21.2124H52.1712C55.6336 21.2124 57.2317 20.2745 57.2317 17.8625V14.0435C57.2319 11.6983 55.6338 10.7603 52.1714 10.7603ZM52.1714 16.9243C52.1714 18.0632 51.4389 18.2642 49.7743 18.2642H38.5213L37.9886 17.7953V14.2443L38.4546 13.7753H49.7741C51.3723 13.7753 52.1711 13.9763 52.1711 15.1153L52.1714 16.9243ZM66.687 13.9093L71.1482 20.4752L70.8819 21.0783H61.0272L58.497 24.2273H73.1457L74.2111 24.8303L76.475 27.9793H82.4012L69.4171 10.5593L66.687 13.9093ZM125.482 24.6292V19.9394L126.015 19.4703H135.936V16.5223H120.222V27.9793H143.394V25.0313H126.081L125.482 24.6292ZM120.222 10.7603H143.593V13.9763H120.222V10.7603ZM94.1869 13.8423H113.03C112.764 11.4303 111.233 10.7603 107.504 10.7603H93.9871C89.7257 10.7603 88.394 11.5644 88.394 14.8473V23.9592C88.394 27.1753 89.7257 28.0464 93.9871 28.0464H107.504C111.299 28.0464 112.764 27.3093 112.897 24.8303H94.1869L93.6541 24.2942V14.2443L94.1869 13.8423ZM20.2103 17.4603H6.56031L6.16077 16.9914V14.0434L6.56031 13.7084H25.0045L25.2708 13.1054C24.6715 11.4973 23.0069 10.6935 20.0105 10.6935H7.15952C2.8981 10.6935 1.56637 11.4974 1.56637 14.7803V16.7234C1.56637 19.9395 2.8981 20.8105 7.15952 20.8105H20.8096L21.2091 21.2123V24.2943L20.8762 24.7634H1.16684C1.16684 24.7634 0.700829 25.0313 0.700829 25.0983C1.03372 27.3764 2.56521 27.9793 6.22733 27.9793H20.2104C24.4718 27.9793 25.8702 27.1753 25.8702 23.8924V21.5473C25.8701 18.3314 24.4718 17.4603 20.2103 17.4603ZM158.309 10.6934H150.585L150.185 11.4973L158.708 17.7954C160.306 16.8573 162.104 15.9194 163.968 14.9813L158.309 10.6934ZM165.233 22.4854L172.758 27.9793H180.482L180.815 27.2422L169.628 19.0013C168.163 20.1402 166.632 21.2793 165.233 22.4854Z" fill="#005288"/>
<path d="M157.177 27.9793H150.185L149.586 27.0412C154.314 22.4183 175.488 2.72031 221.498 0.643311C221.498 0.643311 182.945 1.98323 157.177 27.9793Z" fill="#A7A9AC"/>
</g>
<defs>
<clipPath id="clip0">
<rect width="221.051" height="27.403" fill="white" transform="translate(0.573963 0.643311)"/>
</clipPath>
</defs>
</svg>
