<svg width="214" height="39" viewBox="0 0 214 39" fill="none" xmlns="http://www.w3.org/2000/svg">
<path d="M70.5171 22.1267C70.5171 25.1937 67.8775 27.796 64.3895 27.796C60.9015 27.796 58.2619 25.2866 58.2619 22.1267V11.0669H56.3765V22.2196C56.3765 26.216 59.4874 29.6548 64.3895 29.6548C69.2916 29.6548 72.4025 26.1231 72.4025 22.2196V11.0669H70.5171V22.1267ZM90.5969 11.0669H84.6578V29.6548H90.5969C96.0646 29.6548 99.7412 26.1231 99.7412 20.3608C99.7412 14.6915 96.0646 11.0669 90.5969 11.0669ZM90.4083 27.796H86.5432V12.9257H90.4083C94.8391 12.9257 97.8557 15.9927 97.8557 20.3608C97.8557 25.0078 94.9333 27.796 90.4083 27.796ZM143.106 27.796C138.769 27.796 135.658 24.2643 135.658 19.9891C135.658 15.7139 138.769 12.461 143.106 12.461C146.5 12.461 148.668 14.4127 148.668 14.4127L149.611 13.1116C149.611 13.1116 147.442 10.7881 143.012 10.7881C137.827 10.7881 133.773 14.7845 133.773 19.9891C133.773 25.1937 137.638 29.6548 143.106 29.6548C147.631 29.6548 150.082 26.5878 150.082 26.5878L149.045 25.3795C148.951 25.3795 146.782 27.796 143.106 27.796ZM161.96 29.6548H163.845V11.0669H161.96V29.6548ZM174.215 12.9257H180.814V29.6548H182.7V12.9257H189.299V11.0669H174.215V12.9257ZM211.17 11.0669L205.325 19.4314L199.386 11.0669H197.312L204.382 21.3832V29.6548H206.267V21.3832L213.244 11.0669H211.17ZM115.673 11.0669L108.226 29.6548H110.205L112.185 24.3572L120.481 22.6843L123.12 29.6548H125.1L117.653 11.0669H115.673ZM113.033 22.3126L116.71 13.5763H116.804L119.915 21.0114L113.033 22.3126Z" fill="#02B3E4"/>
<path d="M13.2946 0.843506L0.756531 8V24.3577C0.756531 31.886 6.88414 38.0201 14.5201 38.0201C17.0654 38.0201 19.4222 37.3695 21.4961 36.2542L31.6774 30.4919C35.731 28.3542 38.4649 24.2648 38.4649 19.4318V2.33057L36.0138 0.936447L25.267 6.60588V24.4507C25.267 25.1942 25.1727 25.9377 25.0784 26.6813C24.8899 27.4248 24.7013 28.0754 24.4185 28.726L24.1357 29.2836C23.7586 29.2836 21.4019 28.4471 20.1763 27.6107C19.6107 27.2389 19.1394 26.8671 18.668 26.4024C18.1966 25.9377 17.8196 25.473 17.4425 24.9154C17.0654 24.3577 15.7456 21.9412 15.7456 19.5248V2.23763L13.2946 0.843506ZM19.4222 34.4883C18.7623 34.7672 17.8196 35.1389 17.0654 35.3248C16.3112 35.5107 15.6513 35.5107 14.8972 35.5107C14.143 35.5107 13.3888 35.4178 12.6347 35.2319C11.8805 35.046 11.2206 34.8601 10.5607 34.5813C9.90081 34.3025 9.24091 33.9307 8.67528 33.5589C7.07268 32.4436 6.31851 31.5142 5.65862 30.4919C5.28153 29.9342 4.90445 29.2836 4.62164 28.633C4.33882 27.9824 4.15028 27.2389 3.96174 26.4954C3.58466 25.8448 3.58466 25.1012 3.58466 24.3577V9.39413L13.0117 3.72469V19.4318C13.0117 25.3801 17.4425 30.3989 23.0987 31.6072C22.9102 31.886 22.7216 32.1648 22.4388 32.3507C21.4019 33.373 20.5534 34.0236 19.4222 34.4883ZM35.4482 21.4765C35.3539 22.1271 35.0711 22.7777 34.8826 23.3354C34.5998 23.893 34.317 24.4507 33.9399 25.0083C33.5628 25.566 32.4315 26.9601 30.9232 27.7966C29.4149 28.633 28.0008 28.9118 27.1524 29.0977C27.718 27.6107 28.0951 26.1236 28.0951 24.4507V8L35.6368 3.72469V19.4318C35.6368 20.1753 35.6368 20.8259 35.4482 21.4765Z" fill="#02B3E4"/>
</svg>
