<svg width="182" height="51" viewBox="0 0 182 51" fill="none" xmlns="http://www.w3.org/2000/svg">
<path d="M141.56 26.9932V38.4757H136.41V21.6784H140.015L141.095 23.0071C144.8 20.2021 149.119 20.9402 151.129 23.532L152.076 22.8102C154.136 21.2519 156.428 20.8582 158.887 21.5144C160.432 21.9244 161.611 22.8595 162.143 24.3522C162.541 25.5004 162.89 26.7143 162.923 27.9118C163.023 31.2909 162.973 34.6701 162.973 38.0492C162.957 38.2133 162.94 38.3609 162.907 38.5086H157.757V35.5723V30.1099C157.757 29.7818 157.757 29.4373 157.724 29.1093C157.508 26.5503 156.046 25.5825 153.554 26.3698C153.106 26.5339 152.69 26.7307 152.275 26.944V38.4757H147.026V37.2783V29.9294V29.6014C146.959 26.4026 144.966 25.2544 142.058 26.7143C141.909 26.7635 141.793 26.8455 141.56 26.9932Z" fill="#EA5252"/>
<path d="M90.7433 15.9852H96.1589C96.1921 16.2477 96.2254 16.4609 96.2254 16.6742C96.2088 21.087 96.2088 25.5163 96.1589 29.9292C96.1423 30.7494 96.0426 31.5533 95.8599 32.3571C95.0791 35.8677 92.9195 38.0003 89.2981 38.6729C86.856 39.1487 84.331 39.1158 81.9222 38.5581C78.5831 37.7707 76.5232 35.2935 76.0913 31.6025C75.9418 30.1589 75.8587 28.7152 75.8587 27.2716C75.8255 23.8923 75.8421 20.5129 75.8421 17.1335V15.9852H81.2909V17.2483C81.2909 20.8902 81.2577 24.532 81.3075 28.1739C81.3242 29.2074 81.4737 30.2409 81.7395 31.2416C82.0551 32.4719 82.9355 33.3742 84.2313 33.5546C85.444 33.7351 86.6899 33.7351 87.9026 33.5546C89.3977 33.325 90.1785 32.193 90.4775 30.7822C90.6436 29.9456 90.7267 29.0926 90.7267 28.2395C90.7599 24.2039 90.7433 20.152 90.7433 15.9852ZM115.562 38.5089H112.356L111.409 37.3441C109.615 38.6237 107.605 39.0338 105.429 38.8862C101.957 38.6401 99.5312 36.7372 98.6009 33.4234C98.0029 31.34 98.0029 29.1418 98.6175 27.0584C99.6143 23.679 102.488 21.3987 106.06 21.2675C107.472 21.2183 108.884 21.3987 110.379 21.4972V14.6072H115.562V38.5089ZM110.362 33.6531V26.2217C110.047 26.0741 109.764 25.91 109.449 25.8116C106.807 24.8929 104.415 25.9264 103.734 28.3215C103.568 28.8465 103.485 29.4042 103.485 29.962C103.518 31.6025 103.801 33.2101 105.462 34.0468C107.123 34.867 108.801 34.6538 110.362 33.6531Z" fill="#EA5252"/>
<path d="M134.151 30.8644H123.436C123.137 32.3736 124.101 33.8828 125.712 34.3749C127.523 34.9327 129.35 34.7522 131.144 34.2109C131.892 33.9812 132.59 33.6367 133.387 33.3086L132.706 37.2621C131.593 38.2135 130.264 38.6072 128.869 38.7713C126.991 38.9845 125.114 38.9353 123.287 38.3612C120.795 37.5573 119.1 35.9333 118.336 33.4563C117.655 31.2745 117.622 28.9451 118.27 26.7633C119.184 23.5809 121.792 21.4812 125.147 21.2679C126.078 21.1859 127.025 21.2023 127.955 21.3335C130.53 21.7436 132.324 23.2036 133.287 25.5986C133.969 27.2391 134.218 28.9943 134.151 30.8644ZM123.303 28.3217H129.849C129.699 26.1892 128.171 25.1721 126.692 25.1721C124.799 25.1885 123.569 26.2876 123.303 28.3217Z" fill="#EA5252"/>
<path d="M168.904 21.6783C169.552 23.4991 170.183 25.3035 170.831 27.108C171.462 28.9288 172.093 30.7497 172.824 32.833L176.546 21.6619H181.695L172.708 44.1517H167.492L169.967 37.9182L163.139 21.6783H168.904Z" fill="#EA5252"/>
<path d="M40.6409 25.3203L39.8934 26.8459C37.5344 32.0462 34.9595 37.148 31.6039 41.8233C29.8263 44.3004 27.8495 46.5806 25.341 48.3851C23.0818 49.9928 20.5899 50.977 17.7658 50.9606C14.6926 50.9442 12.2174 49.6975 10.39 47.2532C8.72878 45.0222 8.06429 42.4467 7.86494 39.7235C7.59914 36.0817 8.23041 32.5383 9.06102 29.0277C9.26037 28.2075 9.42649 27.3873 9.64245 26.4194C8.8949 26.8459 8.26363 27.2232 7.63237 27.5513C6.56918 28.1255 5.43955 28.47 4.21024 28.4372C1.80147 28.3223 0.239913 26.5834 0.306362 24.1392C2.08387 22.6135 3.878 21.2356 5.47278 19.6443C9.7089 15.4283 12.9483 10.507 15.4235 5.10987C15.7724 4.30605 16.1877 3.51863 16.6362 2.76402C17.8157 0.893902 19.7095 0.0572692 21.6697 0.467383C23.5469 0.861093 24.7264 2.25548 25.1085 4.4865C25.6068 7.3573 25.0088 10.1297 24.3443 12.8856C23.0153 18.2991 21.6199 23.7126 20.3241 29.1426C19.6929 31.8001 19.344 34.5069 19.5267 37.2464C19.5766 38.0502 19.7427 38.8541 20.0085 39.6087C20.5733 41.0851 21.8857 41.4624 23.115 40.4453C23.8792 39.7891 24.5603 39.0673 25.1749 38.2799C28.6469 33.9327 31.5042 29.1918 34.0625 24.2868C36.2387 20.1036 38.3817 15.9041 40.5579 11.7209C40.9233 10.9991 41.3553 10.3101 41.7706 9.62113C43.3986 6.98 47.3689 7.20966 48.9637 9.81798C49.8275 11.2288 50.2428 12.8036 50.3591 14.4277C50.492 16.1173 50.5252 17.807 50.5917 19.4967C50.7412 23.1713 50.8741 26.8459 51.0568 30.5205C51.1067 31.2095 51.2562 31.8985 51.522 32.5547C52.0037 33.785 52.9174 34.2444 54.1965 33.8671C54.9109 33.6702 55.592 33.3585 56.19 32.932C57.8845 31.6689 59.4958 30.3237 61.2568 28.9129C61.9877 29.1262 62.4196 29.7659 62.6688 30.5698C63.1339 32.0954 62.8349 33.5718 62.2701 34.9826C60.6919 38.9525 57.5688 41.1835 53.4988 42.0694C51.9373 42.381 50.3259 42.4467 48.7311 42.2334C45.6246 41.8561 43.5481 40.0024 42.3354 37.1808C41.2057 34.5561 40.94 31.7837 40.8237 28.9785C40.7738 27.781 40.8237 26.5834 40.8237 25.3695L40.6409 25.3203Z" fill="#EA5252"/>
</svg>
