<svg width="126" height="28" viewBox="0 0 126 28" fill="none" xmlns="http://www.w3.org/2000/svg">
<path fill-rule="evenodd" clip-rule="evenodd" d="M3.88387 10.5084L5.59325 12.2192C6.08894 12.7152 6.08894 13.5272 5.59325 14.0233L3.88387 15.734C3.38818 16.2301 2.57684 16.2301 2.08114 15.734L0.371772 14.0233C-0.123924 13.5272 -0.123924 12.7152 0.371772 12.2192L2.08114 10.5084C2.57684 10.0124 3.38707 10.0124 3.88387 10.5084Z" fill="#06A39C"/>
<path fill-rule="evenodd" clip-rule="evenodd" d="M3.88387 20.4501L5.59325 22.1608C6.08894 22.6569 6.08894 23.4689 5.59325 23.965L3.88387 25.6757C3.38818 26.1718 2.57684 26.1718 2.08114 25.6757L0.371772 23.965C-0.123924 23.4689 -0.123924 22.6569 0.371772 22.1608L2.08114 20.4501C2.57684 19.9529 3.38707 19.9529 3.88387 20.4501Z" fill="#06A39C"/>
<path fill-rule="evenodd" clip-rule="evenodd" d="M13.8165 0.566765L15.5259 2.27747C16.0216 2.77356 16.0216 3.58554 15.5259 4.08162L13.8165 5.79233C13.3208 6.28841 12.5095 6.28841 12.0138 5.79233L10.3044 4.08162C9.80869 3.58554 9.80869 2.77356 10.3044 2.27747L12.0138 0.566765C12.5106 0.0706813 13.3208 0.0706813 13.8165 0.566765Z" fill="#30D2A3"/>
<path fill-rule="evenodd" clip-rule="evenodd" d="M13.8165 10.5084L15.5259 12.2192C16.0216 12.7152 16.0216 13.5272 15.5259 14.0233L13.8165 15.734C13.3208 16.2301 12.5095 16.2301 12.0138 15.734L10.3044 14.0233C9.80869 13.5272 9.80869 12.7152 10.3044 12.2192L12.0138 10.5084C12.5106 10.0124 13.3208 10.0124 13.8165 10.5084Z" fill="#30D2A3"/>
<path fill-rule="evenodd" clip-rule="evenodd" d="M13.8165 20.4501L15.5259 22.1608C16.0216 22.6569 16.0216 23.4689 15.5259 23.965L13.8165 25.6757C13.3208 26.1718 12.5095 26.1718 12.0138 25.6757L10.3044 23.965C9.80869 23.4689 9.80869 22.6569 10.3044 22.1608L12.0138 20.4501C12.5106 19.9529 13.3208 19.9529 13.8165 20.4501Z" fill="#06A39C"/>
<path fill-rule="evenodd" clip-rule="evenodd" d="M23.7508 0.566765L25.4602 2.27747C25.9559 2.77356 25.9559 3.58554 25.4602 4.08162L23.7508 5.79233C23.2551 6.28841 22.4438 6.28841 21.9481 5.79233L20.2387 4.08162C19.743 3.58554 19.743 2.77356 20.2387 2.27747L21.9481 0.566765C22.4438 0.0706813 23.2551 0.0706813 23.7508 0.566765Z" fill="#30D2A3"/>
<path fill-rule="evenodd" clip-rule="evenodd" d="M23.7508 10.5084L25.4602 12.2192C25.9559 12.7152 25.9559 13.5272 25.4602 14.0233L23.7508 15.734C23.2551 16.2301 22.4438 16.2301 21.9481 15.734L20.2387 14.0233C19.743 13.5272 19.743 12.7152 20.2387 12.2192L21.9481 10.5084C22.4438 10.0124 23.2551 10.0124 23.7508 10.5084Z" fill="#30D2A3"/>
<path fill-rule="evenodd" clip-rule="evenodd" d="M23.7508 20.4501L25.4602 22.1608C25.9559 22.6569 25.9559 23.4689 25.4602 23.965L23.7508 25.6757C23.2551 26.1718 22.4438 26.1718 21.9481 25.6757L20.2387 23.965C19.743 23.4689 19.743 22.6569 20.2387 22.1608L21.9481 20.4501C22.4438 19.9529 23.2551 19.9529 23.7508 20.4501Z" fill="#06A39C"/>
<path fill-rule="evenodd" clip-rule="evenodd" d="M3.88387 0.566765L5.59325 2.27747C6.08894 2.77356 6.08894 3.58554 5.59325 4.08162L3.88387 5.79233C3.38818 6.28841 2.57684 6.28841 2.08114 5.79233L0.371772 4.08162C-0.123924 3.58554 -0.123924 2.77356 0.371772 2.27747L2.08114 0.566765C2.57684 0.0706813 3.38707 0.0706813 3.88387 0.566765Z" fill="#30D2A3"/>
<path fill-rule="evenodd" clip-rule="evenodd" d="M40.7221 15.2157L41.3067 16.6894C41.3767 16.8763 41.5168 16.9464 41.7035 16.8763L43.3629 16.338C43.6196 16.2679 43.6429 16.0577 43.5729 15.8697L43.2695 14.8875C43.0128 14.0455 42.9661 13.1802 42.9661 12.2447V8.17484C42.9661 5.01704 40.4654 3.77795 37.7079 3.77795C35.3706 3.77795 33.7824 4.40973 32.2164 5.5554C32.053 5.67219 32.0063 5.90576 32.1697 6.09374L33.0811 7.37955C33.1978 7.54306 33.4545 7.56642 33.6423 7.44963C34.9516 6.63098 36.003 6.32733 37.709 6.32733C39.1117 6.32733 40.2564 6.77224 40.2564 7.87119V8.15148L36.1431 8.68984C33.2689 9.06357 31.5629 10.5607 31.5629 12.9232C31.5629 15.3091 33.4323 16.8997 36.1197 16.8997C37.9891 16.8997 39.4618 16.3146 40.6065 15.2157H40.7221ZM40.2542 12.5729C39.4362 13.6718 38.1747 14.3503 36.3987 14.3503C34.926 14.3503 34.2725 13.7419 34.2725 12.7831C34.2725 11.9644 34.8571 11.3326 36.1419 11.1224L40.2553 10.4439V12.5729H40.2542ZM46.2837 0.247528C46.0736 0.247528 45.9569 0.364319 45.9569 0.574543V16.3847C45.9569 16.5949 46.0736 16.7117 46.2837 16.7117H47.873C48.0597 16.7117 48.1764 16.6183 48.2231 16.4314L48.4098 15.5894L48.5732 15.566C49.5313 16.5015 50.9105 16.8997 52.3354 16.8997C56.0742 16.8997 58.9028 14.2569 58.9028 10.3282C58.9028 6.39962 56.1454 3.78017 52.3354 3.78017C50.9328 3.78017 49.7647 4.13055 48.6666 5.04263V0.575656C48.6666 0.365433 48.5499 0.248641 48.3398 0.248641L46.2837 0.247528ZM48.6677 7.8723C49.6724 6.84343 50.6772 6.35179 52.3365 6.35179C54.5571 6.35179 56.2154 7.89566 56.2154 10.3282C56.2154 12.7842 54.556 14.3281 52.3365 14.3281C50.7705 14.3281 49.6724 13.8364 48.6677 12.7375V7.8723ZM61.1001 3.96592C60.89 3.96592 60.7733 4.08271 60.7733 4.29294V11.3093C60.7733 15.1912 62.8995 16.8986 66.0782 16.8986C67.4808 16.8986 68.7656 16.5015 69.8637 15.4948H70.0037L70.2138 16.4303C70.2605 16.6171 70.3772 16.7106 70.5872 16.7106H72.2466C72.4566 16.7106 72.5733 16.5938 72.5733 16.3836V4.29405C72.5733 4.08383 72.4566 3.96704 72.2466 3.96704H70.1904C69.9804 3.96704 69.8637 4.08383 69.8637 4.29405V12.6908C69.0223 13.7897 67.6664 14.3281 66.3582 14.3281C64.3955 14.3281 63.4841 13.3693 63.4841 11.1469V4.29405C63.4841 4.08383 63.3674 3.96704 63.1573 3.96704H61.1001V3.96592ZM76.36 4.01265L74.8406 4.1528C74.6539 4.17615 74.5606 4.29294 74.5606 4.45645V6.16382C74.5606 6.37404 74.6773 6.49083 74.8873 6.49083H76.3366V12.6185C76.3366 15.1211 77.5514 16.8986 80.3566 16.8986C81.5481 16.8986 82.4361 16.6416 83.3008 16.0799C83.5109 15.9631 83.5575 15.823 83.4642 15.6116L82.8329 14.1145C82.7629 13.951 82.6228 13.8576 82.365 13.9743C81.8737 14.2313 81.3136 14.3481 80.6823 14.3481C79.6776 14.3481 79.0463 13.7396 79.0463 12.5473V6.48972H82.505C82.7151 6.48972 82.8318 6.37293 82.8318 6.1627V4.29183C82.8318 4.08161 82.7151 3.96482 82.505 3.96482H79.0463V1.48551C79.0463 1.27529 78.8829 1.1585 78.7195 1.1585H76.9446C76.7579 1.1585 76.6412 1.27529 76.6178 1.48551L76.36 4.01265ZM95.8977 13.0411C95.781 12.901 95.641 12.901 95.5243 13.0178C94.3095 14.0233 93.0469 14.3514 91.4576 14.3514C89.4014 14.3514 87.9521 13.2291 87.5075 11.6152H97.5093C97.696 11.6152 97.7893 11.4984 97.7893 11.2882V10.3527C97.7893 6.54089 95.1253 3.78017 91.3397 3.78017C87.5309 3.78017 84.679 6.53978 84.679 10.3527C84.679 14.1178 87.4598 16.9008 91.4564 16.9008C93.3259 16.9008 95.312 16.3624 96.9947 14.9365C97.1114 14.8197 97.1347 14.6795 97.018 14.5627L95.8977 13.0411ZM91.3397 6.32844C93.1858 6.32844 94.8452 7.45074 95.0319 9.08804H87.4831C87.8576 7.4741 89.447 6.32844 91.3397 6.32844ZM106.25 3.77906C102.511 3.77906 99.6588 6.53866 99.6588 10.3038C99.6588 14.0689 102.51 16.8997 106.25 16.8997C108.587 16.8997 110.62 15.8708 111.811 13.9065C111.904 13.7897 111.881 13.6496 111.764 13.5328L110.292 12.3637C110.152 12.2469 110.035 12.2469 109.918 12.3637C108.96 13.7675 107.839 14.3281 106.25 14.3281C103.936 14.3281 102.371 12.6207 102.371 10.3049C102.371 7.98909 103.913 6.35179 106.25 6.35179C107.839 6.35179 108.89 6.93686 109.848 8.24603C109.942 8.36282 110.128 8.45625 110.292 8.29275L111.764 7.17044C111.881 7.07701 111.904 6.96022 111.811 6.79671C110.691 4.87801 108.447 3.77906 106.25 3.77906ZM114.43 0.247528C114.22 0.247528 114.103 0.364319 114.103 0.574543V16.3847C114.103 16.5949 114.22 16.7117 114.43 16.7117H116.486C116.696 16.7117 116.812 16.5949 116.812 16.3847V7.82558C117.747 6.79671 118.845 6.35179 120.225 6.35179C122.094 6.35179 123.192 7.42738 123.192 9.6731V16.3858C123.192 16.596 123.309 16.7128 123.519 16.7128H125.575C125.785 16.7128 125.902 16.596 125.902 16.3858V9.57967C125.902 5.74448 123.518 3.77906 120.223 3.77906C118.914 3.77906 117.769 4.15279 116.811 5.06487V0.574543C116.811 0.364319 116.695 0.247528 116.485 0.247528H114.43Z" fill="#00094A"/>
<path fill-rule="evenodd" clip-rule="evenodd" d="M33.5301 25.4866C33.8869 25.4866 34.177 25.3576 34.4026 25.1006C34.6382 24.8437 34.756 24.5078 34.756 24.094C34.756 23.6902 34.6382 23.3566 34.4026 23.0952C34.1714 22.8327 33.8813 22.7014 33.5301 22.7014C33.1845 22.7014 32.8933 22.8327 32.6577 23.0952C32.422 23.3577 32.3042 23.6902 32.3042 24.094C32.3042 24.5033 32.422 24.8359 32.6577 25.0928C32.8933 25.3565 33.1845 25.4866 33.5301 25.4866ZM33.4123 26.1484C32.9088 26.1484 32.4765 25.9493 32.1153 25.55C31.7585 25.1462 31.5807 24.6613 31.5807 24.094C31.5807 23.5278 31.7585 23.0418 32.1153 22.638C32.4765 22.2398 32.9088 22.0396 33.4123 22.0396C33.6957 22.0396 33.9536 22.0997 34.187 22.2209C34.4204 22.341 34.5993 22.5012 34.726 22.7003H34.7571L34.726 22.1653V20.3867H35.4496V26.0205H34.7583V25.4855H34.7271C34.6015 25.6846 34.4215 25.8447 34.1881 25.9649C33.9536 26.0872 33.6957 26.1484 33.4123 26.1484ZM37.2645 20.8372C37.2645 20.9785 37.2145 21.0997 37.1156 21.1987C37.0156 21.2988 36.8955 21.3477 36.7544 21.3477C36.6132 21.3477 36.4921 21.2977 36.3932 21.1987C36.2931 21.0986 36.2442 20.9785 36.2442 20.8372C36.2442 20.6959 36.2942 20.5747 36.3932 20.4757C36.4932 20.3756 36.6132 20.3267 36.7544 20.3267C36.8955 20.3267 37.0167 20.3767 37.1156 20.4757C37.2145 20.5747 37.2645 20.6959 37.2645 20.8372ZM37.1156 22.1664V26.0216H36.392V22.1664H37.1156ZM39.7485 25.4866C40.1053 25.4866 40.3954 25.3576 40.621 25.1006C40.8566 24.8437 40.9745 24.5078 40.9745 24.094C40.9745 23.6902 40.8566 23.3566 40.621 23.0952C40.3898 22.8327 40.0998 22.7014 39.7485 22.7014C39.4029 22.7014 39.1117 22.8327 38.8761 23.0952C38.6405 23.3577 38.5226 23.6902 38.5226 24.094C38.5226 24.5033 38.6405 24.8359 38.8761 25.0928C39.1117 25.3565 39.4029 25.4866 39.7485 25.4866ZM39.7252 27.848C39.5107 27.848 39.3084 27.8202 39.1195 27.7657C38.9305 27.7101 38.7594 27.6333 38.6049 27.5332C38.4504 27.4331 38.3181 27.3152 38.2081 27.1795C38.0981 27.0427 38.0147 26.8914 37.9569 26.7235L38.6405 26.4398C38.7194 26.6656 38.855 26.8458 39.0495 26.9826C39.2428 27.1194 39.4685 27.1873 39.7252 27.1873C40.1187 27.1873 40.4254 27.0694 40.6455 26.8336C40.8655 26.5978 40.9756 26.2719 40.9756 25.8581V25.4888H40.9444C40.8077 25.6935 40.6232 25.8548 40.3898 25.9727C40.1564 26.0906 39.9041 26.1495 39.6307 26.1495C39.1273 26.1495 38.6949 25.9526 38.3337 25.5589C37.9769 25.1551 37.7991 24.6668 37.7991 24.0951C37.7991 23.5234 37.9769 23.0384 38.3337 22.6391C38.6949 22.2409 39.1273 22.0407 39.6307 22.0407C39.903 22.0407 40.1564 22.0997 40.3898 22.2176C40.6232 22.3355 40.8077 22.4967 40.9444 22.7014H40.9756V22.1664H41.6669V25.857C41.6669 26.4754 41.4913 26.9615 41.1401 27.313C40.7844 27.6689 40.312 27.848 39.7252 27.848ZM43.4829 20.8372C43.4829 20.9785 43.4329 21.0997 43.334 21.1987C43.234 21.2988 43.1139 21.3477 42.9728 21.3477C42.8316 21.3477 42.7105 21.2977 42.6116 21.1987C42.5115 21.0986 42.4626 20.9785 42.4626 20.8372C42.4626 20.6959 42.5127 20.5747 42.6116 20.4757C42.7116 20.3756 42.8316 20.3267 42.9728 20.3267C43.1139 20.3267 43.2351 20.3767 43.334 20.4757C43.4329 20.5747 43.4829 20.6959 43.4829 20.8372ZM43.334 22.1664V26.0216H42.6105V22.1664H43.334ZM45.7636 26.085C45.449 26.085 45.1879 25.9882 44.9811 25.7936C44.7744 25.6 44.6677 25.3298 44.6633 24.9827V22.8271H43.9875V22.1664H44.6633V20.9862H45.3868V22.1664H46.3304V22.8271H45.3868V24.7469C45.3868 25.0039 45.4368 25.1785 45.5357 25.2697C45.6358 25.362 45.748 25.4076 45.8736 25.4076C45.9314 25.4076 45.9881 25.4009 46.0425 25.3876C46.0981 25.3742 46.1492 25.3576 46.1959 25.3364L46.4238 25.9816C46.2348 26.0505 46.0148 26.085 45.7636 26.085ZM47.4696 24.8415C47.4696 25.0306 47.5496 25.1874 47.7097 25.3131C47.8697 25.4388 48.0564 25.5022 48.2721 25.5022C48.5766 25.5022 48.8478 25.3898 49.0856 25.164C49.3246 24.9382 49.4435 24.6735 49.4435 24.3698C49.2179 24.1919 48.9033 24.1029 48.4999 24.1029C48.2065 24.1029 47.9609 24.1741 47.7653 24.3153C47.5674 24.4566 47.4696 24.6324 47.4696 24.8415ZM48.4043 22.0407C48.9389 22.0407 49.3613 22.1831 49.6702 22.4701C49.9792 22.7559 50.1337 23.1486 50.1337 23.6457V26.0216H49.4424V25.4866H49.4113C49.1123 25.9271 48.7144 26.1473 48.2165 26.1473C47.7919 26.1473 47.4374 26.0216 47.1517 25.7691C46.8661 25.5177 46.7227 25.203 46.7227 24.8248C46.7227 24.4266 46.8739 24.1085 47.1751 23.8727C47.4763 23.6368 47.8786 23.5189 48.3821 23.5189C48.8122 23.5189 49.1656 23.5979 49.4435 23.7548V23.589C49.4435 23.3376 49.3435 23.123 49.1445 22.9472C48.9456 22.7715 48.7122 22.6836 48.4443 22.6836C48.0409 22.6836 47.7208 22.8538 47.4852 23.1953L46.8483 22.7937C47.1995 22.2932 47.7186 22.0407 48.4043 22.0407ZM51.6752 20.3889V26.0227H50.9517V20.3889H51.6752ZM56.0465 26.1484C55.4752 26.1484 55.0006 25.9549 54.6239 25.5667C54.2515 25.1685 54.0659 24.678 54.0659 24.0951C54.0659 23.5023 54.2515 23.0117 54.6239 22.6235C55.0017 22.2354 55.4752 22.0418 56.0465 22.0418C56.4399 22.0418 56.7834 22.1397 57.0768 22.3366C57.3702 22.5335 57.5902 22.8049 57.737 23.1508L57.0768 23.4266C56.8723 22.9439 56.5133 22.7025 55.9998 22.7025C55.6697 22.7025 55.3841 22.836 55.1429 23.1041C54.9073 23.371 54.7895 23.7025 54.7895 24.0951C54.7895 24.4889 54.9073 24.8192 55.1429 25.0862C55.3841 25.3531 55.6697 25.4877 55.9998 25.4877C56.5288 25.4877 56.9012 25.2463 57.1157 24.7636L57.7603 25.0394C57.6191 25.3854 57.3969 25.6568 57.0957 25.8536C56.7945 26.0494 56.4444 26.1484 56.0465 26.1484ZM58.1293 24.094C58.1293 23.5011 58.3149 23.0106 58.6872 22.6224C59.0651 22.2342 59.5386 22.0407 60.1098 22.0407C60.6811 22.0407 61.1524 22.2342 61.5247 22.6224C61.9026 23.0106 62.0904 23.5011 62.0904 24.094C62.0904 24.6924 61.9015 25.1829 61.5247 25.5656C61.1524 25.9538 60.6811 26.1473 60.1098 26.1473C59.5386 26.1473 59.064 25.9538 58.6872 25.5656C58.316 25.1774 58.1293 24.6869 58.1293 24.094ZM58.8528 24.094C58.8528 24.5089 58.9729 24.8437 59.214 25.1006C59.4552 25.3576 59.7542 25.4866 60.1098 25.4866C60.4666 25.4866 60.7645 25.3576 61.0056 25.1006C61.2468 24.8437 61.3669 24.5078 61.3669 24.094C61.3669 23.6847 61.2468 23.3521 61.0056 23.0952C60.7589 22.8327 60.4611 22.7014 60.1098 22.7014C59.7586 22.7014 59.4597 22.8327 59.214 23.0952C58.974 23.3521 58.8528 23.6858 58.8528 24.094ZM63.3974 26.0227H62.6739V22.1675H63.3652V22.7025H63.3963C63.5064 22.5134 63.6753 22.3566 63.9031 22.2309C64.131 22.1052 64.3577 22.0418 64.5833 22.0418C64.8667 22.0418 65.1157 22.1074 65.3302 22.2387C65.5447 22.3699 65.7025 22.5512 65.8014 22.7815C66.1215 22.2887 66.5639 22.0418 67.1296 22.0418C67.5753 22.0418 67.9187 22.1786 68.1599 22.4511C68.4011 22.7237 68.5211 23.1118 68.5211 23.6157V26.0238H67.7976V23.7269C67.7976 23.3654 67.732 23.1041 67.6008 22.9439C67.4697 22.7837 67.2496 22.7036 66.9407 22.7036C66.6628 22.7036 66.4294 22.8215 66.2405 23.0573C66.0515 23.2931 65.957 23.5712 65.957 23.8916V26.0238H65.2335V23.7269C65.2335 23.3654 65.1679 23.1041 65.0368 22.9439C64.9056 22.7837 64.6856 22.7036 64.3766 22.7036C64.0987 22.7036 63.8653 22.8215 63.6764 23.0573C63.4875 23.2931 63.393 23.5712 63.393 23.8916V26.0227H63.3974ZM71.2585 25.4866C71.6042 25.4866 71.8954 25.3553 72.131 25.0928C72.3666 24.8359 72.4844 24.5022 72.4844 24.094C72.4844 23.6902 72.3666 23.3566 72.131 23.0952C71.8954 22.8327 71.6042 22.7014 71.2585 22.7014C70.9073 22.7014 70.6139 22.8327 70.3783 23.0952C70.1471 23.3577 70.0326 23.6902 70.0326 24.094C70.0326 24.5033 70.1482 24.8392 70.3783 25.1006C70.6139 25.3587 70.9073 25.4866 71.2585 25.4866ZM71.3775 26.1484C71.0941 26.1484 70.8362 26.0883 70.6028 25.9671C70.3694 25.847 70.1905 25.6868 70.0638 25.4877H70.0326L70.0638 26.0227V27.7223H69.3402V22.1675H70.0315V22.7025H70.0626C70.1882 22.5034 70.3683 22.3432 70.6017 22.2231C70.8351 22.103 71.0929 22.0418 71.3764 22.0418C71.8843 22.0418 72.3144 22.2409 72.6656 22.6402C73.0268 23.044 73.208 23.529 73.208 24.0962C73.208 24.6679 73.0268 25.1529 72.6656 25.5522C72.3155 25.9482 71.8854 26.1484 71.3775 26.1484ZM74.3961 24.8415C74.3961 25.0306 74.4761 25.1874 74.6362 25.3131C74.7962 25.4388 74.9829 25.5022 75.1985 25.5022C75.5031 25.5022 75.7743 25.3898 76.0121 25.164C76.2511 24.9382 76.37 24.6735 76.37 24.3698C76.1444 24.1919 75.8298 24.1029 75.4264 24.1029C75.133 24.1029 74.8873 24.1741 74.6917 24.3153C74.4939 24.4566 74.3961 24.6324 74.3961 24.8415ZM75.3319 22.0407C75.8665 22.0407 76.2889 22.1831 76.5978 22.4701C76.9068 22.7559 77.0613 23.1486 77.0613 23.6457V26.0216H76.37V25.4866H76.3389C76.0399 25.9271 75.642 26.1473 75.1441 26.1473C74.7195 26.1473 74.365 26.0216 74.0793 25.7691C73.7937 25.5177 73.6503 25.203 73.6503 24.8248C73.6503 24.4266 73.8015 24.1085 74.1027 23.8727C74.4039 23.6368 74.8062 23.5189 75.3097 23.5189C75.7398 23.5189 76.0932 23.5979 76.3711 23.7548V23.589C76.3711 23.3376 76.2711 23.123 76.0721 22.9472C75.8732 22.7715 75.6398 22.6836 75.3719 22.6836C74.9685 22.6836 74.6484 22.8538 74.4128 23.1953L73.7759 22.7937C74.126 22.2932 74.6451 22.0407 75.3319 22.0407ZM77.8782 22.1664H78.5695V22.7014H78.6006C78.7106 22.5123 78.8796 22.3555 79.1074 22.2298C79.3353 22.1041 79.572 22.0407 79.8187 22.0407C80.29 22.0407 80.6534 22.1753 80.9079 22.4456C81.1624 22.7159 81.2891 23.0996 81.2891 23.5979V26.0216H80.5656V23.6457C80.55 23.0162 80.2333 22.7014 79.6142 22.7014C79.3264 22.7014 79.0852 22.8182 78.8907 23.0518C78.6973 23.2854 78.5995 23.5645 78.5995 23.8893V26.0216H77.876V22.1664H77.8782ZM85.5048 22.1664L83.0908 27.7212H82.3439L83.2397 25.778L81.6515 22.1664H82.4372L83.5854 24.936H83.6009L84.7168 22.1664H85.5048Z" fill="#00094A"/>
</svg>
