<svg width="100" height="100" viewBox="0 0 100 100" fill="none" xmlns="http://www.w3.org/2000/svg">
<path fill-rule="evenodd" clip-rule="evenodd" d="M65.1108 6.23253L93.7674 34.8891C102.077 43.1992 102.077 56.8008 93.7674 65.1109L65.1108 93.7675C56.8008 102.078 43.1992 102.078 34.8891 93.7675L6.23253 65.1109C-2.07751 56.8008 -2.07751 43.1992 6.23253 34.8891L34.8891 6.23253C43.1992 -2.07751 56.8008 -2.07751 65.1108 6.23253Z" fill="#FFF9C9"/>
<path d="M40.8613 58.4714L41.8041 57.5286L34.2755 50L52.9422 31.3333H63.9994V34H62.5514C62.3941 33.5552 62.0847 33.1803 61.6777 32.9416C61.2708 32.7029 60.7925 32.6157 60.3276 32.6955C59.8626 32.7753 59.4407 33.0168 59.1366 33.3776C58.8325 33.7383 58.6658 34.1949 58.6658 34.6667C58.6658 35.1385 58.8325 35.5951 59.1366 35.9558C59.4407 36.3165 59.8626 36.5581 60.3276 36.6379C60.7925 36.7176 61.2708 36.6305 61.6777 36.3918C62.0847 36.153 62.3941 35.7781 62.5514 35.3333H63.9994V42.3905L50.8613 55.5286L51.8041 56.4714L65.1375 43.1381C65.1994 43.0762 65.2485 43.0027 65.282 42.9218C65.3155 42.8409 65.3327 42.7542 65.3327 42.6667V39.3333H67.3327C68.04 39.3333 68.7182 39.0524 69.2183 38.5523C69.7184 38.0522 69.9994 37.3739 69.9994 36.6667C69.9994 35.9594 69.7184 35.2811 69.2183 34.781C68.7182 34.281 68.04 34 67.3327 34H65.3327V30.6667C65.3327 30.4899 65.2625 30.3203 65.1374 30.1953C65.0124 30.0702 64.8429 30 64.666 30H52.666C52.5785 30 52.4918 30.0172 52.4109 30.0507C52.33 30.0842 52.2565 30.1333 52.1946 30.1953L32.8613 49.5286C32.7994 49.5905 32.7503 49.664 32.7168 49.7449C32.6833 49.8258 32.666 49.9124 32.666 50C32.666 50.0876 32.6833 50.1742 32.7168 50.2551C32.7503 50.336 32.7994 50.4095 32.8613 50.4714L40.8613 58.4714ZM59.9994 34.6667C59.9996 34.4899 60.0699 34.3205 60.1949 34.1955C60.3198 34.0705 60.4893 34.0002 60.666 34V35.3333C60.4893 35.3331 60.3198 35.2628 60.1949 35.1379C60.0699 35.0129 59.9996 34.8434 59.9994 34.6667ZM67.3327 35.3333C67.6863 35.3333 68.0255 35.4738 68.2755 35.7239C68.5256 35.9739 68.666 36.313 68.666 36.6667C68.666 37.0203 68.5256 37.3594 68.2755 37.6095C68.0255 37.8595 67.6863 38 67.3327 38H65.3327V35.3333H67.3327Z" fill="#605400"/>
<path d="M48.0981 43.1545C48.1989 43.4763 48.3747 43.7696 48.6112 44.01C48.8477 44.2504 49.138 44.4311 49.4581 44.5371C49.4671 44.8538 49.5486 45.1642 49.6966 45.4444C49.8445 45.7245 50.0548 45.967 50.3113 46.1529C50.5867 46.3613 50.9074 46.5017 51.2473 46.5628C51.5872 46.6239 51.9367 46.604 52.2675 46.5046C52.4759 46.7633 52.7396 46.9721 53.0393 47.1155C53.339 47.2589 53.6671 47.3333 53.9993 47.3333C54.3315 47.3333 54.6596 47.2589 54.9592 47.1155C55.2589 46.9721 55.5227 46.7633 55.7311 46.5046C56.0619 46.604 56.4114 46.6239 56.7513 46.5628C57.0912 46.5017 57.4119 46.3613 57.6873 46.1529C57.9438 45.967 58.1541 45.7245 58.302 45.4444C58.45 45.1642 58.5315 44.8538 58.5405 44.5371C58.8606 44.4311 59.1509 44.2504 59.3874 44.01C59.6239 43.7696 59.7997 43.4763 59.9005 43.1545C60.0004 42.8505 60.0274 42.5272 59.9793 42.2109C59.9312 41.8945 59.8092 41.5939 59.6234 41.3333C59.8092 41.0728 59.9312 40.7722 59.9793 40.4558C60.0274 40.1395 60.0004 39.8162 59.9005 39.5122C59.7997 39.1903 59.6239 38.8971 59.3874 38.6567C59.1509 38.4163 58.8606 38.2356 58.5405 38.1296C58.5315 37.8129 58.45 37.5025 58.302 37.2223C58.1541 36.9422 57.9438 36.6997 57.6873 36.5138C57.4119 36.3054 57.0912 36.165 56.7513 36.1039C56.4114 36.0428 56.0619 36.0627 55.7311 36.1621C55.5227 35.9034 55.2589 35.6946 54.9592 35.5512C54.6596 35.4078 54.3315 35.3334 53.9993 35.3334C53.6671 35.3334 53.339 35.4078 53.0393 35.5512C52.7396 35.6946 52.4759 35.9034 52.2675 36.1621C51.9367 36.0627 51.5872 36.0428 51.2473 36.1039C50.9074 36.165 50.5867 36.3054 50.3113 36.5138C50.0548 36.6998 49.8445 36.9422 49.6966 37.2223C49.5486 37.5025 49.4671 37.8129 49.4581 38.1296C49.138 38.2356 48.8477 38.4163 48.6112 38.6567C48.3747 38.8971 48.1989 39.1903 48.0981 39.5122C47.9982 39.8162 47.9712 40.1395 48.0193 40.4558C48.0674 40.7722 48.1894 41.0728 48.3752 41.3333C48.1894 41.5939 48.0674 41.8945 48.0193 42.2109C47.9712 42.5272 47.9982 42.8505 48.0981 43.1545ZM49.6917 40.7773C49.5476 40.6915 49.4371 40.5591 49.3785 40.4019C49.32 40.2448 49.3169 40.0723 49.3697 39.9132C49.424 39.7392 49.5354 39.5888 49.686 39.4862C49.8366 39.3836 50.0174 39.3349 50.1991 39.348C50.308 39.3509 50.4159 39.3271 50.5135 39.2787C50.6111 39.2302 50.6952 39.1586 50.7587 39.0701C50.8222 38.9816 50.863 38.8789 50.8776 38.7709C50.8922 38.663 50.8801 38.5531 50.8425 38.4509C50.7837 38.2968 50.7781 38.1275 50.8267 37.9699C50.8752 37.8123 50.9751 37.6754 51.1104 37.5811C51.2595 37.464 51.4435 37.4 51.6332 37.3994C51.8228 37.3988 52.0072 37.4616 52.157 37.5778C52.2428 37.6415 52.3426 37.6837 52.448 37.7007C52.5534 37.7178 52.6614 37.7093 52.7629 37.6759C52.8643 37.6425 52.9563 37.5853 53.031 37.509C53.1057 37.4326 53.1609 37.3395 53.1921 37.2373C53.3206 36.8167 53.6934 36.6667 53.9993 36.6667C54.3052 36.6667 54.678 36.8167 54.8065 37.2373C54.8377 37.3395 54.8929 37.4326 54.9676 37.509C55.0423 37.5853 55.1343 37.6425 55.2357 37.6759C55.3372 37.7093 55.4452 37.7178 55.5506 37.7007C55.656 37.6837 55.7558 37.6415 55.8415 37.5778C55.9914 37.4615 56.1758 37.3987 56.3654 37.3993C56.5551 37.3999 56.7391 37.4639 56.8882 37.5811C57.0235 37.6754 57.1234 37.8123 57.1719 37.9699C57.2205 38.1275 57.2149 38.2968 57.1561 38.4509C57.1184 38.5531 57.1064 38.663 57.121 38.7709C57.1356 38.8789 57.1764 38.9816 57.2399 39.0701C57.3033 39.1586 57.3875 39.2302 57.4851 39.2787C57.5826 39.3271 57.6906 39.3509 57.7995 39.348C57.9811 39.3352 58.1618 39.384 58.3123 39.4866C58.4628 39.5891 58.5743 39.7394 58.6289 39.9132C58.6817 40.0723 58.6786 40.2448 58.62 40.4019C58.5615 40.5591 58.451 40.6915 58.3069 40.7773C58.215 40.838 58.1396 40.9206 58.0874 41.0177C58.0352 41.1147 58.0079 41.2232 58.0079 41.3333C58.0079 41.4435 58.0352 41.552 58.0874 41.649C58.1396 41.7461 58.215 41.8287 58.3069 41.8894C58.451 41.9752 58.5615 42.1076 58.62 42.2648C58.6786 42.4219 58.6817 42.5944 58.6289 42.7535C58.5745 42.9274 58.4631 43.0778 58.3125 43.1804C58.162 43.283 57.9812 43.3317 57.7995 43.3187C57.6906 43.3158 57.5826 43.3396 57.4851 43.388C57.3875 43.4365 57.3033 43.5081 57.2399 43.5966C57.1764 43.6851 57.1356 43.7878 57.121 43.8958C57.1064 44.0037 57.1184 44.1136 57.1561 44.2158C57.2149 44.3699 57.2205 44.5392 57.1719 44.6968C57.1234 44.8544 57.0235 44.9913 56.8882 45.0856C56.7391 45.2027 56.5551 45.2667 56.3654 45.2673C56.1758 45.2679 55.9914 45.2051 55.8415 45.0888C55.7558 45.0252 55.656 44.983 55.5506 44.966C55.4452 44.9489 55.3372 44.9574 55.2357 44.9908C55.1343 45.0242 55.0423 45.0814 54.9676 45.1577C54.8929 45.2341 54.8377 45.3272 54.8065 45.4293C54.678 45.85 54.3052 46 53.9993 46C53.6934 46 53.3206 45.85 53.1921 45.4293C53.1609 45.3272 53.1057 45.2341 53.031 45.1577C52.9563 45.0814 52.8643 45.0242 52.7629 44.9908C52.6614 44.9574 52.5534 44.9489 52.448 44.966C52.3426 44.983 52.2428 45.0252 52.157 45.0888C52.0072 45.205 51.8228 45.2678 51.6332 45.2672C51.4435 45.2666 51.2595 45.2027 51.1104 45.0856C50.9751 44.9913 50.8752 44.8544 50.8267 44.6968C50.7781 44.5392 50.7837 44.3699 50.8425 44.2158C50.8801 44.1136 50.8922 44.0037 50.8776 43.8958C50.863 43.7878 50.8222 43.6851 50.7587 43.5966C50.6952 43.5081 50.6111 43.4365 50.5135 43.388C50.4159 43.3396 50.308 43.3158 50.1991 43.3187C50.0174 43.332 49.8365 43.2833 49.6859 43.1807C49.5353 43.0781 49.4238 42.9275 49.3697 42.7535C49.3169 42.5944 49.32 42.4219 49.3785 42.2648C49.4371 42.1076 49.5476 41.9752 49.6917 41.8894C49.7836 41.8287 49.859 41.7461 49.9112 41.649C49.9634 41.552 49.9907 41.4435 49.9907 41.3333C49.9907 41.2232 49.9634 41.1147 49.9112 41.0177C49.859 40.9206 49.7836 40.838 49.6917 40.7773Z" fill="#605400"/>
<path d="M40.1946 46.1952L36.1946 50.1952L37.1374 51.138L41.1374 47.138L40.1946 46.1952Z" fill="#605400"/>
<path d="M42.1946 48.1952L38.1946 52.1952L39.1374 53.138L43.1374 49.138L42.1946 48.1952Z" fill="#605400"/>
<path d="M44.1946 50.1952L40.1946 54.1952L41.1374 55.138L45.1374 51.138L44.1946 50.1952Z" fill="#605400"/>
<path d="M46.1946 52.1952L42.1946 56.1952L43.1374 57.138L47.1374 53.138L46.1946 52.1952Z" fill="#605400"/>
<path d="M48.1946 54.1953L46.1946 56.1953L47.1374 57.1381L49.1374 55.1381L48.1946 54.1953Z" fill="#605400"/>
<path d="M45.1374 42.8619L44.1946 43.8047L45.8196 45.4297L46.7624 44.4869L45.1374 42.8619Z" fill="#605400"/>
<path d="M47.6374 45.362L46.6946 46.3048L50.8613 50.4715L51.8041 49.5287L47.6374 45.362Z" fill="#605400"/>
<path d="M37.1709 34.6468C37.8596 34.8182 38.4886 35.1739 38.9904 35.6756C39.4921 36.1774 39.8478 36.8064 40.0192 37.4951C40.0553 37.6393 40.1385 37.7673 40.2557 37.8588C40.3729 37.9503 40.5173 38 40.6659 38C40.8146 38 40.959 37.9503 41.0762 37.8588C41.1934 37.7673 41.2766 37.6393 41.3127 37.4951C41.4841 36.8064 41.8397 36.1774 42.3415 35.6756C42.8433 35.1739 43.4723 34.8182 44.1609 34.6468C44.3052 34.6107 44.4332 34.5275 44.5247 34.4103C44.6162 34.2931 44.6659 34.1487 44.6659 34.0001C44.6659 33.8514 44.6162 33.707 44.5247 33.5898C44.4332 33.4726 44.3052 33.3894 44.1609 33.3533C43.4723 33.1819 42.8433 32.8263 42.3415 32.3245C41.8397 31.8227 41.4841 31.1937 41.3127 30.5051C41.2766 30.3608 41.1934 30.2328 41.0762 30.1413C40.959 30.0498 40.8146 30.0001 40.6659 30.0001C40.5173 30.0001 40.3729 30.0498 40.2557 30.1413C40.1385 30.2328 40.0553 30.3608 40.0192 30.5051C39.8478 31.1937 39.4921 31.8227 38.9904 32.3245C38.4886 32.8263 37.8596 33.1819 37.1709 33.3533C37.0267 33.3894 36.8987 33.4726 36.8072 33.5898C36.7157 33.707 36.666 33.8514 36.666 34.0001C36.666 34.1487 36.7157 34.2931 36.8072 34.4103C36.8987 34.5275 37.0267 34.6107 37.1709 34.6468ZM40.6659 32.3484C41.085 33.0164 41.6496 33.581 42.3176 34.0001C41.6496 34.4191 41.085 34.9837 40.6659 35.6517C40.2469 34.9837 39.6823 34.4191 39.0143 34.0001C39.6823 33.581 40.2469 33.0164 40.6659 32.3484Z" fill="#605400"/>
<path d="M61.8891 48.5008L56.8613 53.5286L57.8041 54.4714L62.8319 49.4436L61.8891 48.5008Z" fill="#605400"/>
<path d="M64.1946 46.1953L62.8613 47.5286L63.8041 48.4714L65.1374 47.1381L64.1946 46.1953Z" fill="#605400"/>
<path d="M69.3327 56.6667H63.3327C63.1559 56.6667 62.9863 56.7369 62.8613 56.8619C62.7362 56.987 62.666 57.1565 62.666 57.3333V57.9652C61.048 56.8025 59.1315 56.1262 57.1422 56.016C55.1528 55.9058 53.1733 56.3663 51.4368 57.3432L50.2692 58H44.666C44.0594 57.9998 43.4642 58.1651 42.9446 58.4783C42.4251 58.7914 42.0009 59.2405 41.7178 59.777C41.4347 60.3135 41.3034 60.9171 41.3381 61.5228C41.3729 62.1284 41.5723 62.7131 41.9149 63.2137L34.8042 59.681C34.3789 59.4704 33.9115 59.3588 33.4369 59.3545L33.1503 59.3523C32.4439 59.3469 31.7564 59.5809 31.1998 60.0162C30.6433 60.4514 30.2506 61.0623 30.0857 61.7493C29.9207 62.4363 29.9933 63.1589 30.2915 63.7993C30.5897 64.4398 31.0961 64.9604 31.728 65.2763L39.9084 69.3667C40.7419 69.7822 41.6604 69.999 42.5917 70H69.3327C69.5095 70 69.679 69.9298 69.8041 69.8048C69.9291 69.6797 69.9993 69.5102 69.9993 69.3333V57.3333C69.9993 57.1565 69.9291 56.987 69.8041 56.8619C69.679 56.7369 69.5095 56.6667 69.3327 56.6667ZM40.5047 68.174L32.3243 64.0838C31.9629 63.9031 31.6731 63.6057 31.5018 63.2397C31.3305 62.8737 31.2878 62.4607 31.3806 62.0674C31.4734 61.6741 31.6963 61.3237 32.0131 61.0729C32.3299 60.8221 32.7221 60.6857 33.1262 60.6856H33.1402L33.4267 60.6878C33.6989 60.6903 33.967 60.7543 34.211 60.875L41.7027 64.597C41.7949 64.6428 41.8964 64.6666 41.9993 64.6667H50.666C50.8428 64.6667 51.0124 64.5964 51.1374 64.4714C51.2624 64.3464 51.3327 64.1768 51.3327 64C51.3327 63.8232 51.2624 63.6536 51.1374 63.5286C51.0124 63.4036 50.8428 63.3333 50.666 63.3333H44.666C44.1356 63.3333 43.6269 63.1226 43.2518 62.7476C42.8767 62.3725 42.666 61.8638 42.666 61.3333C42.666 60.8029 42.8767 60.2942 43.2518 59.9191C43.6269 59.5441 44.1356 59.3333 44.666 59.3333H50.4438C50.5582 59.3334 50.6708 59.3039 50.7706 59.2478L52.0905 58.5053C53.6758 57.6136 55.4915 57.216 57.3044 57.3635C59.1173 57.5111 60.8448 58.197 62.2651 59.3333L62.666 59.6538V68.6667H42.5917C41.8673 68.6658 41.153 68.4972 40.5047 68.174ZM68.666 68.6667H63.9993V58H68.666V68.6667Z" fill="#605400"/>
<path d="M66.3326 66.6666C66.5304 66.6666 66.7238 66.608 66.8882 66.4981C67.0527 66.3882 67.1808 66.232 67.2565 66.0493C67.3322 65.8666 67.352 65.6655 67.3134 65.4715C67.2748 65.2776 67.1796 65.0994 67.0397 64.9595C66.8999 64.8197 66.7217 64.7244 66.5277 64.6858C66.3338 64.6473 66.1327 64.6671 65.95 64.7427C65.7672 64.8184 65.6111 64.9466 65.5012 65.1111C65.3913 65.2755 65.3326 65.4688 65.3326 65.6666C65.3329 65.9318 65.4384 66.1859 65.6259 66.3734C65.8133 66.5609 66.0675 66.6663 66.3326 66.6666Z" fill="#605400"/>
<path d="M43.804 45.5286L42.8612 46.4714L48.1946 51.8048L49.1374 50.862L43.804 45.5286Z" fill="#605400"/>
</svg>
