<svg width="47" height="36" viewBox="0 0 47 36" fill="none" xmlns="http://www.w3.org/2000/svg">
<path d="M45.75 0H0.75C0.551088 0 0.360322 0.0790178 0.21967 0.21967C0.0790176 0.360322 0 0.551088 0 0.75V35.25C0 35.4489 0.0790176 35.6397 0.21967 35.7803C0.360322 35.921 0.551088 36 0.75 36H45.75C45.9489 36 46.1397 35.921 46.2803 35.7803C46.421 35.6397 46.5 35.4489 46.5 35.25V0.75C46.5 0.551088 46.421 0.360322 46.2803 0.21967C46.1397 0.0790178 45.9489 0 45.75 0ZM36 3C36 2.17157 36.6716 1.5 37.5 1.5H39C39.8284 1.5 40.5 2.17157 40.5 3C40.5 3.82843 39.8284 4.5 39 4.5H37.5C36.6716 4.5 36 3.82843 36 3ZM30 3C30 2.17157 30.6716 1.5 31.5 1.5H33C33.8284 1.5 34.5 2.17157 34.5 3C34.5 3.82843 33.8284 4.5 33 4.5H31.5C30.6716 4.5 30 3.82843 30 3ZM24 3C24 2.17157 24.6716 1.5 25.5 1.5H27C27.8284 1.5 28.5 2.17157 28.5 3C28.5 3.82843 27.8284 4.5 27 4.5H25.5C24.6716 4.5 24 3.82843 24 3ZM18 3C18 2.17157 18.6716 1.5 19.5 1.5H21C21.8284 1.5 22.5 2.17157 22.5 3C22.5 3.82843 21.8284 4.5 21 4.5H19.5C18.6716 4.5 18 3.82843 18 3ZM12 3C12 2.17157 12.6716 1.5 13.5 1.5H15C15.8284 1.5 16.5 2.17157 16.5 3C16.5 3.82843 15.8284 4.5 15 4.5H13.5C12.6716 4.5 12 3.82843 12 3ZM1.5 3C1.5 2.17157 2.17157 1.5 3 1.5C3.82843 1.5 4.5 2.17157 4.5 3C4.5 3.82843 3.82843 4.5 3 4.5C2.17157 4.5 1.5 3.82843 1.5 3ZM1.5 9C1.5 7.34315 2.84315 6 4.5 6H6.75C8.40685 6 9.75 7.34315 9.75 9V27C9.75 28.6569 8.40685 30 6.75 30H4.5C2.84315 30 1.5 28.6569 1.5 27V9ZM4.5 33C4.5 33.8284 3.82843 34.5 3 34.5C2.17157 34.5 1.5 33.8284 1.5 33C1.5 32.1716 2.17157 31.5 3 31.5C3.82843 31.5 4.5 32.1716 4.5 33ZM10.5 33C10.5 33.8284 9.82843 34.5 9 34.5H7.5C6.67157 34.5 6 33.8284 6 33C6 32.1716 6.67157 31.5 7.5 31.5H9C9.82843 31.5 10.5 32.1716 10.5 33ZM10.5 3C10.5 3.82843 9.82843 4.5 9 4.5H7.5C6.67157 4.5 6 3.82843 6 3C6 2.17157 6.67157 1.5 7.5 1.5H9C9.82843 1.5 10.5 2.17157 10.5 3ZM16.5 33C16.5 33.8284 15.8284 34.5 15 34.5H13.5C12.6716 34.5 12 33.8284 12 33C12 32.1716 12.6716 31.5 13.5 31.5H15C15.8284 31.5 16.5 32.1716 16.5 33ZM22.5 33C22.5 33.8284 21.8284 34.5 21 34.5H19.5C18.6716 34.5 18 33.8284 18 33C18 32.1716 18.6716 31.5 19.5 31.5H21C21.8284 31.5 22.5 32.1716 22.5 33ZM28.5 33C28.5 33.8284 27.8284 34.5 27 34.5H25.5C24.6716 34.5 24 33.8284 24 33C24 32.1716 24.6716 31.5 25.5 31.5H27C27.8284 31.5 28.5 32.1716 28.5 33ZM34.5 33C34.5 33.8284 33.8284 34.5 33 34.5H31.5C30.6716 34.5 30 33.8284 30 33C30 32.1716 30.6716 31.5 31.5 31.5H33C33.8284 31.5 34.5 32.1716 34.5 33ZM35.25 27C35.25 28.6569 33.9069 30 32.25 30H14.25C12.5931 30 11.25 28.6569 11.25 27V9C11.25 7.34315 12.5931 6 14.25 6H32.25C33.9069 6 35.25 7.34315 35.25 9V27ZM40.5 33C40.5 33.8284 39.8284 34.5 39 34.5H37.5C36.6716 34.5 36 33.8284 36 33C36 32.1716 36.6716 31.5 37.5 31.5H39C39.8284 31.5 40.5 32.1716 40.5 33ZM45 33C45 33.8284 44.3284 34.5 43.5 34.5C42.6716 34.5 42 33.8284 42 33C42 32.1716 42.6716 31.5 43.5 31.5C44.3284 31.5 45 32.1716 45 33ZM45 27C45 28.6569 43.6569 30 42 30H39.75C38.0931 30 36.75 28.6569 36.75 27V9C36.75 7.34315 38.0931 6 39.75 6H42C43.6569 6 45 7.34315 45 9V27ZM45 3C45 3.82843 44.3284 4.5 43.5 4.5C42.6716 4.5 42 3.82843 42 3C42 2.17157 42.6716 1.5 43.5 1.5C44.3284 1.5 45 2.17157 45 3Z" fill="#024501"/>
<path d="M21 14.25V21.75C21 21.9489 21.079 22.1397 21.2197 22.2803C21.3603 22.421 21.5511 22.5 21.75 22.5C21.9489 22.5 22.1397 22.421 22.2803 22.2803C22.421 22.1397 22.5 21.9489 22.5 21.75V21C22.5 19.7574 23.5074 18.75 24.75 18.75C24.9489 18.75 25.1397 18.671 25.2803 18.5303C25.421 18.3897 25.5 18.1989 25.5 18C25.5 17.8011 25.421 17.6103 25.2803 17.4697C25.1397 17.329 24.9489 17.25 24.75 17.25H23.625C23.0037 17.25 22.5 16.7463 22.5 16.125C22.5 15.5037 23.0037 15 23.625 15H24.75C24.9489 15 25.1397 14.921 25.2803 14.7803C25.421 14.6397 25.5 14.4489 25.5 14.25C25.5 14.0511 25.421 13.8603 25.2803 13.7197C25.1397 13.579 24.9489 13.5 24.75 13.5H21.75C21.5511 13.5 21.3603 13.579 21.2197 13.7197C21.079 13.8603 21 14.0511 21 14.25Z" fill="#024501"/>
<path d="M30.6965 21.4715C30.7704 21.6562 30.7678 21.8627 30.6894 22.0456C30.611 22.2284 30.4631 22.3726 30.2784 22.4465C30.0937 22.5203 29.8872 22.5178 29.7043 22.4393C29.5215 22.3609 29.3773 22.2131 29.3034 22.0283C29.0133 21.303 27.9866 21.303 27.6965 22.0283C27.6227 22.2131 27.4785 22.3609 27.2956 22.4393C27.1128 22.5178 26.9063 22.5203 26.7215 22.4465C26.5368 22.3726 26.389 22.2284 26.3105 22.0456C26.2321 21.8627 26.2296 21.6562 26.3034 21.4715L27.2463 19.114C27.5323 18.3988 27.5323 17.601 27.2463 16.8859L26.3034 14.5283C26.2296 14.3436 26.2321 14.1371 26.3105 13.9542C26.389 13.7714 26.5368 13.6272 26.7215 13.5533C26.9063 13.4795 27.1128 13.4821 27.2956 13.5605C27.4785 13.6389 27.6227 13.7867 27.6965 13.9715C27.9866 14.6968 29.0133 14.6968 29.3034 13.9715C29.34 13.88 29.3942 13.7966 29.463 13.7261C29.5318 13.6556 29.6138 13.5993 29.7043 13.5605C29.7948 13.5217 29.8921 13.501 29.9906 13.4998C30.0892 13.4986 30.1869 13.5168 30.2784 13.5533C30.3699 13.5899 30.4533 13.6441 30.5238 13.7129C30.5943 13.7817 30.6506 13.8637 30.6894 13.9542C30.7282 14.0448 30.7488 14.1421 30.7501 14.2406C30.7513 14.3391 30.7331 14.4369 30.6965 14.5283L29.7536 16.8859C29.4676 17.601 29.4676 18.3988 29.7536 19.1139L30.6965 21.4715Z" fill="#024501"/>
</svg>