<svg width="100" height="100" viewBox="0 0 100 100" fill="none" xmlns="http://www.w3.org/2000/svg">
<path fill-rule="evenodd" clip-rule="evenodd" d="M65.1108 6.23253L93.7674 34.8891C102.077 43.1992 102.077 56.8008 93.7674 65.1109L65.1108 93.7675C56.8008 102.078 43.1992 102.078 34.8891 93.7675L6.23253 65.1109C-2.07751 56.8008 -2.07751 43.1992 6.23253 34.8891L34.8891 6.23253C43.1992 -2.07751 56.8008 -2.07751 65.1108 6.23253Z" fill="#B6DCFF"/>
<path fill-rule="evenodd" clip-rule="evenodd" d="M33.5333 43.0334C33.5333 42.6836 33.8169 42.4 34.1667 42.4C34.5165 42.4 34.8 42.1165 34.8 41.7667C34.8 41.4169 34.5165 41.1334 34.1667 41.1334H32.9C31.8507 41.1334 31 40.2827 31 39.2334V34C31 32.3431 32.3431 31 34 31H40.6667C42.3235 31 43.6667 32.3431 43.6667 34V39.2333C43.6667 40.2827 42.816 41.1334 41.7667 41.1334H40.5C40.1502 41.1334 39.8667 41.4169 39.8667 41.7667C39.8667 42.1165 40.1502 42.4 40.5 42.4C40.8498 42.4 41.1334 42.6836 41.1334 43.0334C41.1334 43.3831 40.8498 43.6667 40.5 43.6667H34.1667C33.8169 43.6667 33.5333 43.3831 33.5333 43.0334ZM36.0667 41.7667C36.0667 42.1165 36.3502 42.4 36.7 42.4H37.9667C38.3165 42.4 38.6 42.1165 38.6 41.7667C38.6 41.4169 38.3165 41.1334 37.9667 41.1334H36.7C36.3502 41.1334 36.0667 41.4169 36.0667 41.7667ZM42.4 34.8C42.4 33.4009 41.2658 32.2667 39.8667 32.2667H34.8C33.4009 32.2667 32.2667 33.4009 32.2667 34.8C32.2667 36.1991 33.4009 37.3333 34.8 37.3333H39.8667C41.2658 37.3333 42.4 36.1991 42.4 34.8ZM32.9 38.6C32.5502 38.6 32.2667 38.8836 32.2667 39.2333C32.2667 39.5831 32.5502 39.8667 32.9 39.8667H41.7667C42.1165 39.8667 42.4 39.5831 42.4 39.2333C42.4 38.8836 42.1165 38.6 41.7667 38.6H32.9ZM53.7999 34C53.7999 32.3431 52.4568 31 50.7999 31H49.1999C47.5431 31 46.1999 32.3431 46.1999 34V40.6667C46.1999 42.3235 47.5431 43.6667 49.1999 43.6667H50.7999C52.4568 43.6667 53.7999 42.3235 53.7999 40.6667V34ZM49.9999 32.2667C51.3991 32.2667 52.5333 33.4009 52.5333 34.8V37.3333C52.5333 38.7325 51.3991 39.8667 49.9999 39.8667C48.6008 39.8667 47.4666 38.7325 47.4666 37.3333V34.8C47.4666 33.4009 48.6008 32.2667 49.9999 32.2667ZM49.9904 42.4H48.0999C47.7502 42.4 47.4666 42.1165 47.4666 41.7667C47.4666 41.4169 47.7502 41.1334 48.0999 41.1334H51.8999C52.2497 41.1334 52.5333 41.4169 52.5333 41.7667C52.5333 42.1165 52.2497 42.4 51.8999 42.4H50.0096C50.1741 42.3975 50.3313 42.3311 50.4478 42.2146C50.5666 42.0958 50.6333 41.9347 50.6333 41.7668C50.631 41.5991 50.5654 41.4385 50.4497 41.3171C50.3747 41.2439 50.2831 41.1901 50.1826 41.1603C50.0822 41.1305 49.9761 41.1256 49.8733 41.1461C49.8336 41.153 49.7952 41.1658 49.7593 41.1841C49.7188 41.1981 49.6803 41.2172 49.6447 41.2411C49.6118 41.2646 49.5803 41.29 49.5503 41.3171C49.4343 41.4383 49.3687 41.599 49.3667 41.7668C49.3667 41.9347 49.4334 42.0958 49.5522 42.2146C49.6687 42.3311 49.8259 42.3975 49.9904 42.4ZM58.2671 58.3031C58.6114 58.5069 59.0404 58.5452 59.3866 58.3447C59.8547 58.0735 60.4541 58.2337 60.7245 58.7023L61.6469 60.3013C61.9164 60.7683 61.7564 61.3653 61.2896 61.6351C60.9429 61.8354 60.7631 62.2272 60.7665 62.6276C60.7667 62.6546 60.7667 62.6816 60.7665 62.7086C60.7631 63.1088 60.943 63.5005 61.2896 63.7006C61.7564 63.9702 61.9164 64.567 61.647 65.0339L60.7247 66.6325C60.4542 67.1014 59.8545 67.2617 59.3861 66.9904C59.0402 66.79 58.6114 66.8281 58.2671 67.0313C58.2424 67.0459 58.2176 67.0603 58.1926 67.0744C57.8461 67.2711 57.6 67.6222 57.6 68.0206C57.6 68.5616 57.1615 69.0001 56.6206 69.0001H54.7794C54.2385 69.0001 53.8 68.5616 53.8 68.0206C53.8 67.6222 53.5539 67.2711 53.2074 67.0744C53.0077 66.9611 52.8157 66.8342 52.6329 66.6945C52.6047 66.673 52.5664 66.6702 52.5357 66.6878C52.5141 66.7003 52.499 66.7215 52.4932 66.7458C52.1259 68.2911 48.7357 69.0001 45.5666 69.0001C42.21 69.0001 38.6 68.2071 38.6 66.4667V55.0667C38.6 53.3263 42.21 52.5334 45.5666 52.5334C48.9233 52.5334 52.5333 53.3263 52.5333 55.0667V58.616C52.5333 58.6336 52.5427 58.6498 52.558 58.6585C52.5752 58.6684 52.5967 58.6668 52.6125 58.6546C52.8014 58.5088 53.0002 58.3766 53.2074 58.259C53.5539 58.0623 53.8 57.7113 53.8 57.3128C53.8 56.7719 54.2385 56.3334 54.7794 56.3334H56.6201C57.1613 56.3334 57.6 56.7721 57.6 57.3133C57.6 57.7115 57.8458 58.0625 58.1919 58.2594C58.2171 58.2738 58.2422 58.2883 58.2671 58.3031ZM49.7235 59.6245C50.0491 59.5361 50.321 59.3156 50.4897 59.0234L51.1438 57.8906C51.1557 57.8701 51.182 57.8632 51.2024 57.8752C51.2308 57.8919 51.2667 57.8714 51.2667 57.8384V56.6231C51.2667 56.616 51.259 56.6111 51.2524 56.6136C51.2475 56.6155 51.2426 56.6174 51.2382 56.6196C51.0853 56.6952 50.9221 56.766 50.7486 56.8318C50.723 56.8416 50.6961 56.8508 50.6691 56.8601L50.669 56.8601C50.6471 56.8676 50.6251 56.8752 50.6036 56.8831C50.4693 56.9313 50.3312 56.9775 50.1875 57.0206C50.1191 57.0408 50.05 57.0598 49.9797 57.0788C49.8425 57.1168 49.7017 57.1525 49.5573 57.1859L49.545 57.1888C49.4801 57.2043 49.4157 57.2197 49.3496 57.2334C49.1693 57.2718 48.9848 57.3072 48.796 57.3398L48.6896 57.3594C48.4637 57.3957 48.2336 57.4282 47.9993 57.4569L47.7966 57.4785C47.625 57.4975 47.4527 57.5146 47.2779 57.5285C47.1962 57.5355 47.1145 57.5418 47.0322 57.5475C46.8618 57.5589 46.6908 57.569 46.5192 57.5766L46.2943 57.5868C46.0511 57.595 45.8086 57.6001 45.5666 57.6001C45.3247 57.6001 45.0821 57.595 44.8389 57.5868L44.6141 57.5766C44.4425 57.569 44.2715 57.5589 44.1011 57.5475C44.0188 57.5418 43.9371 57.5355 43.8554 57.5285C43.6806 57.5146 43.5083 57.4975 43.3367 57.4785L43.134 57.4569C42.8993 57.4286 42.6691 57.3961 42.4437 57.3594L42.3373 57.3398C42.149 57.3077 41.9645 57.2722 41.7837 57.2334C41.7176 57.2197 41.6532 57.2043 41.5883 57.1888L41.576 57.1859C41.4316 57.1525 41.2908 57.1168 41.1536 57.0788C41.0833 57.0598 41.0142 57.0408 40.9458 57.0206C40.8021 56.9775 40.664 56.9313 40.5297 56.8831C40.5082 56.8752 40.4862 56.8676 40.4642 56.8601C40.4372 56.8508 40.4103 56.8416 40.3847 56.8318C40.2107 56.7655 40.0476 56.6948 39.8951 56.6196C39.8907 56.6174 39.8858 56.6155 39.8809 56.6136L39.8808 56.6136L39.8808 56.6136C39.8742 56.611 39.8666 56.6159 39.8666 56.623V58.6912C39.8666 58.8077 39.8834 58.927 39.9702 59.0048C40.42 59.4083 42.2851 60.1334 45.5666 60.1334C46.9704 60.1638 48.3703 59.9922 49.7235 59.6245ZM46.238 53.8102C46.0207 53.8038 45.7972 53.8 45.5666 53.8C43.1914 53.8 41.5589 54.1799 40.6659 54.5435C40.0794 54.7823 40.0782 55.3478 40.6649 55.5862C41.3828 55.8778 42.5797 56.1801 44.2563 56.2871C44.6629 56.3131 45.098 56.3277 45.5609 56.3277C45.7889 56.3277 46.015 56.3239 46.2323 56.3175C46.2569 56.3166 46.2815 56.3149 46.3062 56.3133C46.3449 56.3107 46.3836 56.3081 46.4223 56.3081L46.4228 56.308C46.5708 56.3023 46.7188 56.2966 46.8599 56.2878C46.9125 56.2844 46.9621 56.2801 47.0114 56.2759L47.0115 56.2759L47.0117 56.2759L47.0118 56.2759L47.0119 56.2759L47.012 56.2758L47.0122 56.2758C47.0458 56.2729 47.0792 56.2701 47.1132 56.2675L47.222 56.2592L47.2223 56.2592L47.2224 56.2592C47.2987 56.2535 47.3748 56.2478 47.4476 56.2409C47.5018 56.2355 47.5538 56.2294 47.6057 56.2233C47.6388 56.2194 47.6719 56.2155 47.7054 56.2118L47.7558 56.2062L47.756 56.2062L47.7561 56.2062H47.7561H47.7561H47.7561H47.7561H47.7562C47.8375 56.1973 47.9196 56.1883 47.993 56.1789C48.0623 56.1699 48.1274 56.1599 48.1922 56.1498L48.2463 56.1415L48.303 56.133L48.3427 56.1272L48.3429 56.1272C48.3927 56.1199 48.4428 56.1126 48.4952 56.1041C48.5546 56.0945 48.6113 56.0837 48.6678 56.0729L48.7005 56.0667L48.7441 56.0585L48.7709 56.0536L48.8236 56.0441C48.8687 56.036 48.9136 56.028 48.9563 56.0193C49.0281 56.0045 49.0953 55.9889 49.1631 55.9731L49.1632 55.9731L49.1963 55.9654C49.2165 55.9608 49.2371 55.9564 49.2577 55.9519L49.2581 55.9518C49.2974 55.9432 49.3367 55.9346 49.3736 55.9255C49.4433 55.9084 49.5082 55.8907 49.5733 55.873L49.6016 55.8654C49.6194 55.8606 49.6376 55.8558 49.6559 55.8511L49.6559 55.8511L49.656 55.8511L49.656 55.8511L49.656 55.8511C49.6883 55.8427 49.7208 55.8344 49.7511 55.8255C49.8099 55.8099 49.8643 55.7927 49.9187 55.7755L49.9614 55.7621L50.0028 55.7495C50.0323 55.7407 50.0613 55.7319 50.088 55.7228C50.1358 55.7072 50.1792 55.6913 50.2228 55.6752L50.278 55.6551C50.2911 55.6502 50.3047 55.6454 50.3183 55.6405L50.3184 55.6405C50.3402 55.6327 50.362 55.6249 50.3819 55.6171C50.4237 55.6007 50.4619 55.5844 50.4996 55.5682L50.544 55.5493L50.6333 55.5113C50.6819 55.4917 50.7236 55.4703 50.7665 55.4482L50.7665 55.4482L50.767 55.448C50.7775 55.4426 50.7888 55.4371 50.8001 55.4317L50.8002 55.4317L50.8199 55.4221C50.8281 55.4181 50.8361 55.414 50.8436 55.41C50.8719 55.3945 50.8947 55.3802 50.9169 55.3663L50.9301 55.3581L50.9487 55.3466L50.97 55.3343C50.9849 55.3258 50.9996 55.3174 51.0121 55.3093C51.0405 55.2905 51.0712 55.2671 51.0877 55.2546L51.09 55.2529C51.0956 55.2486 51.1007 55.245 51.1059 55.2413C51.1154 55.2346 51.125 55.2278 51.1381 55.2168C51.1573 55.2006 51.1749 55.182 51.1864 55.1699L51.1881 55.168L51.1964 55.1597L51.2026 55.1536L51.2026 55.1536C51.21 55.1464 51.2173 55.1394 51.223 55.1326C51.2321 55.1202 51.2401 55.1071 51.247 55.0933C51.2593 55.0739 51.2598 55.0496 51.248 55.0299C51.0954 54.774 50.1771 54.2985 48.4914 54.0185L48.4407 54.0116L48.3433 53.9977L48.2846 53.9891L48.2846 53.9891C48.2846 53.9891 48.2845 53.9891 48.2845 53.9891C48.2845 53.9891 48.2845 53.9891 48.2845 53.9891C48.1898 53.9753 48.0931 53.9613 47.993 53.9482C47.9628 53.9441 47.9292 53.9405 47.8951 53.9368L47.895 53.9368L47.8949 53.9368L47.8948 53.9368C47.8667 53.9338 47.8383 53.9308 47.8112 53.9273L47.7382 53.9187L47.7381 53.9187C47.6447 53.9075 47.5513 53.8964 47.4508 53.8868C47.3977 53.8817 47.3397 53.8773 47.2814 53.8729L47.2377 53.8696L47.1753 53.8646C47.1413 53.8619 47.1076 53.8591 47.0739 53.8562L47.0738 53.8562C47.0053 53.8504 46.9367 53.8446 46.865 53.8399C46.7565 53.8331 46.6431 53.8284 46.5297 53.8238H46.5296L46.5296 53.8238L46.5295 53.8238L46.5294 53.8238L46.5293 53.8238L46.5292 53.8238L46.5288 53.8237L46.4609 53.8209C46.4329 53.8198 46.4054 53.818 46.3781 53.8162C46.332 53.8132 46.2861 53.8102 46.238 53.8102ZM45.5666 61.4001C44.292 61.4001 42.9816 61.2863 41.8461 61.0488C40.909 60.8528 39.8666 61.5342 39.8666 62.4916C39.8666 62.6078 39.8834 62.7269 39.9699 62.8046C40.4193 63.208 42.2845 63.9334 45.5666 63.9334C47.2734 63.9999 48.9761 63.728 50.5767 63.1337C50.6289 63.1143 50.6614 63.0622 50.6559 63.0067C50.6446 62.8927 50.6333 62.7785 50.6333 62.6667C50.6333 62.6531 50.6334 62.6394 50.6335 62.6257C50.6374 62.2257 50.4573 61.8344 50.1108 61.6343L49.2975 61.1647C49.2797 61.1544 49.2736 61.1317 49.2839 61.1139C49.2999 61.0862 49.2758 61.0526 49.2444 61.0587C48.0329 61.2939 46.8009 61.4083 45.5666 61.4001ZM41.8433 64.8488C40.9066 64.6533 39.8666 65.3345 39.8666 66.2914C39.8666 66.4077 39.8834 66.527 39.97 66.6047C40.4197 67.0081 42.2848 67.7334 45.5666 67.7334C47.2397 67.7334 48.5429 67.5449 49.4786 67.3059C50.2173 67.1172 50.4756 66.2844 50.0945 65.6239C49.803 65.1187 49.2182 64.8659 48.6427 64.9608C47.6267 65.1283 46.5976 65.2085 45.5666 65.2001C44.2919 65.2001 42.9801 65.086 41.8433 64.8488ZM59.6927 64.2406C59.4505 64.1007 59.3287 63.8186 59.393 63.5464C59.5357 62.9686 59.5357 62.3648 59.393 61.787C59.3287 61.5148 59.4504 61.2327 59.6926 61.0927L59.855 60.9988C60.1578 60.8237 60.2614 60.4364 60.0865 60.1335C59.9116 59.8305 59.5242 59.7267 59.2212 59.9016L59.0577 59.9959C58.8153 60.1358 58.51 60.1003 58.3062 59.9086C57.8752 59.5 57.3547 59.1979 56.7862 59.0263C56.5176 58.9467 56.3333 58.6999 56.3333 58.4197V58.2334C56.3333 57.8836 56.0498 57.6001 55.7 57.6001C55.3502 57.6001 55.0667 57.8836 55.0667 58.2334V58.4197C55.0667 58.6999 54.8824 58.9467 54.6138 59.0263C54.0453 59.1979 53.5248 59.5 53.0938 59.9086C52.89 60.1003 52.5847 60.1358 52.3423 59.9959L52.1787 59.9015C51.8757 59.7267 51.4884 59.8305 51.3135 60.1334C51.1386 60.4363 51.2424 60.8237 51.5453 60.9986L51.7086 61.0929C51.9508 61.2327 52.0726 61.5149 52.0083 61.787C51.8656 62.3648 51.8656 62.9686 52.0083 63.5464C52.0726 63.8186 51.9508 64.1007 51.7086 64.2406L51.5453 64.3349C51.2424 64.5098 51.1386 64.8972 51.3135 65.2001C51.4884 65.503 51.8757 65.6068 52.1787 65.432L52.3423 65.3375C52.5847 65.1976 52.89 65.2332 53.0938 65.4249C53.5248 65.8335 54.0453 66.1356 54.6138 66.3071C54.8824 66.3868 55.0667 66.6336 55.0667 66.9137V67.1001C55.0667 67.4499 55.3502 67.7334 55.7 67.7334C56.0498 67.7334 56.3333 67.4499 56.3333 67.1001V66.9149C56.3333 66.6341 56.5181 66.3868 56.7874 66.3071C57.3559 66.1356 57.8765 65.8335 58.3074 65.4249C58.5112 65.2332 58.8166 65.1976 59.0589 65.3375L59.2226 65.432C59.5255 65.6068 59.9128 65.503 60.0877 65.2001C60.2626 64.8972 60.1589 64.5098 59.856 64.3349L59.6927 64.2406ZM54.2924 60.5603C54.7091 60.2819 55.1988 60.1333 55.6999 60.1333C56.3718 60.1333 57.0161 60.4002 57.4912 60.8753C57.9663 61.3504 58.2332 61.9948 58.2332 62.6667C58.2332 63.1677 58.0847 63.6575 57.8063 64.0741C57.5279 64.4907 57.1323 64.8154 56.6694 65.0072C56.2065 65.1989 55.6971 65.2491 55.2057 65.1513C54.7142 65.0536 54.2628 64.8123 53.9086 64.458C53.5543 64.1037 53.313 63.6523 53.2152 63.1609C53.1175 62.6695 53.1677 62.1601 53.3594 61.6972C53.5511 61.2343 53.8758 60.8387 54.2924 60.5603ZM54.9962 63.7199C55.2045 63.8591 55.4494 63.9334 55.6999 63.9334C56.0358 63.9334 56.358 63.7999 56.5956 63.5624C56.8331 63.3248 56.9666 63.0026 56.9666 62.6667C56.9666 62.4162 56.8923 62.1713 56.7531 61.963C56.6139 61.7547 56.4161 61.5923 56.1846 61.4964C55.9532 61.4006 55.6985 61.3755 55.4528 61.4244C55.2071 61.4732 54.9814 61.5939 54.8042 61.771C54.6271 61.9482 54.5064 62.1739 54.4576 62.4196C54.4087 62.6653 54.4338 62.92 54.5296 63.1514C54.6255 63.3829 54.7879 63.5807 54.9962 63.7199ZM37.9666 45.5667C37.9666 45.217 37.683 44.9334 37.3333 44.9334C36.9835 44.9334 36.6999 45.217 36.6999 45.5667V46.8334C36.6999 47.8828 37.5506 48.7334 38.5999 48.7334H48.1C48.7995 48.7334 49.3666 49.3005 49.3666 50.0001V50.6334C49.3666 50.9832 49.6502 51.2668 50 51.2668C50.3497 51.2668 50.6333 50.9832 50.6333 50.6334V50.0001C50.6333 49.3005 51.2004 48.7334 51.9 48.7334H61.4C62.4493 48.7334 63.3 47.8828 63.3 46.8334V45.5667C63.3 45.217 63.0164 44.9334 62.6667 44.9334C62.3169 44.9334 62.0333 45.217 62.0333 45.5667V46.2001C62.0333 46.8996 61.4662 47.4667 60.7666 47.4667H51.9C51.2004 47.4667 50.6333 46.8996 50.6333 46.2001V45.5667C50.6333 45.217 50.3497 44.9334 50 44.9334C49.6502 44.9334 49.3666 45.217 49.3666 45.5667V46.2001C49.3666 46.8996 48.7995 47.4667 48.1 47.4667H39.2333C38.5337 47.4667 37.9666 46.8996 37.9666 46.2001V45.5667ZM56.3334 40.6667C56.3334 42.3235 57.6766 43.6667 59.3334 43.6667H66.0001C67.657 43.6667 69.0001 42.3235 69.0001 40.6667V34C69.0001 32.3431 67.657 31 66.0001 31H59.3334C57.6766 31 56.3334 32.3431 56.3334 34V40.6667ZM67.7335 39.4C67.7335 41.0569 66.3903 42.4 64.7335 42.4H60.6001C58.9433 42.4 57.6001 41.0569 57.6001 39.4V39.0667C57.6001 37.4098 58.9433 36.0667 60.6001 36.0667H64.7335C66.3903 36.0667 67.7335 37.4098 67.7335 39.0667V39.4ZM57.6001 33.5333C57.6001 32.8338 58.1672 32.2667 58.8668 32.2667H66.4668C67.1664 32.2667 67.7335 32.8338 67.7335 33.5333C67.7335 34.2329 67.1664 34.8 66.4668 34.8H58.8668C58.1672 34.8 57.6001 34.2329 57.6001 33.5333ZM58.9914 32.9136C59.072 32.9259 59.1506 32.9581 59.2151 33.0079C59.2514 33.0297 59.2853 33.0552 59.3165 33.0839C59.4322 33.2052 59.4978 33.3658 59.5001 33.5335C59.5007 33.617 59.4848 33.6997 59.4531 33.7769C59.4215 33.8541 59.3748 33.9242 59.3158 33.9832C59.2541 34.0389 59.1835 34.0839 59.1068 34.1162C59.031 34.1496 58.949 34.1669 58.8662 34.1669C58.7833 34.1669 58.7013 34.1496 58.6255 34.1162C58.5488 34.0841 58.4781 34.0391 58.4165 33.9832C58.3279 33.8946 58.2678 33.7815 58.2441 33.6584C58.2204 33.5354 58.2341 33.408 58.2835 33.2929C58.3141 33.2153 58.3592 33.1444 58.4165 33.0839C58.4902 33.0108 58.5808 32.9571 58.6802 32.9272C58.7796 32.8974 58.8847 32.8925 58.9865 32.9129C58.9881 32.9131 58.9898 32.9133 58.9914 32.9136ZM61.2164 33.0836C61.0939 32.9706 60.9333 32.9078 60.7667 32.9078C60.6 32.9078 60.4395 32.9706 60.317 33.0836C60.2598 33.1441 60.2146 33.2151 60.184 33.2926C60.1516 33.3687 60.1344 33.4505 60.1334 33.5332C60.1312 33.6163 60.1485 33.6988 60.184 33.7739C60.2163 33.8506 60.2613 33.9212 60.317 33.9829C60.4056 34.0715 60.5188 34.1316 60.6418 34.1553C60.7649 34.179 60.8922 34.1653 61.0074 34.1159C61.084 34.0836 61.1547 34.0387 61.2164 33.9829C61.2721 33.9212 61.3171 33.8506 61.3494 33.7739C61.3828 33.6981 61.4001 33.6161 61.4001 33.5332C61.4001 33.4504 61.3828 33.3684 61.3494 33.2926C61.3172 33.2159 61.2723 33.1452 61.2164 33.0836ZM62.9074 32.9506C62.984 32.9829 63.0546 33.0279 63.1163 33.0836C63.175 33.1431 63.2203 33.2144 63.2493 33.2926C63.2828 33.3685 63.3 33.4504 63.3 33.5333C63.3 33.6162 63.2828 33.6981 63.2493 33.774C63.2171 33.8506 63.1721 33.9213 63.1163 33.983C62.9956 34.0996 62.8346 34.1654 62.6667 34.1666C62.5839 34.1656 62.5022 34.1484 62.426 34.116C62.3493 34.0838 62.2786 34.0389 62.217 33.983C62.1613 33.9213 62.1163 33.8506 62.084 33.774C62.0506 33.6981 62.0334 33.6162 62.0334 33.5333C62.0334 33.4504 62.0506 33.3685 62.084 33.2926C62.1131 33.2144 62.1584 33.1431 62.217 33.0836C62.247 33.0566 62.2785 33.0312 62.3114 33.0076C62.347 32.9838 62.3855 32.9646 62.426 32.9506C62.4619 32.9323 62.5003 32.9195 62.54 32.9126C62.6634 32.8864 62.7919 32.8997 62.9074 32.9506Z" fill="#07325A"/>
</svg>
