<svg width="100" height="100" viewBox="0 0 100 100" fill="none" xmlns="http://www.w3.org/2000/svg">
<path fill-rule="evenodd" clip-rule="evenodd" d="M65.1108 6.23253L93.7674 34.8891C102.077 43.1992 102.077 56.8008 93.7674 65.1109L65.1108 93.7675C56.8008 102.078 43.1992 102.078 34.8891 93.7675L6.23253 65.1109C-2.07751 56.8008 -2.07751 43.1992 6.23253 34.8891L34.8891 6.23253C43.1992 -2.07751 56.8008 -2.07751 65.1108 6.23253Z" fill="#E3C9FF"/>
<path d="M54.2188 56.3281C53.8307 56.3281 53.5156 56.6432 53.5156 57.0312C53.5156 57.4193 53.8307 57.7344 54.2188 57.7344C54.6068 57.7344 54.9219 57.4193 54.9219 57.0312C54.9219 56.6432 54.6068 56.3281 54.2188 56.3281Z" fill="#5710A4"/>
<path d="M66.0938 30H33.9062C31.7523 30 30 31.7523 30 33.9062V57.8125C30 59.9664 31.7523 61.7188 33.9062 61.7188H46.0938V65.3125H45.3125C44.2694 65.3125 43.2889 65.719 42.5507 66.4569C41.8127 67.1951 41.4062 68.1757 41.4062 69.2188C41.4062 69.6503 41.756 70 42.1875 70H57.8125C58.244 70 58.5938 69.6503 58.5938 69.2188C58.5938 67.0648 56.8414 65.3125 54.6875 65.3125H53.9062V61.7188H66.0938C68.2477 61.7188 70 59.9664 70 57.8125V33.9062C70 31.7523 68.2477 30 66.0938 30ZM33.9062 31.5625H66.0938C67.3862 31.5625 68.4375 32.6138 68.4375 33.9062V53.9062H64.8438V35.9375C64.8438 35.506 64.494 35.1562 64.0625 35.1562H57.8125C57.381 35.1562 57.0312 35.506 57.0312 35.9375V53.9062H53.1207C53.1125 53.0981 53.0914 52.3016 53.0579 51.5289C52.9211 48.3472 52.6096 46.2158 52.4475 45.2783C54.0594 44.0915 54.4995 41.8918 53.5141 40.1828L50.8063 35.4929C50.6665 35.2512 50.4086 35.1022 50.1297 35.1022C49.8505 35.1022 49.5926 35.2512 49.4531 35.4929L46.7441 40.1831C45.8151 41.7944 46.1444 43.8815 47.6038 45.1132C47.4347 46.048 47.0935 48.2556 46.9452 51.5274C46.9101 52.3083 46.8878 53.1055 46.8793 53.9062H42.9688V42.1875C42.9688 42.0636 42.9395 41.9507 42.8915 41.8503C42.8894 41.8463 42.8882 41.842 42.8864 41.8381L39.7614 35.5881C39.6289 35.3235 39.3585 35.1562 39.0625 35.1562C38.7665 35.1562 38.4961 35.3235 38.3636 35.5881L35.2386 41.8381C35.2368 41.842 35.2356 41.8463 35.2338 41.8503C35.1849 41.9516 35.1562 42.0663 35.1562 42.1875V53.9062H31.5625V33.9062C31.5625 32.6138 32.6138 31.5625 33.9062 31.5625ZM58.5938 53.9062V36.7188H63.2812V38.2812H62.5C62.0685 38.2812 61.7188 38.631 61.7188 39.0625C61.7188 39.494 62.0685 39.8438 62.5 39.8438H63.2812V42.1875H62.5C62.0685 42.1875 61.7188 42.5372 61.7188 42.9688C61.7188 43.4003 62.0685 43.75 62.5 43.75H63.2812V46.0938H62.5C62.0685 46.0938 61.7188 46.4435 61.7188 46.875C61.7188 47.3065 62.0685 47.6562 62.5 47.6562H63.2812V50.7812H62.5C62.0685 50.7812 61.7188 51.131 61.7188 51.5625C61.7188 51.994 62.0685 52.3438 62.5 52.3438H63.2812V53.9062H58.5938ZM50.1297 46.0397C50.4135 46.0397 50.6961 46.0071 50.9726 45.946C51.1176 46.8753 51.3306 48.5196 51.4566 50.7812H48.5486C48.6807 48.5211 48.9038 46.8512 49.0579 45.8905C49.404 45.9891 49.7644 46.0397 50.1297 46.0397ZM50.1297 44.4772C48.3441 44.4772 47.1927 42.5339 48.0975 40.9641L50.1297 37.446L52.1606 40.9637C53.0621 42.5272 51.9266 44.4772 50.1297 44.4772ZM48.4769 52.3438H51.5253C51.5417 52.8571 51.553 53.3792 51.5585 53.9062H48.4418C48.4476 53.3826 48.4595 52.8604 48.4769 52.3438ZM39.8438 53.9062V42.9688H41.4062V53.9062H39.8438ZM36.7188 53.9062V42.9688H38.2812V53.9062H36.7188ZM37.2015 41.4062L39.0625 37.6843L40.9235 41.4062H37.2015ZM56.8973 68.4375H43.1018C43.2166 68.1119 43.4039 67.8134 43.6554 67.5616C44.0985 67.1188 44.6869 66.875 45.3125 66.875H54.6875C55.7062 66.875 56.575 67.5281 56.8973 68.4375ZM52.3438 65.3125H47.6562V61.7188H52.3438V65.3125ZM66.0938 60.1562H33.9062C32.6138 60.1562 31.5625 59.1049 31.5625 57.8125V55.4688H68.4375V57.8125C68.4375 59.1049 67.3862 60.1562 66.0938 60.1562Z" fill="#5710A4"/>
<path d="M51.4062 56.3281H47.1875C46.7991 56.3281 46.4844 56.6429 46.4844 57.0312C46.4844 57.4196 46.7991 57.7344 47.1875 57.7344H51.4062C51.7946 57.7344 52.1094 57.4196 52.1094 57.0312C52.1094 56.6429 51.7946 56.3281 51.4062 56.3281Z" fill="#5710A4"/>
</svg>
