<svg width="38" height="40" viewBox="0 0 38 40" fill="none" xmlns="http://www.w3.org/2000/svg">
<path d="M33.1487 0C33.1487 0 33.1487 0 33.1487 0H31.4289C30.6729 0 30.6729 1.17204 31.4289 1.17204H33.1487C34.9247 1.17204 36.3697 2.61178 36.3697 4.38141V17.9437C36.3697 19.7134 34.9248 21.1531 33.1487 21.1531H31.1981C31.0695 21.1531 30.9444 21.1955 30.8421 21.2737L29.0678 22.6309C28.3291 23.1959 27.263 22.6692 27.263 21.7391C27.263 21.4155 27.0007 21.1531 26.677 21.1531H19.5447C18.4846 21.1531 17.9042 20.0557 17.9042 18.9956V14.1274C17.9042 13.4655 17.7231 12.845 17.4077 12.3126C16.9 11.4553 16.3236 10.5654 16.3236 9.56907V4.38141C16.3236 2.61178 17.7686 1.17204 19.5447 1.17204H27.7565C28.5124 1.17204 28.5124 0 27.7565 0H19.5447C17.1223 0 15.1515 1.96552 15.1515 4.38141V9.80402C15.1515 10.2342 14.7461 10.5484 14.316 10.5484H3.58817C1.60968 10.5484 0 12.1539 0 14.1274V15.3928C0 16.1487 1.17204 16.1487 1.17204 15.3928V14.1274C1.17204 12.8002 2.25587 11.7204 3.58817 11.7204H14.316C15.6483 11.7204 16.7322 12.8002 16.7322 14.1274V20.9392C16.7252 20.9909 16.7255 21.043 16.7322 21.0944V24.8224C16.7322 24.9472 16.6256 25.0424 16.5008 25.0424H15.5126C14.2416 25.0424 13.1724 25.918 12.8775 27.0961C12.8512 27.2012 12.7745 27.2854 12.6887 27.3515L11.3023 28.422C10.7985 28.8109 10.0676 28.4519 10.0676 27.8154C10.0676 27.4918 9.80531 27.2294 9.48159 27.2294H3.58817C2.25587 27.2294 1.17204 26.1496 1.17204 24.8224V18.909C1.17204 18.1531 0 18.1531 0 18.909V24.8225C0 26.796 1.60968 28.4015 3.58817 28.4015H6.72893C7.92558 28.4015 8.89565 29.3716 8.89565 30.5682C8.89565 31.0383 9.46644 31.3203 9.83985 31.0321C11.046 30.1008 12.7961 30.9606 12.7961 32.4845V35.3423C12.7961 36.8366 14.0148 38.0523 15.5127 38.0523H17.7415C18.4967 38.0523 19.1089 38.6645 19.1089 39.4197C19.1089 39.8896 19.6797 40.1719 20.053 39.8836L21.8703 38.4805C22.2299 38.2029 22.6714 38.0523 23.1257 38.0523C24.6235 38.0523 25.8422 36.8365 25.8422 35.3423V34.3018C25.8422 33.5459 24.6702 33.5459 24.6702 34.3018V35.3423C24.6702 36.1903 23.9773 36.8802 23.1257 36.8802H22.225C22.0954 36.8802 21.9694 36.9232 21.8669 37.0023L20.883 37.762C20.6373 37.9516 20.2809 37.7765 20.2809 37.4662C20.2809 37.1425 20.0186 36.8801 19.6949 36.8801H15.5126C14.661 36.8801 13.9681 36.1902 13.9681 35.3422V27.7525C13.9681 26.9044 14.6609 26.2145 15.5126 26.2145H23.1257C23.9773 26.2145 24.6702 26.9045 24.6702 27.7525V30.6294C24.6702 31.3853 25.8422 31.3853 25.8422 30.6294V27.7526C25.8422 26.2582 24.6235 25.0426 23.1257 25.0426H19.1659C18.4782 25.0426 17.901 24.462 17.9022 23.7743C17.9022 23.7465 17.9023 23.7185 17.9023 23.6905C17.9036 22.8858 18.7401 22.3252 19.5448 22.3252H23.2187C24.805 22.3252 26.091 23.6112 26.091 25.1975C26.091 25.6664 26.6594 25.9487 27.0331 25.663L30.5899 22.9424C31.1132 22.5421 31.7537 22.3252 32.4125 22.3252H33.1487C35.571 22.3252 37.5418 20.3597 37.5418 17.9437V4.38141C37.5417 1.96552 35.571 0 33.1487 0C33.1487 0 33.1487 0 33.1487 0Z" fill="#54050E"/>
<path d="M-nan -nanL27.811 4.33021C27.0669 4.14026 26.3087 4.72816 26.3087 5.49702C26.3087 6.33706 26.0026 7.14663 25.4471 7.77617L24.2181 9.16685C24.0242 9.38634 23.6345 9.33663 23.3416 9.33663H20.1895C19.8658 9.33663 19.6035 9.59901 19.6035 9.92265V17.0147C19.6035 17.3383 19.8658 17.6007 20.1895 17.6007H23.3416C23.6975 17.6007 24.1414 17.425 24.4713 17.5587C24.9557 17.755 25.4768 17.8586 26.0043 17.8586H31.5748C32.426 17.8586 33.1282 17.12 33.0883 16.271C33.0705 15.895 33.0899 10.8464 33.0899 10.7343C33.0899 9.89882 32.4102 9.21904 31.5765 9.21904L28.988 9.21129C28.8415 9.21085 28.7427 9.06134 28.7997 8.92634C29.3478 7.62826 29.2576 6.12305 28.5585 4.89967C28.3954 4.61385 28.1298 4.41171 27.811 4.33021C27.4921 4.24879 28.1298 4.41171 27.811 4.33021C27.067 4.14026 28.1298 4.41171 27.811 4.33021L-nan -nanZM22.7555 15.4387C22.7555 15.9854 22.3123 16.4287 21.7655 16.4287C21.2188 16.4287 20.7756 15.9854 20.7756 15.4387V11.4987C20.7756 10.9519 21.2188 10.5087 21.7655 10.5087C22.3123 10.5087 22.7555 10.9519 22.7555 11.4987V15.4387ZM31.5748 10.391C31.764 10.391 31.9179 10.5449 31.9179 10.7342C31.9179 10.8457 31.9168 11.1483 31.9152 11.5586C31.9065 13.8239 31.9007 15.9694 31.9175 16.326C31.9236 16.4547 31.861 16.5405 31.8232 16.5802C31.7577 16.6488 31.6695 16.6865 31.5748 16.6865H26.0043C25.3403 16.6865 24.6904 16.4564 24.1742 16.0386C24.0182 15.9123 23.9276 15.7223 23.9276 15.5215V12.4011C23.9276 11.6694 24.195 10.9629 24.6796 10.4145L26.3257 8.55191C27.0705 7.70773 27.4807 6.62281 27.4807 5.49694C27.4807 5.46381 27.526 5.45522 27.541 5.481C28.06 6.38918 28.1268 7.5066 27.72 8.47026L27.2575 9.56565C27.1812 9.74638 27.2004 9.9532 27.3084 10.1168C27.4167 10.2804 27.5995 10.379 27.7956 10.3797L31.5748 10.391Z" fill="#54050E"/>
<path d="M5.01791 20.3546C4.69419 20.3546 4.43188 20.6169 4.43188 20.9406C4.43188 21.2642 4.69419 21.5266 5.01791 21.5266C5.92259 21.5266 6.61113 22.3383 6.46356 23.2309L6.42264 23.4784C6.36982 23.7976 6.58594 24.0993 6.90521 24.1521C6.93763 24.1575 6.96975 24.1601 7.00147 24.1601C7.28307 24.1601 7.53147 23.9566 7.57898 23.6696L7.83676 22.1103C7.89242 21.7736 8.18355 21.5267 8.5248 21.5267C8.95538 21.5267 9.28309 21.913 9.21285 22.3378L9.02426 23.4785C8.97144 23.7977 9.18757 24.0994 9.50683 24.1522C9.53926 24.1576 9.57137 24.1602 9.60309 24.1602C9.8847 24.1602 10.1331 23.9566 10.1806 23.6697C10.385 22.4335 11.4539 21.5268 12.7068 21.5268H12.8862C13.2099 21.5268 13.4722 21.2644 13.4722 20.9407C13.4722 20.6171 13.2099 20.3547 12.8862 20.3547H11.5713C11.13 20.3547 10.7941 19.9587 10.8661 19.5233C10.9232 19.1783 11.2216 18.9251 11.5713 18.9251H12.8862C13.2099 18.9251 13.4722 18.6628 13.4722 18.3391C13.4722 18.0155 13.2099 17.7531 12.8862 17.7531C11.9815 17.7531 11.293 16.9414 11.4406 16.0488L11.4815 15.8013C11.5343 15.4821 11.3182 15.1804 10.9989 15.1276C10.6793 15.0746 10.378 15.2909 10.3252 15.6101L10.0674 17.1694C10.0117 17.5061 9.72058 17.753 9.37932 17.753C8.94875 17.753 8.62104 17.3667 8.69128 16.9419L8.87987 15.8013C8.93269 15.482 8.71656 15.1803 8.3973 15.1275C8.07725 15.0745 7.77643 15.2908 7.72353 15.6101C7.51916 16.8462 6.45024 17.7529 5.19729 17.7529H5.01791C4.69419 17.7529 4.43188 18.0153 4.43188 18.339C4.43188 18.6626 4.69419 18.925 5.01791 18.925H6.33281C6.77413 18.925 7.11001 19.321 7.03802 19.7564C6.98097 20.1015 6.68257 20.3546 6.33281 20.3546H5.01791ZM8.26697 19.5086C8.32263 19.1719 8.61376 18.925 8.95502 18.925C9.3856 18.925 9.71331 19.3113 9.64307 19.7361L9.63732 19.7709C9.58165 20.1076 9.29052 20.3546 8.94927 20.3546C8.51868 20.3546 8.19098 19.9682 8.26121 19.5434L8.26697 19.5086Z" fill="#54050E"/>
</svg>
