<svg width="100" height="100" viewBox="0 0 100 100" fill="none" xmlns="http://www.w3.org/2000/svg">
<path fill-rule="evenodd" clip-rule="evenodd" d="M65.1108 6.23253L93.7674 34.8891C102.077 43.1992 102.077 56.8008 93.7674 65.1109L65.1108 93.7675C56.8008 102.078 43.1992 102.078 34.8891 93.7675L6.23253 65.1109C-2.07751 56.8008 -2.07751 43.1992 6.23253 34.8891L34.8891 6.23253C43.1992 -2.07751 56.8008 -2.07751 65.1108 6.23253Z" fill="#FFC9FB"/>
<path d="M36.6962 34.3199C36.6962 33.1637 35.7559 32.2234 34.5997 32.2234C33.4435 32.2234 32.5028 33.1637 32.5028 34.3199C32.5028 35.4761 33.4435 36.4165 34.5997 36.4165C35.7556 36.4165 36.6962 35.4761 36.6962 34.3199ZM33.7531 34.3199C33.7531 33.8533 34.1331 33.4737 34.5997 33.4737C35.0663 33.4737 35.4459 33.8533 35.4459 34.3199C35.4459 34.7865 35.0663 35.1662 34.5997 35.1662C34.1331 35.1662 33.7531 34.7865 33.7531 34.3199Z" fill="#55004F"/>
<path d="M39.5807 36.4165C40.7369 36.4165 41.6776 35.4761 41.6776 34.3199C41.6776 33.1637 40.7369 32.2234 39.5807 32.2234C38.4245 32.2234 37.4842 33.1637 37.4842 34.3199C37.4842 35.4761 38.4245 36.4165 39.5807 36.4165ZM39.5807 33.4737C40.0476 33.4737 40.4273 33.8533 40.4273 34.3199C40.4273 34.7865 40.0473 35.1662 39.5807 35.1662C39.1141 35.1662 38.7345 34.7865 38.7345 34.3199C38.7345 33.8533 39.1141 33.4737 39.5807 33.4737Z" fill="#55004F"/>
<path d="M44.5621 36.4165C45.718 36.4165 46.6586 35.4761 46.6586 34.3199C46.6586 33.1637 45.718 32.2234 44.5621 32.2234C43.4059 32.2234 42.4652 33.1637 42.4652 34.3199C42.4652 35.4761 43.4059 36.4165 44.5621 36.4165ZM44.5621 33.4737C45.0287 33.4737 45.4083 33.8533 45.4083 34.3199C45.4083 34.7865 45.0287 35.1662 44.5621 35.1662C44.0952 35.1662 43.7155 34.7865 43.7155 34.3199C43.7155 33.8533 44.0952 33.4737 44.5621 33.4737Z" fill="#55004F"/>
<path d="M51.4798 34.9451H66.7055C67.051 34.9451 67.3306 34.6654 67.3306 34.32C67.3306 33.9745 67.051 33.6948 66.7055 33.6948H51.4798C51.1343 33.6948 50.8546 33.9745 50.8546 34.32C50.8546 34.6654 51.1343 34.9451 51.4798 34.9451Z" fill="#55004F"/>
<path d="M69.0687 29.9663H31.6123C30.1731 29.9663 29.002 31.1372 29.002 32.5766V67.356C29.002 68.7951 30.1731 69.9663 31.6123 69.9663H69.0687C70.5079 69.9663 71.679 68.7951 71.679 67.356V32.5766C71.679 31.1372 70.5079 29.9663 69.0687 29.9663ZM69.0687 68.716H31.6123C30.8624 68.716 30.2523 68.1058 30.2523 67.356V38.6735H33.7372C34.0826 38.6735 34.3623 38.3938 34.3623 38.0484C34.3623 37.7032 34.0826 37.4232 33.7372 37.4232H30.2523V32.5766C30.2523 31.8268 30.8624 31.2166 31.6123 31.2166H69.0687C69.8186 31.2166 70.4287 31.8268 70.4287 32.5766V37.4232H36.0711C35.7259 37.4232 35.4459 37.7032 35.4459 38.0484C35.4459 38.3938 35.7259 38.6735 36.0711 38.6735H70.4287V67.356C70.4287 68.1058 69.8186 68.716 69.0687 68.716Z" fill="#55004F"/>
<path d="M64.3774 40.2322H58.9139C57.8224 40.2322 56.9345 41.1201 56.9345 42.2115V42.9679C56.2934 43.1714 55.7865 43.6787 55.5836 44.3201L45.8192 44.3569C45.6157 43.7174 45.1094 43.2117 44.4696 43.0086V42.2525C44.4696 41.1611 43.5817 40.2732 42.4903 40.2732H37.027C35.9356 40.2732 35.0477 41.1611 35.0477 42.2525V47.7158C35.0477 48.8072 35.9356 49.6948 37.027 49.6948H37.7831C37.9862 50.3356 38.4929 50.8422 39.1336 51.0454V53.5997C39.1336 54.9177 40.2058 55.9899 41.5239 55.9899H47.4127C47.6159 56.6304 48.1225 57.137 48.7629 57.3402V58.1395C48.7629 59.2072 49.6316 60.0759 50.6993 60.0759H51.5462C51.7259 60.7023 52.1941 61.2077 52.7971 61.4392C52.6174 61.7973 52.2469 62.0435 51.82 62.0435H45.1426C44.9808 61.3229 44.4426 60.7434 43.7464 60.5223V59.7659C43.7464 58.6745 42.8585 57.7866 41.7671 57.7866H36.3035C35.2124 57.7866 34.3245 58.6745 34.3245 59.7659V65.2295C34.3245 66.3209 35.2124 67.2085 36.3035 67.2085H41.7671C42.8585 67.2085 43.7464 66.3209 43.7464 65.2295V64.4731C44.3286 64.2882 44.8004 63.8529 45.0338 63.2938H51.82C52.9231 63.2938 53.8508 62.5273 54.0982 61.4991C54.7872 61.3054 55.3319 60.7632 55.5296 60.0759H56.2485C57.3165 60.0759 58.1848 59.2072 58.1848 58.1395V56.4949C58.1848 56.1495 57.9052 55.8698 57.5597 55.8698C57.2146 55.8698 56.9345 56.1495 56.9345 56.4949V58.1395C56.9345 58.5179 56.6268 58.8256 56.2485 58.8256H55.4954C54.8455 56.9605 52.2218 56.9752 51.58 58.8256H50.6993C50.3209 58.8256 50.0133 58.5179 50.0133 58.1395V57.3402C50.1467 57.2979 50.2728 57.2435 50.3958 57.1748C50.4046 57.166 51.4599 56.633 51.4599 55.3648C51.4599 54.4664 50.8777 53.6651 50.0133 53.3894V52.5903C50.0133 52.212 50.3209 51.9043 50.6993 51.9043H56.2485C56.6268 51.9043 56.9345 52.212 56.9345 52.5903V54.2349C56.9345 54.5801 57.2146 54.8601 57.5597 54.8601C57.9052 54.8601 58.1848 54.5801 58.1848 54.2349V52.5903C58.1848 51.5227 57.3161 50.654 56.2485 50.654H50.6993C49.6316 50.654 48.7629 51.5227 48.7629 52.5903V53.3894C48.1225 53.5925 47.6159 54.0992 47.4127 54.7396H41.5242C40.8955 54.7396 40.3839 54.2281 40.3839 53.5997V51.0454C41.0244 50.8422 41.531 50.3356 41.7342 49.6948H42.4906C43.5817 49.6948 44.4696 48.8072 44.4696 47.7158V46.9594C45.111 46.7559 45.618 46.2486 45.8205 45.6072L55.5849 45.5704C55.7884 46.2099 56.2947 46.7159 56.9345 46.9187V47.6751C56.9345 48.7665 57.8224 49.6544 58.9139 49.6544H64.3774C65.4685 49.6544 66.3564 48.7665 66.3564 47.6751V42.2115C66.3564 41.1201 65.4685 40.2322 64.3774 40.2322ZM43.1213 63.3192C42.668 63.3192 42.2998 62.9506 42.2998 62.4977C42.2998 62.0448 42.6684 61.6762 43.1213 61.6762C43.5742 61.6762 43.9428 62.0448 43.9428 62.4977C43.9428 62.9506 43.5742 63.3192 43.1213 63.3192ZM42.4961 65.2295C42.4961 65.6313 42.1692 65.9582 41.7671 65.9582H36.3035C35.9017 65.9582 35.5748 65.6313 35.5748 65.2295V59.7659C35.5748 59.3638 35.9017 59.0369 36.3035 59.0369H41.7671C42.1692 59.0369 42.4961 59.3638 42.4961 59.7659V60.5223C40.5575 61.14 40.58 63.8623 42.4961 64.4731V65.2295ZM54.359 59.508C54.3571 59.9593 53.9895 60.3256 53.5375 60.3256C53.0859 60.3256 52.7183 59.9593 52.7164 59.508C52.8193 58.3798 54.2604 58.4274 54.359 59.508ZM49.5128 54.5527C49.9068 54.6133 50.2096 54.9545 50.2096 55.3648C50.2096 55.8187 49.8404 56.1863 49.3881 56.1863C48.9349 56.1863 48.5666 55.8177 48.5666 55.3648C48.5666 54.8637 49.0143 54.4765 49.5128 54.5527ZM43.8444 45.8055C43.3915 45.8055 43.0229 45.4369 43.0229 44.984C43.0229 44.5311 43.3915 44.1625 43.8444 44.1625C44.2973 44.1625 44.6659 44.5311 44.6659 44.984C44.6659 45.4369 44.2977 45.8055 43.8444 45.8055ZM39.7588 49.8914C39.2606 49.8914 38.8699 49.447 38.9467 48.9449C39.007 48.5509 39.3482 48.2485 39.7588 48.2485C40.2114 48.2485 40.5803 48.6164 40.5803 49.0696C40.5803 49.5229 40.2117 49.8914 39.7588 49.8914ZM43.2193 47.7158C43.2193 48.1176 42.8924 48.4445 42.4903 48.4445H41.7342C41.4093 47.4296 40.3768 46.8288 39.3433 47.0398C39.3345 47.0444 38.1721 47.229 37.7834 48.4445H37.027C36.6249 48.4445 36.298 48.1176 36.298 47.7158V42.2522C36.298 41.8504 36.6249 41.5232 37.027 41.5232H42.4906C42.8924 41.5232 43.2193 41.8504 43.2193 42.2522V43.0086C42.3424 43.2879 41.728 44.1251 41.7752 45.0885C41.7788 45.097 41.7876 46.5029 43.2193 46.9594V47.7158ZM57.5597 44.1218C58.0116 44.1218 58.3812 44.4894 58.3812 44.9433C58.3812 45.3978 58.011 45.7648 57.5597 45.7648C57.1068 45.7648 56.7382 45.3962 56.7382 44.9433C56.7382 44.4904 57.1068 44.1218 57.5597 44.1218ZM65.1061 47.6751C65.1061 48.0769 64.7792 48.4041 64.3774 48.4041H58.9139C58.5117 48.4041 58.1848 48.0769 58.1848 47.6751V46.9187C59.0783 46.6341 59.6771 45.785 59.6289 44.8371V44.8368C59.5856 43.9772 59.0086 43.2303 58.1848 42.9679V42.2115C58.1848 41.8097 58.5117 41.4828 58.9139 41.4828H64.3774C64.7792 41.4828 65.1061 41.8097 65.1061 42.2115V47.6751Z" fill="#55004F"/>
</svg>
