<svg width="81" height="80" viewBox="0 0 81 80" fill="none" xmlns="http://www.w3.org/2000/svg">
<path d="M8.06307 10.8785C10.0503 10.8785 11.6668 9.26175 11.6668 7.27456C11.6668 5.28737 10.0503 3.67065 8.06307 3.67065C6.07573 3.67065 4.45917 5.28737 4.45917 7.27456C4.45917 9.26175 6.07589 10.8785 8.06307 10.8785ZM8.06307 6.0144C8.75776 6.0144 9.32307 6.57972 9.32307 7.27456C9.32307 7.9694 8.75776 8.53472 8.06307 8.53472C7.36823 8.53472 6.80292 7.9694 6.80292 7.27456C6.80292 6.57972 7.36823 6.0144 8.06307 6.0144Z" fill="black"/>
<path d="M15.795 10.8785C17.7824 10.8785 19.3989 9.26175 19.3989 7.27456C19.3989 5.28737 17.7824 3.67065 15.795 3.67065C13.8077 3.67065 12.1909 5.28737 12.1909 7.27456C12.1909 9.26175 13.8077 10.8785 15.795 10.8785ZM15.795 6.0144C16.4899 6.0144 17.0552 6.57972 17.0552 7.27456C17.0552 7.9694 16.4899 8.53472 15.795 8.53472C15.1002 8.53472 14.5349 7.9694 14.5349 7.27456C14.5349 6.57972 15.1002 6.0144 15.795 6.0144Z" fill="black"/>
<path d="M23.5271 10.8785C25.5143 10.8785 27.1308 9.26175 27.1308 7.27456C27.1308 5.28737 25.5141 3.67065 23.5271 3.67065C21.5397 3.67065 19.9232 5.28737 19.9232 7.27456C19.9232 9.26175 21.5397 10.8785 23.5271 10.8785ZM23.5271 6.0144C24.2218 6.0144 24.7871 6.57972 24.7871 7.27456C24.7871 7.9694 24.2218 8.53472 23.5271 8.53472C22.8322 8.53472 22.2669 7.9694 22.2669 7.27456C22.2669 6.57972 22.8322 6.0144 23.5271 6.0144Z" fill="black"/>
<path d="M51.9222 24.8083H61.5608C62.2082 24.8083 62.7327 24.2836 62.7327 23.6364C62.7327 22.9892 62.2082 22.4645 61.5608 22.4645H51.9222C51.2749 22.4645 50.7504 22.9892 50.7504 23.6364C50.7504 24.2836 51.2749 24.8083 51.9222 24.8083Z" fill="black"/>
<path d="M71.7866 17.6337H68.9014V8.59851C68.9014 3.85722 65.0448 0 60.3044 0H9.06685C4.32635 0 0.46991 3.85722 0.46991 8.59851V55.5079C0.46991 60.2492 4.3265 64.1064 9.06701 64.1064H33.1599V71.4635C33.1599 76.1706 36.9893 80 41.6963 80H71.7866C76.4936 80 80.3232 76.1706 80.3232 71.4635V26.1702C80.323 21.4631 76.4936 17.6337 71.7866 17.6337ZM9.06685 61.7627C5.61886 61.7627 2.81352 58.9567 2.81352 55.5079V8.59851C2.81368 5.14973 5.61886 2.34377 9.06685 2.34377H60.3044C63.7523 2.34377 66.5576 5.14973 66.5576 8.59851V17.6337H64.9124V17.3184C64.9124 14.3521 62.4991 11.9387 59.5326 11.9387H18.6746C18.0272 11.9387 17.5027 12.4634 17.5027 13.1106C17.5027 13.7578 18.0272 14.2825 18.6746 14.2825H59.5326C61.2066 14.2825 62.5687 15.6443 62.5687 17.3184V17.6337H41.6962C36.9891 17.6337 33.1597 21.4631 33.1597 26.1702V57.7719H9.06654C7.81809 57.7719 6.80246 56.7562 6.80246 55.5078V17.3184C6.80246 15.6445 8.16435 14.2825 9.83842 14.2825H13.987C14.6344 14.2825 15.1589 13.7578 15.1589 13.1106C15.1589 12.4634 14.6344 11.9387 13.987 11.9387H9.83842C6.87215 11.9387 4.45869 14.352 4.45869 17.3184V55.5078C4.45869 58.0486 6.52574 60.1156 9.06654 60.1156H33.1597V61.7627H9.06685ZM77.9793 71.4635C77.9793 74.8782 75.2013 77.6562 71.7864 77.6562H41.6962C38.2815 77.6562 35.5035 74.8782 35.5035 71.4635V26.1702C35.5035 22.7555 38.2815 19.9775 41.6962 19.9775H71.7864C75.2011 19.9775 77.9793 22.7555 77.9793 26.1702V71.4635Z" fill="black"/>
<path d="M70.1203 22.4638H66.0187C65.3714 22.4638 64.8468 22.9885 64.8468 23.6356V23.8341C64.8468 25.583 63.4245 27.006 61.6765 27.006H51.8077C50.0595 27.006 48.6373 25.5832 48.6373 23.8341V23.6356C48.6373 22.9885 48.1128 22.4638 47.4654 22.4638H43.3623C40.4001 22.4638 37.9902 24.8742 37.9902 27.8372V69.7969C37.9902 72.759 40.4001 75.1689 43.3623 75.1689H70.1203C73.0824 75.1689 75.4922 72.759 75.4922 69.7969V39.3967C75.4922 38.7495 74.9677 38.2248 74.3203 38.2248C73.673 38.2248 73.1485 38.7495 73.1485 39.3967V69.7969C73.1485 71.4666 71.7902 72.8251 70.1203 72.8251H43.3623C41.6924 72.8251 40.334 71.4666 40.334 69.7969V27.8372C40.334 26.1666 41.6924 24.8075 43.3623 24.8075H46.3796C46.8404 27.3861 49.0992 29.3498 51.8077 29.3498H61.6765C64.3849 29.3498 66.6437 27.3863 67.1045 24.8075H70.1203C71.7902 24.8075 73.1485 26.1666 73.1485 27.8372V34.7092C73.1485 35.3564 73.673 35.8811 74.3203 35.8811C74.9677 35.8811 75.4922 35.3564 75.4922 34.7092V27.8372C75.4921 24.8742 73.0824 22.4638 70.1203 22.4638Z" fill="black"/>
<path d="M46.4716 59.212C46.4716 59.8592 46.9962 60.3839 47.6435 60.3839H65.8393C66.4866 60.3839 67.0112 59.8592 67.0112 59.212C67.0112 55.6518 65.1895 52.4269 62.2958 50.571C65.1296 48.741 67.011 45.5572 67.011 41.9401C67.011 36.2776 62.4043 31.6707 56.7417 31.6707C51.0792 31.6707 46.4723 36.2774 46.4723 41.9401C46.4723 45.5572 48.3539 48.7413 51.1878 50.5712C48.2937 52.4273 46.4716 55.652 46.4716 59.212ZM48.816 41.9401C48.816 37.57 52.3715 34.0145 56.7417 34.0145C61.1119 34.0145 64.6673 37.5698 64.6673 41.9401C64.6673 46.3103 61.1119 49.8657 56.7417 49.8657C52.3715 49.8657 48.816 46.3103 48.816 41.9401ZM56.7416 52.2094C57.7242 52.2094 58.6739 52.0679 59.5744 51.809C62.2672 52.8363 64.1646 55.2287 64.5812 58.0401H48.9017C49.3184 55.229 51.2158 52.8366 53.9092 51.809C54.8095 52.0679 55.7591 52.2094 56.7416 52.2094Z" fill="black"/>
<path d="M67.6703 63.1773H45.8125C45.1651 63.1773 44.6406 63.702 44.6406 64.3492C44.6406 64.9964 45.1651 65.5211 45.8125 65.5211H67.6703C68.3177 65.5211 68.8422 64.9964 68.8422 64.3492C68.8422 63.702 68.3175 63.1773 67.6703 63.1773Z" fill="black"/>
<path d="M67.6703 67.1916H45.8125C45.1651 67.1916 44.6406 67.7163 44.6406 68.3635C44.6406 69.0107 45.1651 69.5354 45.8125 69.5354H67.6703C68.3177 69.5354 68.8422 69.0107 68.8422 68.3635C68.8422 67.7163 68.3175 67.1916 67.6703 67.1916Z" fill="black"/>
<path d="M29.2827 44.6056H10.7777C10.1303 44.6056 9.6058 45.1303 9.6058 45.7775C9.6058 46.4247 10.1303 46.9494 10.7777 46.9494H29.2827C29.93 46.9494 30.4546 46.4247 30.4546 45.7775C30.4546 45.1303 29.93 44.6056 29.2827 44.6056Z" fill="black"/>
<path d="M29.2827 48.6201H10.7777C10.1303 48.6201 9.6058 49.1448 9.6058 49.792C9.6058 50.4391 10.1303 50.9638 10.7777 50.9638H29.2827C29.93 50.9638 30.4546 50.4391 30.4546 49.792C30.4546 49.1448 29.93 48.6201 29.2827 48.6201Z" fill="black"/>
<path d="M10.955 40.9525C11.1511 41.0786 11.3705 41.1387 11.5877 41.1387C11.9732 41.1387 12.3505 40.9487 12.5744 40.6005C12.9244 40.0561 12.7668 39.3309 12.2224 38.9809C11.6761 38.6297 11.3499 38.033 11.3499 37.385V37.3277C11.3499 36.6805 10.8254 36.1558 10.178 36.1558C9.53067 36.1558 9.00613 36.6805 9.00613 37.3277V37.385C9.00629 38.8344 9.73473 40.168 10.955 40.9525Z" fill="black"/>
<path d="M10.1782 33.966C10.8255 33.966 11.35 33.4413 11.35 32.7941V29.6676C11.35 29.0204 10.8255 28.4957 10.1782 28.4957C9.53082 28.4957 9.00629 29.0204 9.00629 29.6676V32.7941C9.00629 33.4413 9.53082 33.966 10.1782 33.966Z" fill="black"/>
<path d="M29.8822 33.3606C29.2348 33.3606 28.7103 33.8853 28.7103 34.5325V37.385C28.7103 37.4414 28.7076 37.4989 28.7028 37.5559C28.6461 38.2006 29.1228 38.7692 29.7673 38.8259C29.8023 38.829 29.8369 38.8304 29.8714 38.8304C30.4722 38.8304 30.9837 38.3711 31.0373 37.7612C31.0483 37.6364 31.0539 37.5097 31.0539 37.385V34.5325C31.054 33.8853 30.5295 33.3606 29.8822 33.3606Z" fill="black"/>
<path d="M10.1782 26.3058C10.8255 26.3058 11.35 25.7811 11.35 25.1339V22.2877C11.35 22.2297 11.3527 22.1713 11.3578 22.1144C11.4166 21.4698 10.9418 20.8997 10.2972 20.8409C9.65331 20.7817 9.08253 21.257 9.02394 21.9017C9.01238 22.0291 9.00644 22.1591 9.00644 22.2878V25.1342C9.00628 25.7813 9.53081 26.3058 10.1782 26.3058Z" fill="black"/>
<path d="M22.5164 40.4523C22.5164 41.0995 23.0409 41.6242 23.6883 41.6242H26.8272C27.4745 41.6242 27.9991 41.0995 27.9991 40.4523C27.9991 39.8052 27.4745 39.2805 26.8272 39.2805C26.8239 39.2805 26.818 39.2805 26.8119 39.2805H23.6883C23.0411 39.2805 22.5164 39.805 22.5164 40.4523Z" fill="black"/>
<path d="M14.8564 40.4523C14.8564 41.0995 15.3809 41.6242 16.0282 41.6242H19.1548C19.8021 41.6242 20.3267 41.0995 20.3267 40.4523C20.3267 39.8052 19.8021 39.2805 19.1548 39.2805H16.0282C15.3809 39.2805 14.8564 39.805 14.8564 40.4523Z" fill="black"/>
<path d="M29.8821 25.7005C29.2348 25.7005 28.7103 26.2252 28.7103 26.8724V29.999C28.7103 30.6462 29.2348 31.1708 29.8821 31.1708C30.5295 31.1708 31.054 30.6462 31.054 29.999V26.8724C31.054 26.2252 30.5295 25.7005 29.8821 25.7005Z" fill="black"/>
<path d="M20.8991 20.3921H24.0257C24.673 20.3921 25.1976 19.8675 25.1976 19.2203C25.1976 18.5731 24.673 18.0484 24.0257 18.0484H20.8991C20.2518 18.0484 19.7273 18.5731 19.7273 19.2203C19.7273 19.8675 20.2518 20.3921 20.8991 20.3921Z" fill="black"/>
<path d="M27.8346 20.6895C28.3831 21.0406 28.7102 21.6379 28.7102 22.2876V22.3389C28.7102 22.9861 29.2348 23.5108 29.8821 23.5108C30.5295 23.5108 31.054 22.9861 31.054 22.3389V22.2876C31.054 20.835 30.3227 19.4995 29.0982 18.7156C28.5529 18.3667 27.8282 18.5254 27.4795 19.0708C27.1306 19.6158 27.2895 20.3406 27.8346 20.6895Z" fill="black"/>
<path d="M16.3656 18.0484H13.239C12.5917 18.0484 12.0703 18.5731 12.0703 19.2203C12.0703 19.8675 12.5981 20.3921 13.2454 20.3921H16.3657C17.0131 20.3921 17.5376 19.8675 17.5376 19.2203C17.5376 18.5731 17.0129 18.0484 16.3656 18.0484Z" fill="black"/>
</svg>
