<svg width="80" height="80" viewBox="0 0 80 80" fill="none" xmlns="http://www.w3.org/2000/svg">
<path d="M46.4518 15.7213V7.74194H43.8712V15.7213C42.3731 16.2555 41.2905 17.6748 41.2905 19.3548C41.2905 21.0348 42.3731 22.4542 43.8712 22.9884V30.9677H46.4518V22.9884C47.9499 22.4542 49.0324 21.0348 49.0324 19.3548C49.0324 17.6748 47.9499 16.2555 46.4518 15.7213ZM45.1615 20.6452C44.4492 20.6452 43.8712 20.0671 43.8712 19.3548C43.8712 18.6426 44.4492 18.0645 45.1615 18.0645C45.8737 18.0645 46.4518 18.6426 46.4518 19.3548C46.4518 20.0671 45.8737 20.6452 45.1615 20.6452Z" fill="black"/>
<path d="M72.2582 10.56V7.74194H69.6776V10.56C68.1795 11.0942 67.097 12.5135 67.097 14.1935C67.097 15.8735 68.1795 17.2929 69.6776 17.8271V30.9677H72.2582V17.8271C73.7563 17.2929 74.8389 15.8735 74.8389 14.1935C74.8389 12.5135 73.7563 11.0942 72.2582 10.56ZM70.9679 15.4839C70.2557 15.4839 69.6776 14.9058 69.6776 14.1935C69.6776 13.4813 70.2557 12.9032 70.9679 12.9032C71.6802 12.9032 72.2582 13.4813 72.2582 14.1935C72.2582 14.9058 71.6802 15.4839 70.9679 15.4839Z" fill="black"/>
<path d="M76.1292 0H40.0002C37.866 0 36.1292 1.73677 36.1292 3.87097V10.3226H3.87115C1.73696 10.3226 0.000183105 12.0594 0.000183105 14.1935V76.129C0.000183105 78.2632 1.73696 80 3.87115 80H73.5486V63.5781C76.0828 59.231 77.4195 54.2852 77.4195 49.2503V41.0529C78.9176 40.5187 80.0002 39.0994 80.0002 37.4194V3.87097C80.0002 1.73677 78.2634 0 76.1292 0ZM45.3008 56.7742H30.9679V54.1935H44.5473C44.7537 55.0671 45.0028 55.929 45.3008 56.7742ZM43.8712 46.4516H7.74212V33.5484H36.1292V37.4194C36.1292 39.5535 37.866 41.2903 40.0002 41.2903H43.8712V46.4516ZM3.87115 12.9032H36.1292V25.8064H2.58083V14.1935C2.58083 13.4813 3.15889 12.9032 3.87115 12.9032ZM2.58083 76.129V28.3871H36.1292V30.9677H5.16147V49.0323H43.8931C43.9111 49.8981 43.9808 50.7574 44.0892 51.6129H28.3873V59.3548H46.3899C47.1253 60.8723 47.9976 62.3265 49.0324 63.6723V77.4193H3.87115C3.15889 77.4193 2.58083 76.8413 2.58083 76.129ZM51.6131 77.4193V64.5161H70.9679V77.4193H51.6131ZM74.8389 49.2503C74.8389 53.6994 73.6776 58.0658 71.4995 61.9355H50.977C48.0634 58.0839 46.4518 53.3471 46.4518 48.5123V36.129C47.875 36.129 49.0324 37.2864 49.0324 38.7097V46.4516C49.0324 48.5858 50.7692 50.3226 52.9034 50.3226C55.0376 50.3226 56.7744 48.5858 56.7744 46.4516V27.0968C56.7744 26.3845 57.3524 25.8064 58.0647 25.8064C58.777 25.8064 59.355 26.3845 59.355 27.0968V47.7419H61.9357V34.8387C61.9357 34.1264 62.5137 33.5484 63.226 33.5484C63.9382 33.5484 64.5163 34.1264 64.5163 34.8387V47.7419H67.097V37.4194C67.097 36.7071 67.675 36.129 68.3873 36.129C69.0995 36.129 69.6776 36.7071 69.6776 37.4194V47.7419H72.2582V40C72.2582 39.2877 72.8363 38.7097 73.5486 38.7097C74.2608 38.7097 74.8389 39.2877 74.8389 40V49.2503ZM51.6131 41.2903H54.1937V46.4516C54.1937 47.1639 53.6157 47.7419 52.9034 47.7419C52.1912 47.7419 51.6131 47.1639 51.6131 46.4516V41.2903ZM56.7744 11.6129C56.7744 10.9006 57.3524 10.3226 58.0647 10.3226C58.777 10.3226 59.355 10.9006 59.355 11.6129C59.355 12.3252 58.777 12.9032 58.0647 12.9032C57.3524 12.9032 56.7744 12.3252 56.7744 11.6129ZM77.4195 37.4194C77.4195 37.7806 77.2699 38.1045 77.0299 38.3394C76.4066 37.0374 75.0866 36.129 73.5486 36.129C73.0389 36.129 72.555 36.2335 72.1086 36.4129C71.6634 34.7677 70.1718 33.5484 68.3873 33.5484C67.8776 33.5484 67.3937 33.6529 66.9473 33.8323C66.5021 32.1871 65.0105 30.9677 63.226 30.9677C62.7718 30.9677 62.3408 31.0606 61.9357 31.2052V27.0968C61.9357 25.4168 60.8531 23.9974 59.355 23.4632V15.2452C60.8531 14.711 61.9357 13.2916 61.9357 11.6116C61.9357 9.47742 60.1989 7.74064 58.0647 7.74064C55.9305 7.74064 54.1937 9.47742 54.1937 11.6116C54.1937 13.2916 55.2763 14.711 56.7744 15.2452V23.4632C55.2763 23.9974 54.1937 25.4168 54.1937 27.0968V38.7097H51.6131C51.6131 35.8632 49.2982 33.5484 46.4518 33.5484C45.0286 33.5484 43.8712 34.7058 43.8712 36.129V38.7097H40.0002C39.2879 38.7097 38.7099 38.1316 38.7099 37.4194V3.87097C38.7099 3.15871 39.2879 2.58065 40.0002 2.58065H76.1292C76.8415 2.58065 77.4195 3.15871 77.4195 3.87097V37.4194Z" fill="black"/>
<path d="M14.1937 54.1935C9.21438 54.1935 5.16147 58.2464 5.16147 63.2258C5.16147 68.2052 9.21438 72.2581 14.1937 72.2581C19.1731 72.2581 23.226 68.2052 23.226 63.2258C23.226 58.2464 19.1731 54.1935 14.1937 54.1935ZM20.515 61.9355H15.4841V56.9045C18.0079 57.4194 20.0002 59.4116 20.515 61.9355ZM12.9034 56.9045V62.6916L8.81696 66.7781C8.14083 65.7574 7.74212 64.5381 7.74212 63.2258C7.74212 60.111 9.96276 57.5045 12.9034 56.9045ZM14.1937 69.6774C12.8815 69.6774 11.6621 69.2787 10.6415 68.6026L14.7279 64.5161H20.515C19.915 67.4568 17.3086 69.6774 14.1937 69.6774Z" fill="black"/>
<path d="M28.3873 61.9355H33.5486V64.5161H28.3873V61.9355Z" fill="black"/>
<path d="M36.1292 61.9355H46.4518V64.5161H36.1292V61.9355Z" fill="black"/>
<path d="M28.3873 72.2581H33.5486V74.8387H28.3873V72.2581Z" fill="black"/>
<path d="M36.1292 72.2581H46.4518V74.8387H36.1292V72.2581Z" fill="black"/>
<path d="M28.3873 67.0968H46.4518V69.6774H28.3873V67.0968Z" fill="black"/>
<path d="M12.9034 15.4839H5.16147V23.2258H12.9034V15.4839ZM10.3228 20.6452H7.74212V18.0645H10.3228V20.6452Z" fill="black"/>
<path d="M23.226 15.4839H15.4841V23.2258H23.226V15.4839ZM20.6453 20.6452H18.0647V18.0645H20.6453V20.6452Z" fill="black"/>
<path d="M33.5486 15.4839H25.8066V23.2258H33.5486V15.4839ZM30.9679 20.6452H28.3873V18.0645H30.9679V20.6452Z" fill="black"/>
</svg>
