<svg width="80" height="80" viewBox="0 0 80 80" fill="none" xmlns="http://www.w3.org/2000/svg">
<path d="M30.6668 56H49.3335V58.6667H30.6668V56Z" fill="black"/>
<path d="M25.3335 56H28.0002V58.6667H25.3335V56Z" fill="black"/>
<path d="M78.6669 5.33333H60.0002V4C59.997 2.94011 59.5746 1.92453 58.8251 1.17507C58.0757 0.425609 57.0601 0.00316545 56.0002 0H24.0002C22.9403 0.00316545 21.9247 0.425609 21.1753 1.17507C20.4258 1.92453 20.0033 2.94011 20.0002 4V9.33333H1.33352C0.979894 9.33333 0.640756 9.47381 0.390707 9.72386C0.140659 9.97391 0.000183105 10.313 0.000183105 10.6667V26.6667C0.000183105 27.0203 0.140659 27.3594 0.390707 27.6095C0.640756 27.8595 0.979894 28 1.33352 28H20.0002V30.6667C18.2321 30.6667 16.5364 31.369 15.2861 32.6193C14.0359 33.8695 13.3335 35.5652 13.3335 37.3333V42.7867L16.0002 70.72V78.6667C16.0002 79.0203 16.1407 79.3594 16.3907 79.6095C16.6408 79.8595 16.9799 80 17.3335 80H46.6669C47.0205 80 47.3596 79.8595 47.6097 79.6095C47.8597 79.3594 48.0002 79.0203 48.0002 78.6667V71.0933L52.9602 64H56.0002C57.0601 63.9968 58.0757 63.5744 58.8251 62.8249C59.5746 62.0755 59.997 61.0599 60.0002 60V58.6667H61.3335C62.4189 58.6706 63.4795 58.3419 64.3725 57.725C65.2656 57.1081 65.9483 56.2324 66.3287 55.2159C66.7092 54.1993 66.7692 53.0907 66.5007 52.039C66.2322 50.9873 65.6481 50.0431 64.8269 49.3333C65.4039 48.8388 65.8671 48.2252 66.1847 47.5348C66.5023 46.8443 66.6668 46.0933 66.6668 45.3333C66.6668 44.5733 66.5023 43.8223 66.1847 43.1319C65.8671 42.4414 65.4039 41.8279 64.8269 41.3333C65.4039 40.8388 65.8671 40.2252 66.1847 39.5348C66.5023 38.8443 66.6668 38.0933 66.6668 37.3333C66.6668 36.5733 66.5023 35.8223 66.1847 35.1319C65.8671 34.4414 65.4039 33.8279 64.8269 33.3333C65.6481 32.6236 66.2322 31.6794 66.5007 30.6277C66.7692 29.576 66.7092 28.4673 66.3287 27.4508C65.9483 26.4342 65.2656 25.5586 64.3725 24.9417C63.4795 24.3247 62.4189 23.9961 61.3335 24H60.0002V21.3333H78.6669C79.0205 21.3333 79.3596 21.1929 79.6097 20.9428C79.8597 20.6928 80.0002 20.3536 80.0002 20V6.66667C80.0002 6.31305 79.8597 5.97391 79.6097 5.72386C79.3596 5.47381 79.0205 5.33333 78.6669 5.33333ZM50.2935 2.66667L49.8802 4.32C49.8087 4.60907 49.6425 4.8659 49.4081 5.04955C49.1738 5.2332 48.8846 5.3331 48.5868 5.33333H31.4135C31.1157 5.3331 30.8266 5.2332 30.5922 5.04955C30.3578 4.8659 30.1917 4.60907 30.1202 4.32L29.7069 2.66667H50.2935ZM2.66685 25.3333V12H26.6669V25.3333H2.66685ZM45.3335 77.3333H18.6669V72H45.3335V77.3333ZM45.9735 69.3333H18.5469L16.0002 42.6667V37.3333C16.0033 36.2734 16.4258 35.2579 17.1753 34.5084C17.9247 33.7589 18.9403 33.3365 20.0002 33.3333H29.3335C30.3944 33.3333 31.4118 33.7548 32.1619 34.5049C32.9121 35.2551 33.3335 36.2725 33.3335 37.3333C33.3335 38.3942 32.9121 39.4116 32.1619 40.1618C31.4118 40.9119 30.3944 41.3333 29.3335 41.3333H21.3335C20.9799 41.3333 20.6408 41.4738 20.3907 41.7239C20.1407 41.9739 20.0002 42.313 20.0002 42.6667V60C20.0033 61.0599 20.4258 62.0755 21.1753 62.8249C21.9247 63.5744 22.9403 63.9968 24.0002 64H49.7068L45.9735 69.3333ZM57.3335 60C57.3335 60.3536 57.193 60.6928 56.943 60.9428C56.6929 61.1929 56.3538 61.3333 56.0002 61.3333H24.0002C23.6466 61.3333 23.3074 61.1929 23.0574 60.9428C22.8073 60.6928 22.6669 60.3536 22.6669 60V44H29.3335C31.1016 44 32.7973 43.2976 34.0476 42.0474C35.2978 40.7971 36.0002 39.1014 36.0002 37.3333C36.0002 35.5652 35.2978 33.8695 34.0476 32.6193C32.7973 31.369 31.1016 30.6667 29.3335 30.6667H22.6669V28H28.0002C28.3538 28 28.6929 27.8595 28.943 27.6095C29.193 27.3594 29.3335 27.0203 29.3335 26.6667V10.6667C29.3335 10.313 29.193 9.97391 28.943 9.72386C28.6929 9.47381 28.3538 9.33333 28.0002 9.33333H22.6669V4C22.6669 3.64638 22.8073 3.30724 23.0574 3.05719C23.3074 2.80714 23.6466 2.66667 24.0002 2.66667H26.9602L27.5335 4.97333C27.7505 5.83807 28.2501 6.60555 28.953 7.1539C29.656 7.70226 30.522 8.00005 31.4135 8H48.5868C49.4784 8.00005 50.3444 7.70226 51.0473 7.1539C51.7503 6.60555 52.2499 5.83807 52.4669 4.97333L53.0402 2.66667H56.0002C56.3538 2.66667 56.6929 2.80714 56.943 3.05719C57.193 3.30724 57.3335 3.64638 57.3335 4V5.33333H54.6669C54.3132 5.33333 53.9741 5.47381 53.724 5.72386C53.474 5.97391 53.3335 6.31305 53.3335 6.66667V20C53.3335 20.3536 53.474 20.6928 53.724 20.9428C53.9741 21.1929 54.3132 21.3333 54.6669 21.3333H57.3335V24H56.0002C54.9148 23.9961 53.8542 24.3247 52.9612 24.9417C52.0681 25.5586 51.3854 26.4342 51.005 27.4508C50.6245 28.4673 50.5645 29.576 50.833 30.6277C51.1015 31.6794 51.6856 32.6236 52.5069 33.3333C51.9298 33.8279 51.4666 34.4414 51.149 35.1319C50.8314 35.8223 50.6669 36.5733 50.6669 37.3333C50.6669 38.0933 50.8314 38.8443 51.149 39.5348C51.4666 40.2252 51.9298 40.8388 52.5069 41.3333C51.9298 41.8279 51.4666 42.4414 51.149 43.1319C50.8314 43.8223 50.6669 44.5733 50.6669 45.3333C50.6669 46.0933 50.8314 46.8443 51.149 47.5348C51.4666 48.2252 51.9298 48.8388 52.5069 49.3333C51.6856 50.0431 51.1015 50.9873 50.833 52.039C50.5645 53.0907 50.6245 54.1993 51.005 55.2159C51.3854 56.2324 52.0681 57.1081 52.9612 57.725C53.8542 58.3419 54.9148 58.6706 56.0002 58.6667H57.3335V60ZM61.3335 56H56.0002C55.2929 56 54.6147 55.7191 54.1146 55.219C53.6145 54.7189 53.3335 54.0406 53.3335 53.3333C53.3335 52.6261 53.6145 51.9478 54.1146 51.4477C54.6147 50.9476 55.2929 50.6667 56.0002 50.6667H61.3335C62.0408 50.6667 62.719 50.9476 63.2191 51.4477C63.7192 51.9478 64.0002 52.6261 64.0002 53.3333C64.0002 54.0406 63.7192 54.7189 63.2191 55.219C62.719 55.7191 62.0408 56 61.3335 56ZM61.3335 48H56.0002C55.2929 48 54.6147 47.7191 54.1146 47.219C53.6145 46.7189 53.3335 46.0406 53.3335 45.3333C53.3335 44.6261 53.6145 43.9478 54.1146 43.4477C54.6147 42.9476 55.2929 42.6667 56.0002 42.6667H61.3335C62.0408 42.6667 62.719 42.9476 63.2191 43.4477C63.7192 43.9478 64.0002 44.6261 64.0002 45.3333C64.0002 46.0406 63.7192 46.7189 63.2191 47.219C62.719 47.7191 62.0408 48 61.3335 48ZM61.3335 40H56.0002C55.2929 40 54.6147 39.719 54.1146 39.219C53.6145 38.7189 53.3335 38.0406 53.3335 37.3333C53.3335 36.6261 53.6145 35.9478 54.1146 35.4477C54.6147 34.9476 55.2929 34.6667 56.0002 34.6667H61.3335C62.0408 34.6667 62.719 34.9476 63.2191 35.4477C63.7192 35.9478 64.0002 36.6261 64.0002 37.3333C64.0002 38.0406 63.7192 38.7189 63.2191 39.219C62.719 39.719 62.0408 40 61.3335 40ZM61.3335 26.6667C62.0408 26.6667 62.719 26.9476 63.2191 27.4477C63.7192 27.9478 64.0002 28.6261 64.0002 29.3333C64.0002 30.0406 63.7192 30.7189 63.2191 31.219C62.719 31.719 62.0408 32 61.3335 32H56.0002C55.2929 32 54.6147 31.719 54.1146 31.219C53.6145 30.7189 53.3335 30.0406 53.3335 29.3333C53.3335 28.6261 53.6145 27.9478 54.1146 27.4477C54.6147 26.9476 55.2929 26.6667 56.0002 26.6667H61.3335ZM77.3335 18.6667H56.0002V8H77.3335V18.6667Z" fill="black"/>
<path d="M5.33352 14.6667H8.00018V17.3333H5.33352V14.6667Z" fill="black"/>
<path d="M10.6669 14.6667H24.0002V17.3333H10.6669V14.6667Z" fill="black"/>
<path d="M5.33352 20H24.0002V22.6667H5.33352V20Z" fill="black"/>
<path d="M58.6669 12H64.0002V14.6667H58.6669V12Z" fill="black"/>
<path d="M66.6668 12H74.6668V14.6667H66.6668V12Z" fill="black"/>
</svg>
