<svg width="80" height="80" viewBox="0 0 80 80" fill="none" xmlns="http://www.w3.org/2000/svg">
<path d="M75.7033 0H50.0701C47.7007 0 45.7732 1.9275 45.7732 4.29688V48.8706C45.7732 50.8452 47.1124 52.5119 48.9299 53.0128V55.4681C48.9299 57.6809 50.7301 59.4811 52.9429 59.4811H61.7143V61.8719H44.4077V61.7816C44.4077 59.3948 42.4658 57.453 40.079 57.453C37.6922 57.453 35.7504 59.3948 35.7504 61.7816V61.8719H18.2862V59.4811H27.0576C29.2704 59.4811 31.0705 57.6809 31.0705 55.4681V53.0128C32.888 52.5119 34.2272 50.8453 34.2272 48.8706V26.8098C34.2272 26.1627 33.7026 25.638 33.0554 25.638C32.4082 25.638 31.8835 26.1627 31.8835 26.8098V48.8706C31.8835 49.9477 31.0074 50.8237 29.9304 50.8237H4.29709C3.22006 50.8237 2.34396 49.9477 2.34396 48.8706V11.8141H31.8835V21.3233C31.8835 21.9705 32.4082 22.4952 33.0554 22.4952C33.7026 22.4952 34.2272 21.9705 34.2272 21.3233V4.29688C34.2272 1.9275 32.2997 0 29.9304 0H4.29709C1.92771 0 0.000213623 1.9275 0.000213623 4.29688V48.8706C0.000213623 50.8452 1.33943 52.5119 3.15693 53.0128V55.4681C3.15693 57.6809 4.95709 59.4811 7.1699 59.4811H15.9424V63.0438C15.9424 63.6909 16.4671 64.2156 17.1143 64.2156H35.7505V71.3427H30.2143C28.0015 71.3427 26.2013 73.1428 26.2013 75.3556V78.8281C26.2013 79.4753 26.726 80 27.3732 80H42.5685C43.2157 80 43.7404 79.4753 43.7404 78.8281C43.7404 78.1809 43.2157 77.6562 42.5685 77.6562H28.5451V75.3556C28.5451 74.4352 29.2938 73.6864 30.2143 73.6864H49.944C50.8644 73.6864 51.6132 74.4352 51.6132 75.3556V77.6562H48.021C47.3738 77.6562 46.8491 78.1809 46.8491 78.8281C46.8491 79.4753 47.3738 80 48.021 80H52.7851C53.4322 80 53.9569 79.4753 53.9569 78.8281V75.3556C53.9569 73.1428 52.1568 71.3427 49.944 71.3427H44.4077V64.2156H62.8862C63.5333 64.2156 64.058 63.6909 64.058 63.0438V59.4811H72.8305C75.0433 59.4811 76.8435 57.6809 76.8435 55.4681V53.0128C78.661 52.5119 80.0002 50.8453 80.0002 48.8706V26.8098C80.0002 26.1627 79.4755 25.638 78.8283 25.638C78.1812 25.638 77.6565 26.1627 77.6565 26.8098V48.8706C77.6565 49.9477 76.7804 50.8237 75.7033 50.8237H50.0701C48.993 50.8237 48.1169 49.9477 48.1169 48.8706V11.8141H77.6565V21.3233C77.6565 21.9705 78.1812 22.4952 78.8283 22.4952C79.4755 22.4952 80.0002 21.9705 80.0002 21.3233V4.29688C80.0002 1.9275 78.0727 0 75.7033 0ZM4.29709 2.34375H29.9304C31.0074 2.34375 31.8835 3.21984 31.8835 4.29688V9.47031H2.34396V4.29688C2.34396 3.21984 3.22006 2.34375 4.29709 2.34375ZM5.50068 55.4681V53.1675H28.7268V55.4681C28.7268 56.3886 27.978 57.1373 27.0576 57.1373H7.1699C6.24959 57.1373 5.50068 56.3886 5.50068 55.4681ZM38.0943 71.3427V61.7816C38.0943 60.6872 38.9847 59.7967 40.0791 59.7967C41.1737 59.7967 42.0641 60.6872 42.0641 61.7816V71.3427H38.0943ZM74.4997 53.1675V55.4681C74.4997 56.3886 73.751 57.1373 72.8305 57.1373H52.943C52.0226 57.1373 51.2738 56.3886 51.2738 55.4681V53.1675H74.4997ZM48.1169 9.47031V4.29688C48.1169 3.21984 48.993 2.34375 50.0701 2.34375H75.7033C76.7804 2.34375 77.6565 3.21984 77.6565 4.29688V9.47031H48.1169Z" fill="black"/>
<path d="M29.1765 15.0617C29.1765 14.4145 28.6518 13.8898 28.0046 13.8898H6.22287C5.57568 13.8898 5.051 14.4145 5.051 15.0617V36.0542C5.051 36.7014 5.57568 37.2261 6.22287 37.2261H28.0044C28.6516 37.2261 29.1763 36.7014 29.1763 36.0542L29.1765 15.0617ZM26.8327 34.8822H7.39475V16.2336H26.8326L26.8327 34.8822Z" fill="black"/>
<path d="M29.1765 41.1049C29.1765 40.4577 28.6518 39.933 28.0046 39.933H6.22287C5.57568 39.933 5.051 40.4577 5.051 41.1049C5.051 41.752 5.57568 42.2767 6.22287 42.2767H28.0044C28.6518 42.2767 29.1765 41.752 29.1765 41.1049Z" fill="black"/>
<path d="M6.22287 44.8259C5.57568 44.8259 5.051 45.3506 5.051 45.9978C5.051 46.645 5.57568 47.1697 6.22287 47.1697H23.2694C23.9166 47.1697 24.4413 46.645 24.4413 45.9978C24.4413 45.3506 23.9166 44.8259 23.2694 44.8259H6.22287Z" fill="black"/>
<path d="M6.22287 7.07891H9.37959C10.0268 7.07891 10.5515 6.55422 10.5515 5.90703C10.5515 5.25984 10.0268 4.73516 9.37959 4.73516H6.22287C5.57568 4.73516 5.051 5.25984 5.051 5.90703C5.051 6.55422 5.57568 7.07891 6.22287 7.07891Z" fill="black"/>
<path d="M13.1677 32.9644C13.8149 32.9644 14.3396 32.4397 14.3396 31.7925V26.6508H19.8877V31.7925C19.8877 32.4397 20.4124 32.9644 21.0596 32.9644C21.7068 32.9644 22.2315 32.4397 22.2315 31.7925V20.7438C22.2315 20.433 22.108 20.1348 21.8882 19.9152L20.3097 18.3367C20.0901 18.1169 19.7919 17.9934 19.4811 17.9934H14.7461C14.4354 17.9934 14.1372 18.1169 13.9176 18.3367L12.3391 19.9152C12.1193 20.1348 11.9958 20.433 11.9958 20.7438V31.7923C11.9958 32.4397 12.5205 32.9644 13.1677 32.9644ZM15.2315 20.3373H18.9958L19.8877 21.2292V24.307H14.3396V21.2292L15.2315 20.3373Z" fill="black"/>
<path d="M74.9494 15.0617C74.9494 14.4145 74.4247 13.8898 73.7775 13.8898H51.9958C51.3486 13.8898 50.824 14.4145 50.824 15.0617V36.0542C50.824 36.7014 51.3486 37.2261 51.9958 37.2261H73.7774C74.4246 37.2261 74.9493 36.7014 74.9493 36.0542L74.9494 15.0617ZM72.6057 34.8822H53.1677V16.2336H72.6055L72.6057 34.8822Z" fill="black"/>
<path d="M74.9494 41.1049C74.9494 40.4577 74.4247 39.933 73.7775 39.933H51.9958C51.3486 39.933 50.824 40.4577 50.824 41.1049C50.824 41.752 51.3486 42.2767 51.9958 42.2767H73.7774C74.4247 42.2767 74.9494 41.752 74.9494 41.1049Z" fill="black"/>
<path d="M51.9958 44.8259C51.3486 44.8259 50.824 45.3506 50.824 45.9978C50.824 46.645 51.3486 47.1697 51.9958 47.1697H69.0424C69.6896 47.1697 70.2143 46.645 70.2143 45.9978C70.2143 45.3506 69.6896 44.8259 69.0424 44.8259H51.9958Z" fill="black"/>
<path d="M55.1527 4.73516H51.996C51.3488 4.73516 50.8241 5.25984 50.8241 5.90703C50.8241 6.55422 51.3488 7.07891 51.996 7.07891H55.1527C55.7999 7.07891 56.3246 6.55422 56.3246 5.90703C56.3246 5.25984 55.7999 4.73516 55.1527 4.73516Z" fill="black"/>
<path d="M58.9408 33.0433H63.7077C65.1165 33.0433 66.4597 32.3302 67.2552 31.1684C68.0629 29.9891 68.2307 28.4261 67.7016 27.0984C67.3194 26.1394 66.588 25.3359 65.6708 24.8627C66.5566 23.5756 66.6724 21.8392 65.9704 20.4442C65.3437 19.1988 64.118 18.3114 62.7365 18.1152C62.5354 18.0866 62.3324 18.0723 62.1294 18.0723H58.9408C58.2936 18.0723 57.769 18.597 57.769 19.2442V31.8713C57.769 32.5186 58.2936 33.0433 58.9408 33.0433ZM65.6608 28.7464C65.6608 29.8234 64.7847 30.6995 63.7077 30.6995H60.1127V26.7297H63.7077C64.8169 26.7297 65.6655 27.6597 65.6608 28.7464ZM60.1127 20.4163H62.1293C63.2174 20.4163 64.0824 21.3263 64.0824 22.4011C64.0824 23.4759 63.2174 24.3859 62.1293 24.3859H60.1127V20.4163Z" fill="black"/>
</svg>
