<svg width="81" height="80" viewBox="0 0 81 80" fill="none" xmlns="http://www.w3.org/2000/svg">
<path d="M62.3015 9.78279C62.3015 8.91982 61.602 8.22029 60.739 8.22029H60.7301C59.8671 8.22029 59.172 8.91982 59.172 9.78279C59.172 10.6458 59.8759 11.3453 60.7388 11.3453C61.6018 11.3453 62.3015 10.6458 62.3015 9.78279Z" fill="black"/>
<path d="M70.7298 9.78279C70.7298 8.91982 70.0303 8.22029 69.1673 8.22029H69.1584C68.2955 8.22029 67.6003 8.91982 67.6003 9.78279C67.6003 10.6458 68.3042 11.3453 69.1672 11.3453C70.0302 11.3453 70.7298 10.6458 70.7298 9.78279Z" fill="black"/>
<path d="M53.8776 9.78279C53.8776 8.91982 53.1781 8.22029 52.3151 8.22029H52.3062C51.4432 8.22029 50.748 8.91982 50.748 9.78279C50.748 10.6458 51.452 11.3453 52.3149 11.3453C53.1779 11.3453 53.8776 10.6458 53.8776 9.78279Z" fill="black"/>
<path d="M9.61676 9.78279C9.61676 10.6458 10.3163 11.3453 11.1793 11.3453H34.6349C35.4979 11.3453 36.1974 10.6458 36.1974 9.78279C36.1974 8.91982 35.4979 8.22029 34.6349 8.22029H11.1793C10.3164 8.22029 9.61676 8.91982 9.61676 9.78279Z" fill="black"/>
<path d="M75.1286 0H26.2775C25.4145 0 24.715 0.699531 24.715 1.5625C24.715 2.42547 25.4145 3.125 26.2775 3.125H75.1286C76.1695 3.125 77.0162 3.96984 77.0162 5.00828V16.4406H3.33029V5.00828C3.33029 3.96984 4.17514 3.125 5.21357 3.125H12.2467C13.1097 3.125 13.8092 2.42547 13.8092 1.5625C13.8092 0.699531 13.1097 0 12.2467 0H5.21357C2.45201 0 0.205292 2.24672 0.205292 5.00828V74.9872C0.205292 77.7513 2.45201 80 5.21357 80H75.1286C77.8925 80 80.1412 77.7513 80.1412 74.9872V5.00828C80.1412 2.24672 77.8925 0 75.1286 0ZM75.1286 76.875H5.21357C4.17514 76.875 3.33029 76.0281 3.33029 74.9872V19.5656H77.0162V74.9872C77.0162 76.0281 76.1694 76.875 75.1286 76.875Z" fill="black"/>
<path d="M14.8066 59.7832C11.2172 59.7832 8.29688 62.7034 8.29688 66.2929C8.29688 69.88 11.217 72.7982 14.8066 72.7982C18.3936 72.7982 21.3117 69.88 21.3117 66.2929C21.3117 62.7036 18.3936 59.7832 14.8066 59.7832ZM14.8066 69.6734C12.9403 69.6734 11.4219 68.157 11.4219 66.2931C11.4219 64.4268 12.9402 62.9084 14.8066 62.9084C16.6703 62.9084 18.1867 64.4268 18.1867 66.2931C18.1867 68.157 16.6705 69.6734 14.8066 69.6734Z" fill="black"/>
<path d="M31.7162 59.7832C28.1292 59.7832 25.2111 62.7034 25.2111 66.2929C25.2111 69.88 28.1294 72.7982 31.7162 72.7982C35.3031 72.7982 38.2214 69.88 38.2214 66.2929C38.2214 62.7036 35.3033 59.7832 31.7162 59.7832ZM31.7162 69.6734C29.8523 69.6734 28.3361 68.157 28.3361 66.2931C28.3361 64.4268 29.8525 62.9084 31.7162 62.9084C33.58 62.9084 35.0964 64.4268 35.0964 66.2931C35.0964 68.157 33.5802 69.6734 31.7162 69.6734Z" fill="black"/>
<path d="M48.6259 59.7832C45.0389 59.7832 42.1207 62.7034 42.1207 66.2929C42.1207 69.88 45.039 72.7982 48.6259 72.7982C52.2153 72.7982 55.1356 69.88 55.1356 66.2929C55.1354 62.7036 52.2153 59.7832 48.6259 59.7832ZM48.6259 69.6734C46.762 69.6734 45.2457 68.157 45.2457 66.2931C45.2457 64.4268 46.7621 62.9084 48.6259 62.9084C50.4921 62.9084 52.0106 64.4268 52.0106 66.2931C52.0104 68.157 50.4921 69.6734 48.6259 69.6734Z" fill="black"/>
<path d="M65.5401 59.7832C61.9507 59.7832 59.0304 62.7034 59.0304 66.2929C59.0304 69.88 61.9505 72.7982 65.5401 72.7982C69.1271 72.7982 72.0452 69.88 72.0452 66.2929C72.0452 62.7036 69.1269 59.7832 65.5401 59.7832ZM65.5401 69.6734C63.6738 69.6734 62.1554 68.157 62.1554 66.2931C62.1554 64.4268 63.6736 62.9084 65.5401 62.9084C67.404 62.9084 68.9202 64.4268 68.9202 66.2931C68.9202 68.157 67.4038 69.6734 65.5401 69.6734Z" fill="black"/>
<path d="M8.3025 52.1678C8.35875 52.9756 9.04906 53.6206 9.86172 53.6206H44.8325C45.6852 53.6206 46.3972 52.9092 46.3972 52.0581V25.6122C46.3972 24.7492 45.6977 24.0497 44.8347 24.0497H9.85953C8.99656 24.0497 8.29703 24.7492 8.29703 25.6122V52.058C8.2989 52.0947 8.30062 52.1312 8.3025 52.1678ZM34.2051 50.4956L31.2941 45.9075L35.1883 39.7733L41.9926 50.4956H34.2051ZM30.5042 50.4956H12.7019L21.6047 36.4695L30.5042 50.4956ZM43.2722 27.1747V46.6798L36.5078 36.0205C36.2212 35.5687 35.7234 35.2952 35.1887 35.2952C34.6539 35.2952 34.1562 35.5687 33.8695 36.0203L29.4439 42.9916L22.9244 32.7166C22.6378 32.2648 22.14 31.9912 21.6052 31.9911C21.0703 31.9911 20.5725 32.2647 20.2858 32.7162L11.4219 46.6808V27.1747H43.2722Z" fill="black"/>
<path d="M52.9928 27.1747H70.4206C71.2835 27.1747 71.9831 26.4752 71.9831 25.6122C71.9831 24.7492 71.2835 24.0497 70.4206 24.0497H52.9928C52.1298 24.0497 51.4303 24.7492 51.4303 25.6122C51.4303 26.4752 52.1298 27.1747 52.9928 27.1747Z" fill="black"/>
<path d="M52.9928 35.8334H70.4206C71.2835 35.8334 71.9831 35.1339 71.9831 34.2709C71.9831 33.408 71.2835 32.7084 70.4206 32.7084H52.9928C52.1298 32.7084 51.4303 33.408 51.4303 34.2709C51.4303 35.1339 52.1298 35.8334 52.9928 35.8334Z" fill="black"/>
<path d="M52.9928 44.488H70.4206C71.2835 44.488 71.9831 43.7885 71.9831 42.9255C71.9831 42.0625 71.2835 41.363 70.4206 41.363H52.9928C52.1298 41.363 51.4303 42.0625 51.4303 42.9255C51.4303 43.7885 52.1298 44.488 52.9928 44.488Z" fill="black"/>
<path d="M52.9928 53.1422H70.4206C71.2835 53.1422 71.9831 52.4426 71.9831 51.5797C71.9831 50.7167 71.2835 50.0172 70.4206 50.0172H52.9928C52.1298 50.0172 51.4303 50.7167 51.4303 51.5797C51.4303 52.4426 52.1298 53.1422 52.9928 53.1422Z" fill="black"/>
<path d="M19.262 3.125H19.2709C20.1339 3.125 20.829 2.42547 20.829 1.5625C20.829 0.699531 20.1251 0 19.2621 0C18.3992 0 17.6996 0.699531 17.6996 1.5625C17.6996 2.42547 18.3992 3.125 19.262 3.125Z" fill="black"/>
</svg>
